<?xml version="1.0" standalone="no"?>
<!DOCTYPE svg PUBLIC "-//W3C//DTD SVG 1.1//EN" "http://www.w3.org/Graphics/SVG/1.1/DTD/svg11.dtd" >
<svg xmlns="http://www.w3.org/2000/svg" xmlns:xlink="http://www.w3.org/1999/xlink" version="1.1">
<metadata>
Created by FontForge 20170731 at Thu Jul  6 17:35:19 2023
 By Aleksey,,,
Copyright (c) 1991 Adobe Systems Incorporated. All Rights Reserved.Berthold Akzidenz Grotesk is a registered trademark of H. Berthold AG.
</metadata>
<defs>
<font id="AkzidenzGroteskBE-Regular" horiz-adv-x="555" >
  <font-face 
    font-family="Berthold Akzidenz Grotesk BE Regular"
    font-weight="400"
    font-stretch="normal"
    units-per-em="2048"
    panose-1="2 0 5 3 0 0 0 0 0 0"
    ascent="1638"
    descent="-410"
    x-height="965"
    cap-height="1446"
    bbox="-317 -512 2513 1933"
    underline-thickness="102"
    underline-position="-307"
    unicode-range="U+0020-FFFD"
  />
<missing-glyph 
 />
    <glyph glyph-name=".notdef" unicode="&#xfffd;" 
 />
    <glyph glyph-name=".null" horiz-adv-x="0" 
 />
    <glyph glyph-name="nonmarkingreturn" horiz-adv-x="682" 
 />
    <glyph glyph-name="space" unicode=" " 
 />
    <glyph glyph-name="exclam" unicode="!" 
d="M285 301l-49 578v567h161v-590l-49 -555h-63zM236 0v184h161v-184h-161z" />
    <glyph glyph-name="quotedbl" unicode="&#x22;" horiz-adv-x="811" 
d="M702 1413l-81 -524h-48l-79 500q-2 14 -2 38q0 54 33.5 80.5t76.5 26.5q34 0 57 -14.5t33 -32.5q14 -23 10 -74zM319 1413l-83 -524h-48l-79 500q0 7 -1.5 19.5t-1.5 18.5q0 53 35 80t78 27q33 0 55.5 -15t32.5 -32q12 -20 12 -74z" />
    <glyph glyph-name="numbersign" unicode="#" horiz-adv-x="1366" 
d="M922 469l-68 -469h-162l68 469h-228l-67 -469h-166l72 469h-285v158h305l33 221h-291v158h311l64 438h164l-64 -438h226l65 438h160l-62 -438h283v-158h-303l-33 -221h285v-158h-307zM553 627h229l31 221h-227z" />
    <glyph glyph-name="dollar" unicode="$" horiz-adv-x="1280" 
d="M590 1692h137v-228q105 -23 168.5 -47t124.5 -71q136 -106 174 -267l-190 -18q-23 71 -60 115q-82 114 -217 133v-484q50 -13 92.5 -27t96 -36t95.5 -46.5t84.5 -59t70.5 -74t45.5 -91.5t17.5 -110q0 -98 -47 -181t-121 -133.5t-161.5 -77.5t-172.5 -24v-244h-137v244
q-91 9 -183 42t-157 81q-159 114 -207 330l207 24q18 -88 69 -157q33 -44 72 -76t80 -48.5t64.5 -23t54.5 -12.5v518q-79 25 -110.5 35.5t-90.5 38t-100 59.5q-158 118 -158 291q0 77 35.5 151t101.5 130q39 32 84.5 55t93 35t76 17t68.5 9v228zM590 864v451
q-78 -8 -125 -33q-63 -31 -95 -82.5t-32 -107.5q0 -41 15.5 -75t36.5 -55.5t59 -41.5t66.5 -30.5t74.5 -25.5zM727 604v-485q69 6 104 16q92 23 139.5 84.5t47.5 134.5q0 89 -69.5 145.5t-221.5 104.5z" />
    <glyph glyph-name="percent" unicode="%" horiz-adv-x="1835" 
d="M1739 438q-3 -204 -87.5 -330t-244.5 -126q-107 0 -188 63q-148 116 -148 404q0 112 27 204q41 138 127 205q77 64 178 64q40 0 80.5 -12t84 -39.5t81 -80.5t61.5 -126q29 -88 29 -226zM1606 436q0 97 -17 178q-4 15 -7.5 26t-13 36.5t-23 44t-33 38.5t-48 31t-61.5 11
q-41 0 -74 -18t-51.5 -41t-32.5 -54.5t-18.5 -50t-7.5 -35.5q-15 -77 -15 -151q0 -99 21 -181q9 -31 22 -58t34 -54.5t54 -43.5t74 -16q54 0 93.5 31t58.5 71t30 94.5t13 84t2 57.5zM1159 1397l111 -54l-649 -1402l-113 53zM723 922q-1 -151 -42.5 -249t-100.5 -147
q-79 -67 -191 -67q-86 0 -153 41.5t-105.5 110t-58 148.5t-19.5 165q0 89 20.5 172t60 151.5t104.5 110t147 41.5q66 0 125.5 -28.5t108 -84.5t77 -150t27.5 -214zM590 922q0 223 -82 307q-56 53 -121 53q-56 0 -97 -32t-60 -72.5t-29 -90.5q-15 -77 -15 -153q0 -22 0.5 -39
t4.5 -56.5t11 -70t22 -68t36 -62.5t54 -42.5t75 -17.5q70 0 121 51q80 74 80 293z" />
    <glyph glyph-name="ampersand" unicode="&#x26;" horiz-adv-x="1236" 
d="M956 666h156q-26 -205 -156 -404q18 -21 29.5 -32t38 -32t60 -31.5t71.5 -10.5q11 0 59 6v-170q-40 -8 -75 -8q-99 0 -170 38.5t-131 108.5q-180 -149 -363 -149q-101 0 -189.5 45t-147 137t-58.5 213q0 81 22 143q24 70 76.5 133.5t114.5 102.5q6 5 59 36t62 39
q-45 123 -56.5 165.5t-11.5 101.5q0 145 91.5 240.5t232.5 95.5q126 0 212.5 -80.5t86.5 -206.5q0 -60 -23 -114.5t-53 -91.5t-79.5 -75.5t-81 -57t-79.5 -44.5q103 -203 207 -367q70 133 96 269zM580 907q99 43 162 108.5t63 151.5q0 65 -39.5 104.5t-95.5 39.5
q-63 0 -110.5 -47t-47.5 -131q0 -92 68 -226zM483 690q-104 -48 -167.5 -122t-63.5 -171q0 -41 16 -85t45.5 -83.5t79.5 -64.5t111 -25q53 0 104 20.5t74.5 38.5t58.5 48q-42 62 -133 215t-125 229z" />
    <glyph glyph-name="quotesingle" unicode="'" horiz-adv-x="425" 
d="M319 1413l-83 -524h-48l-79 500q0 7 -1.5 19.5t-1.5 18.5q0 53 35 80t78 27q33 0 55.5 -15t32.5 -32q12 -20 12 -74z" />
    <glyph glyph-name="parenleft" unicode="(" horiz-adv-x="641" 
d="M481 1567h133q-270 -471 -270 -910q0 -222 74.5 -475t195.5 -440h-133q-40 55 -85 138t-97.5 204t-86.5 272t-34 295q0 176 55.5 376.5t143.5 361.5q7 14 53 91t51 87z" />
    <glyph glyph-name="parenright" unicode=")" horiz-adv-x="641" 
d="M158 -258h-133q82 139 139 278t83.5 257t37 206t10.5 168q0 230 -74 473q-71 239 -196 443h133q88 -134 151 -270.5t94.5 -254.5t44.5 -211t13 -176q0 -239 -105 -530q-70 -184 -198 -383z" />
    <glyph glyph-name="asterisk" unicode="*" horiz-adv-x="768" 
d="M324 1446h122v-242l234 74l35 -121l-234 -74l154 -190l-100 -80l-146 195l-137 -195l-105 66l146 204l-240 74l37 121l234 -74v242z" />
    <glyph glyph-name="plus" unicode="+" horiz-adv-x="1366" 
d="M762 514v-514h-164v514h-510v164h510v510h164v-510h514v-164h-514z" />
    <glyph glyph-name="comma" unicode="," horiz-adv-x="468" 
d="M129 223h203v-104q-3 -141 -20 -225t-66 -213h-94q57 153 65 319h-88v223z" />
    <glyph glyph-name="hyphen" unicode="-" horiz-adv-x="598" 
d="M92 682h414v-156h-414v156z" />
    <glyph glyph-name="period" unicode="." horiz-adv-x="468" 
d="M131 231h203v-231h-203v231z" />
    <glyph glyph-name="slash" unicode="/" horiz-adv-x="681" 
d="M504 1438h153l-473 -1438h-157z" />
    <glyph glyph-name="zero" unicode="0" horiz-adv-x="1193" 
d="M1096 690q0 -207 -59 -365.5t-172.5 -247.5t-266.5 -89t-267 89.5t-172.5 245t-58.5 355.5q0 206 57 366.5t170 254.5t267 94q101 0 190.5 -45t159.5 -130.5t111 -221.5t41 -306zM911 688q1 77 -7.5 150t-31 146t-57 127t-90 88t-125.5 34q-156 0 -240 -148
q-77 -135 -77 -397q0 -243 75 -387q86 -156 242 -156q60 0 109 24t80.5 61.5t55 90t36 101.5t19.5 105t9 91.5t2 69.5z" />
    <glyph glyph-name="one" unicode="1" horiz-adv-x="1193" 
d="M594 1380h137v-1380h-192v1010h-297v127q63 1 108.5 6.5t88.5 21.5t72 42.5t50.5 69.5t32.5 103z" />
    <glyph glyph-name="two" unicode="2" horiz-adv-x="1193" 
d="M401 158h664v-158h-903v176q199 102 438 330q121 114 189.5 223.5t68.5 237.5q0 125 -68.5 195.5t-191.5 70.5t-191.5 -68t-68.5 -204q0 -70 24 -164h-180q-24 82 -24 164q0 202 118 315q57 53 141.5 85t184.5 32q105 0 191 -36t141 -97t85 -139t30 -163
q0 -59 -14.5 -118t-35 -106t-55.5 -97.5t-62.5 -84t-70 -75t-64.5 -60.5t-59 -50q-73 -61 -113.5 -90.5t-173.5 -118.5z" />
    <glyph glyph-name="three" unicode="3" horiz-adv-x="1193" 
d="M311 918l-182 10q4 55 6.5 81t11 65.5t23.5 74.5q37 89 106 145.5t144.5 77.5t163.5 21q117 0 207.5 -33.5t143.5 -89.5t80 -122.5t27 -139.5q0 -92 -32 -160q-23 -45 -52.5 -71.5t-83.5 -59.5q27 -14 43.5 -23.5t52 -39t56.5 -61.5t39 -87t18 -119q0 -59 -15.5 -114
t-52 -107.5t-90.5 -91.5t-137.5 -62.5t-185.5 -23.5q-135 0 -249 42.5t-183 135.5q-83 111 -88 291h186q2 -34 4.5 -58.5t11 -58.5t21.5 -58.5t37 -51t56.5 -43t81.5 -27t110 -10.5q142 0 223 63q78 66 78 184q0 48 -13.5 86t-33 62t-51.5 41.5t-57.5 26t-62.5 13t-56 5
t-48 0.5q-55 0 -116 -6v168q92 -5 102 -5q21 0 36.5 0.5t49.5 5t59.5 12t57 24t52 39t34.5 58.5t14 81q0 106 -78.5 169.5t-197.5 63.5q-127 0 -199 -80q-41 -47 -54.5 -103.5t-17.5 -139.5z" />
    <glyph glyph-name="four" unicode="4" horiz-adv-x="1193" 
d="M891 487h201v-155h-201v-332h-180v332h-625v164l662 884h143v-893zM272 487h439l8 617z" />
    <glyph glyph-name="five" unicode="5" horiz-adv-x="1193" 
d="M147 629l46 751h786v-161h-649l-17 -365q126 113 308 113q111 0 200 -42.5t143 -112.5t82.5 -155t28.5 -176q0 -67 -16 -133.5t-53.5 -132t-92 -115.5t-138.5 -81t-187 -31q-94 0 -176.5 26.5t-149.5 79.5t-111 139t-55 197l183 12q7 -55 25 -103.5t51.5 -94t91.5 -72.5
t133 -27q142 0 224.5 94t82.5 250q0 144 -80.5 231t-220.5 87q-51 0 -95 -14t-72.5 -33.5t-52 -46t-35 -46t-18.5 -38.5h-166z" />
    <glyph glyph-name="six" unicode="6" horiz-adv-x="1193" 
d="M1044 1036l-180 -24q-4 23 -8.5 43t-21.5 56.5t-41 61.5t-68 44.5t-100 19.5q-68 0 -128 -29.5t-96 -83.5q-29 -42 -48 -88t-29 -101t-13.5 -91t-7.5 -101q130 168 342 168q85 0 163 -30.5t139 -86t97.5 -141t36.5 -186.5q0 -96 -31.5 -182.5t-89 -152.5t-145 -105
t-192.5 -39q-234 0 -371 186q-58 80 -91.5 193t-33.5 307q0 144 29 284q6 27 11.5 49t23 69.5t38.5 85t58.5 83t82.5 76t110.5 51.5t142.5 21q74 0 148.5 -24t125.5 -64q44 -36 77 -91.5t45 -91.5t25 -86zM899 455q0 76 -30 140.5t-95 107t-153 42.5q-136 0 -212.5 -86
t-76.5 -208q0 -127 81.5 -213t211.5 -86q68 0 122.5 26.5t86.5 71t48.5 97t16.5 108.5z" />
    <glyph glyph-name="seven" unicode="7" horiz-adv-x="1193" 
d="M197 954v426h845v-198q-3 -54 -14.5 -84.5t-64.5 -118.5l-72 -125q-144 -269 -225.5 -467.5t-104.5 -386.5h-217q30 198 129.5 413.5t288.5 530.5l61 94q47 69 58.5 100t9.5 79h-547v-263h-147z" />
    <glyph glyph-name="eight" unicode="8" horiz-adv-x="1193" 
d="M895 741q30 -18 45 -28t49 -41t52.5 -61.5t34.5 -82.5t16 -112q0 -86 -30.5 -162t-89.5 -136t-155.5 -95t-218.5 -35t-218.5 36t-155 96.5t-88.5 134.5t-30 155q0 99 44 182q19 38 46 68.5t44.5 43.5t54.5 37q-68 44 -111 110t-43 175q0 82 31.5 154t91.5 120
q117 93 338 93q113 0 195 -23q72 -21 124.5 -60t79.5 -87t39.5 -96t12.5 -99q0 -194 -158 -287zM868 1028q-1 52 -21 91t-48.5 60.5t-68 34.5t-71.5 17t-67 4q-132 0 -200 -55.5t-68 -147.5q0 -104 71 -164q65 -55 203 -55q135 0 199 53q71 56 71 162zM901 416
q-1 117 -83 180t-226 63q-152 0 -225.5 -70.5t-73.5 -176.5q0 -120 86 -188t223 -68t218.5 71t80.5 189z" />
    <glyph glyph-name="nine" unicode="9" horiz-adv-x="1193" 
d="M150 334l178 33q9 -33 15.5 -53.5t26 -57t43 -58t65.5 -38.5t95 -17q62 0 113.5 23t84.5 58.5t58 84t38.5 93.5t21.5 93t10 77t2 51q-137 -177 -344 -177q-191 0 -321 125.5t-130 335.5q0 94 29.5 179t85 152.5t146.5 107.5t204 40q112 0 200 -36.5t144 -99t93 -151
t52 -185t15 -209.5q0 -353 -141 -545q-68 -90 -156 -131t-215 -41q-144 0 -248 78q-40 30 -70 66.5t-49 76.5t-28 65t-18 60zM883 885q2 62 -16.5 122t-55 111.5t-98.5 83t-140 31.5q-95 0 -161 -48.5t-94.5 -121.5t-28.5 -162q0 -140 82.5 -215.5t203.5 -75.5
q125 0 214.5 73t93.5 202z" />
    <glyph glyph-name="colon" unicode=":" 
d="M217 1001h201v-229h-201v229zM217 231h201v-231h-201v231z" />
    <glyph glyph-name="semicolon" unicode=";" 
d="M219 1004h203v-226h-203v226zM219 227h203v-125q0 -142 -18 -231t-60 -186h-94q51 158 51 315h-82v227z" />
    <glyph glyph-name="less" unicode="&#x3c;" horiz-adv-x="1366" 
d="M1366 170v-176l-1366 641v176l1366 641v-178l-1161 -551z" />
    <glyph glyph-name="equal" unicode="=" horiz-adv-x="1366" 
d="M1366 492v-160h-1366v160h1366zM1366 862v-162h-1366v162h1366z" />
    <glyph glyph-name="greater" unicode="&#x3e;" horiz-adv-x="1366" 
d="M1366 635l-1366 -641v176l1161 553l-1161 551v178l1366 -641v-176z" />
    <glyph glyph-name="question" unicode="?" horiz-adv-x="1150" 
d="M688 618v-311h-162v484q68 0 133 6q76 7 129 34q48 27 83.5 80.5t35.5 126.5q0 85 -46.5 147.5t-114 91t-144.5 28.5q-200 0 -260 -177q-22 -67 -18 -163h-179q-3 112 28 201.5t80.5 142.5t114 88t123 48t113.5 13q86 0 169 -29t151 -83t109.5 -140t41.5 -190
q0 -129 -59 -217.5t-139 -130.5q-72 -38 -189 -50zM516 199h180v-199h-180v199z" />
    <glyph glyph-name="at" unicode="@" horiz-adv-x="1835" 
d="M1612 156l65 -82q-334 -328 -747 -328q-106 0 -211.5 23t-211 78.5t-186 137.5t-130.5 210.5t-50 287.5q0 146 43.5 289t127.5 266t197.5 217.5t263 148.5t314.5 54q277 0 442 -163t165 -431q0 -99 -30 -227.5t-97 -241.5q-72 -124 -166 -188t-178 -64q-39 0 -82 17
q-29 13 -47.5 32t-27 45.5t-11 39.5t-4.5 40q-126 -172 -295 -172q-50 0 -95.5 18.5t-85 56t-63 103t-23.5 150.5q0 152 60 287.5t160.5 217t212.5 81.5q46 0 84.5 -14t61 -30.5t44 -46t27.5 -42.5l18 -39l31 127h139l-67 -307q-37 -184 -47.5 -245.5t-10.5 -109.5
q0 -47 19.5 -67.5t42.5 -20.5q43 0 97 49t101.5 127.5t80 192t32.5 229.5q0 220 -133 352t-373 132q-128 0 -251 -44.5t-223.5 -126t-177 -188t-119 -238t-42.5 -268.5q0 -112 29 -207t79.5 -161.5t115.5 -116.5t141 -79.5t151.5 -43.5t151.5 -14q377 0 688 297zM1108 711
q1 108 -50.5 162.5t-119.5 54.5q-83 0 -151 -71.5t-102 -171.5t-34 -200q0 -53 13 -93t31 -61.5t42 -34.5t41 -16.5t33 -3.5q116 0 204 130.5t93 304.5z" />
    <glyph glyph-name="A" unicode="A" horiz-adv-x="1323" 
d="M1096 0l-158 442h-551l-162 -442h-205l551 1446h201l526 -1446h-202zM449 604h432l-211 602z" />
    <glyph glyph-name="B" unicode="B" horiz-adv-x="1409" 
d="M158 0v1446h596q135 0 194 -10q58 -12 111.5 -38t102 -68.5t77.5 -108.5t29 -146q0 -123 -65 -204t-156 -109q18 -5 32.5 -10t44 -19.5t52 -31t49.5 -46t45 -63.5t30.5 -84.5t12.5 -108.5q0 -217 -164 -323q-78 -51 -159 -62.5t-267 -13.5h-565zM788 1276h-448v-438h301
q190 0 265.5 15t121.5 83q37 53 37 129q0 211 -277 211zM694 674h-354v-504h428q140 3 178 12q168 40 168 232q0 162 -139 231q-41 18 -90.5 22.5t-190.5 6.5z" />
    <glyph glyph-name="C" unicode="C" horiz-adv-x="1536" 
d="M1309 549l211 -25q-19 -85 -57 -164t-100 -152t-141 -127t-186 -86t-229 -32q-173 0 -310.5 62t-222.5 168t-129.5 241.5t-44.5 288.5q0 125 28 236.5t87.5 208t144.5 166.5t206.5 109.5t267.5 39.5q81 0 153.5 -12.5t127 -31.5t104 -50t83.5 -58.5t65.5 -67t49 -65.5
t35.5 -64t24 -53t15 -41l-195 -41q-13 37 -19.5 54t-24 48.5t-42.5 59.5q-59 73 -155.5 120.5t-223.5 47.5q-118 0 -223 -46.5t-174 -135.5q-121 -151 -121 -414q0 -275 135.5 -442.5t380.5 -167.5q84 0 160 24.5t143 73.5t114 133.5t63 194.5z" />
    <glyph glyph-name="D" unicode="D" horiz-adv-x="1449" 
d="M160 0v1446h452q58 0 87.5 -0.5t81.5 -3.5t83.5 -9.5t77 -19.5t79 -32t72.5 -47.5t74 -65.5q181 -193 181 -545q0 -379 -203 -569q-48 -44 -105 -75t-102.5 -46t-105.5 -23t-91.5 -9t-83.5 -1h-497zM584 1276h-228v-1110h256q80 1 121.5 4t97.5 16t101 39q32 17 60 41.5
t58 66.5t51.5 94t35.5 128t14 166q0 436 -301 530q-38 12 -85.5 17.5t-81 6.5t-99.5 1z" />
    <glyph glyph-name="E" unicode="E" horiz-adv-x="1236" 
d="M1051 659h-705v-491h836v-168h-1022v1446h997v-170h-811v-447h705v-170z" />
    <glyph glyph-name="F" unicode="F" horiz-adv-x="1110" 
d="M1036 680h-684v-680h-192v1448h927v-172h-735v-428h684v-168z" />
    <glyph glyph-name="G" unicode="G" horiz-adv-x="1662" 
d="M846 764h672v-764h-166v203q-85 -124 -226 -182t-303 -58q-164 0 -300 56t-228 154.5t-142.5 235t-50.5 296.5q0 114 26.5 223t86 210t144.5 177.5t212 122t279 45.5q142 0 273 -46.5t231 -138.5q94 -90 164 -233l-199 -53q-40 108 -100 170q-54 57 -144.5 99t-218.5 42
q-117 0 -212 -37.5t-155 -97.5t-101 -139.5t-58 -160t-17 -163.5q0 -85 17.5 -166.5t58 -160t100.5 -137t152.5 -94.5t206.5 -36q41 0 84.5 6t94 21t96.5 38t89 60.5t74 84.5t49 114.5t17 146.5h-506v162z" />
    <glyph glyph-name="H" unicode="H" horiz-adv-x="1492" 
d="M1141 0v662h-787v-662h-192v1448h192v-617h787v617h194v-1448h-194z" />
    <glyph glyph-name="I" unicode="I" horiz-adv-x="468" 
d="M137 1446h195v-1446h-195v1446z" />
    <glyph glyph-name="J" unicode="J" horiz-adv-x="768" 
d="M412 1448h196v-1063q0 -55 -1.5 -83.5t-8.5 -71.5t-25.5 -78t-48.5 -68q-107 -119 -311 -119q-79 0 -195 21v209q73 -41 170 -41q89 0 136 28q60 31 74 89t14 196v981z" />
    <glyph glyph-name="K" unicode="K" horiz-adv-x="1280" 
d="M1044 0l-509 711l-205 -207v-504h-193v1446h193v-707l686 707h237l-585 -598l610 -848h-234z" />
    <glyph glyph-name="L" unicode="L" horiz-adv-x="1067" 
d="M332 1448v-1276h700v-172h-893v1448h193z" />
    <glyph glyph-name="M" unicode="M" horiz-adv-x="1662" 
d="M1278 1446h248v-1446h-191l27 1212l-457 -1212h-149l-449 1194l21 -1194h-189v1446h248l444 -1186z" />
    <glyph glyph-name="N" unicode="N" horiz-adv-x="1449" 
d="M1116 1446h174v-1446h-174l-792 1176l16 -1176h-180v1446h180l784 -1159z" />
    <glyph glyph-name="O" unicode="O" horiz-adv-x="1662" 
d="M1561 737q0 -131 -30 -247t-91 -213t-147.5 -166.5t-205.5 -108.5t-260 -39q-217 0 -381.5 95.5t-253 268t-88.5 396.5q0 156 41.5 284.5t112 215.5t165 146.5t198 86.5t213.5 27q152 0 284.5 -51t231 -144.5t155 -235.5t56.5 -315zM1352 735q-2 269 -137.5 430.5
t-380.5 161.5q-133 0 -235 -48.5t-163 -133t-92 -191.5t-31 -233q0 -93 18 -179.5t59 -164.5t100.5 -136t148.5 -92t197 -34q113 0 203 36.5t147.5 96t96 141t54.5 167.5t15 179z" />
    <glyph glyph-name="P" unicode="P" horiz-adv-x="1280" 
d="M760 612h-418v-612h-186v1446h624q154 0 230 -25q122 -42 184.5 -147t62.5 -238q0 -84 -25 -161t-87 -144.5t-154 -95.5q-72 -23 -231 -23zM342 1280v-498h403q53 0 79 1t62 7t61.5 20t49.5 38q70 70 70 192q0 121 -76 185q-29 25 -67 37.5t-65 15t-71 2.5h-446z" />
    <glyph glyph-name="Q" unicode="Q" horiz-adv-x="1662" 
d="M1530 -74l-232 195q-200 -158 -475 -158q-170 0 -309 59.5t-229.5 163t-139.5 241.5t-49 296q0 219 87 390t256 270.5t395 99.5q141 0 260 -38.5t204.5 -107.5t145 -164t88.5 -209t29 -241q0 -145 -33.5 -252t-100.5 -209l224 -192zM1354 721q-1 146 -41 263t-111 192.5
t-166 116t-207 40.5q-230 0 -377 -164t-147 -442q0 -274 143 -441t386 -167q110 0 204 38.5t165 112t111.5 189.5t39.5 262z" />
    <glyph glyph-name="R" unicode="R" horiz-adv-x="1366" 
d="M721 614h-373v-614h-188v1446h536q80 -1 114 -2t90 -5.5t87 -13t69.5 -25.5t71.5 -42q152 -115 152 -334q0 -69 -16 -127.5t-39 -97t-58.5 -70t-64 -48t-67 -29.5t-56 -17t-41.5 -8l405 -627h-229zM348 1286v-512h383q119 0 176 14q94 23 137 86t43 148q0 132 -86 203
q-36 30 -86.5 44t-84 15.5t-109.5 1.5h-373z" />
    <glyph glyph-name="S" unicode="S" horiz-adv-x="1366" 
d="M782 643l-120 25q-44 9 -73 15.5t-76 19t-78.5 24.5t-73.5 31.5t-70 40.5t-58 50t-47.5 62.5t-29 76t-11.5 91.5q0 166 134 281q143 123 387 123q243 0 389 -107q50 -37 86.5 -82.5t56 -95.5t28 -84t15.5 -78l-194 -12q-7 159 -117 240q-96 69 -258 69q-140 0 -234 -58
t-94 -169q0 -29 6.5 -54t21 -44.5t29 -35t40 -28.5t43 -21t49 -17t47.5 -13t49 -12l159 -41q17 -4 58.5 -14t55 -13.5t39.5 -10.5t42 -13t33 -13q77 -32 130 -79.5t77 -100t33.5 -95t9.5 -85.5q0 -224 -185 -350q-152 -103 -393 -103q-38 0 -74 2.5t-98 13.5t-114 29.5
t-111.5 56.5t-102.5 88.5t-74 130t-38 177.5l207 26q7 -182 116 -278t297 -96q159 0 260 75.5t101 212.5q0 60 -21.5 103.5t-64.5 70t-85 41t-104 27.5z" />
    <glyph glyph-name="T" unicode="T" horiz-adv-x="1110" 
d="M1081 1278h-432v-1278h-194v1278h-435v170h1061v-170z" />
    <glyph glyph-name="U" unicode="U" horiz-adv-x="1409" 
d="M1057 1448h194v-924q-4 -132 -18 -188q-16 -69 -55 -132t-103 -118t-163 -88t-220 -33q-294 0 -444 193q-28 36 -46.5 74.5t-28 68t-14 79.5t-5 77.5t-0.5 93.5v897h194v-870q-1 -63 0 -98.5t7.5 -83.5t23 -85.5t43.5 -70.5q92 -113 270 -113q130 0 222 62t124 178
q16 62 19 215v866z" />
    <glyph glyph-name="V" unicode="V" horiz-adv-x="1236" 
d="M610 238l398 1208h204l-510 -1446h-192l-487 1446h204z" />
    <glyph glyph-name="W" unicode="W" horiz-adv-x="2091" 
d="M1518 248l337 1198h199l-442 -1446h-189l-381 1198l-368 -1198h-193l-444 1446h203l342 -1198l366 1198h189z" />
    <glyph glyph-name="X" unicode="X" horiz-adv-x="1280" 
d="M1186 1446l-441 -688l494 -758h-227l-375 588l-371 -588h-223l481 758l-454 688h229l338 -520l321 520h228z" />
    <glyph glyph-name="Y" unicode="Y" horiz-adv-x="1280" 
d="M1251 1446l-520 -784v-662h-194v662l-510 784h229l379 -612l387 612h229z" />
    <glyph glyph-name="Z" unicode="Z" horiz-adv-x="1236" 
d="M109 1446h1040v-180l-889 -1092h909v-174h-1132v188l893 1080h-821v178z" />
    <glyph glyph-name="bracketleft" unicode="[" horiz-adv-x="641" 
d="M618 1399h-212v-1503h212v-123h-385v1753h385v-127z" />
    <glyph glyph-name="backslash" unicode="\" horiz-adv-x="681" 
d="M184 1438l473 -1438h-153l-477 1438h157z" />
    <glyph glyph-name="bracketright" unicode="]" horiz-adv-x="641" 
d="M23 -100h213v1503h-213v123h385v-1753h-385v127z" />
    <glyph glyph-name="asciicircum" unicode="^" horiz-adv-x="1366" 
d="M770 1446l369 -756h-199l-254 531l-262 -531h-197l385 756h158z" />
    <glyph glyph-name="underscore" unicode="_" horiz-adv-x="1024" 
d="M1044 -154v-102h-1064v102h1064z" />
    <glyph glyph-name="grave" unicode="`" 
d="M145 1362h181l84 -295h-97z" />
    <glyph glyph-name="a" unicode="a" horiz-adv-x="1024" 
d="M555 565l154 13v24q0 30 -0.5 47t-4.5 49t-12 52t-24 45.5t-38 39.5t-57.5 24.5t-80.5 10.5q-59 0 -101 -17t-61.5 -38.5t-30.5 -54.5t-12.5 -50.5t-1.5 -41.5l-172 10q11 93 39 145q44 82 128.5 127t204.5 45q75 0 152.5 -20.5t130.5 -61.5q38 -31 61 -66.5t32 -82.5
t10.5 -80.5t0.5 -95.5v-314q1 -36 1.5 -50.5t4.5 -37t11 -30.5t20 -14.5t33 -6.5q30 0 53 10v-141q-72 -16 -102 -16q-149 0 -168 143q-23 -24 -36 -37t-48 -39.5t-66.5 -41.5t-80.5 -27.5t-101 -12.5q-142 0 -234.5 77.5t-92.5 199.5q0 81 43 145q46 69 145 111.5t301 58.5
zM711 473q-179 -28 -254 -45q-123 -27 -167 -70.5t-44 -103.5q0 -62 47.5 -102.5t134.5 -40.5q88 0 155 36t101 109q18 39 22.5 74.5t4.5 142.5z" />
    <glyph glyph-name="b" unicode="b" horiz-adv-x="1150" 
d="M133 1448h164v-614q17 22 26.5 33t42.5 39.5t64.5 44.5t85 30t113.5 14q65 0 126.5 -17t120 -56.5t101.5 -98t69.5 -146.5t26.5 -196q0 -76 -14.5 -147t-48 -138t-83.5 -116t-127 -79t-173 -30q-215 0 -330 154v-125h-164v1448zM293 481q0 -97 25.5 -170.5t69.5 -116.5
t97 -64t113 -21q64 0 116 22t86 59t56.5 87t32.5 102.5t10 109.5q0 171 -85.5 264t-213.5 93q-54 0 -104.5 -18t-97.5 -57t-75.5 -113.5t-29.5 -176.5z" />
    <glyph glyph-name="c" unicode="c" horiz-adv-x="1067" 
d="M836 365l176 -17q-13 -85 -56 -164q-116 -213 -395 -213q-103 0 -186 29.5t-137 78.5t-90.5 115t-52 135.5t-15.5 143.5q0 84 17.5 160t54.5 142.5t91 115t132 76.5t172 28q52 0 101 -7.5t105 -29.5t101 -56.5t83 -93.5t56 -136l-180 -17q-2 15 -6.5 30.5t-14.5 44
t-29.5 52t-46 46.5t-69 36t-94.5 13q-58 0 -104.5 -17.5t-76.5 -44.5t-52 -65.5t-33 -73.5t-17.5 -76.5t-8 -65.5t-1.5 -49q0 -162 64 -260q81 -129 239 -129q49 0 89 11.5t66.5 28t47.5 43t32.5 48t20 52.5t11.5 47t6 39z" />
    <glyph glyph-name="d" unicode="d" horiz-adv-x="1150" 
d="M854 1448h164v-1448h-164v125q-17 -21 -30 -35t-44.5 -39t-64.5 -40t-84 -27.5t-109 -12.5q-206 0 -324 141t-118 375q0 109 27 197t71.5 145t103 95.5t118 54.5t120.5 16q31 0 65 -5t82.5 -19.5t98 -48.5t88.5 -84v610zM561 848q-40 1 -80 -8.5t-82 -35.5t-73.5 -66
t-51.5 -106.5t-20 -150.5q0 -103 30.5 -183t100 -130.5t170.5 -50.5q140 0 221.5 98.5t81.5 271.5q0 97 -27.5 170t-72.5 112.5t-94.5 58.5t-102.5 20z" />
    <glyph glyph-name="e" unicode="e" horiz-adv-x="1067" 
d="M823 319l166 -22q-9 -25 -14.5 -39.5t-24.5 -53t-39 -64.5t-56 -60.5t-76.5 -56t-99.5 -37t-126 -15.5q-217 0 -345 139t-128 382q0 105 29 192t76 143.5t109 95t125.5 55.5t127.5 17q69 0 134 -19.5t123 -59.5t102 -107.5t65 -155.5q18 -82 18 -196h-733
q-2 -64 15 -125.5t52.5 -116t98.5 -88t145 -33.5q104 0 168.5 61t87.5 164zM260 573h551q-4 72 -27 128t-53 87t-68.5 50.5t-69 25.5t-58.5 6q-109 0 -185.5 -78t-89.5 -219z" />
    <glyph glyph-name="f" unicode="f" 
d="M342 1133v-168h182v-136h-182v-829h-158v829h-161v136h161l2 196q1 26 1.5 41.5t6 48t14.5 54t28 48.5t44 43.5t65.5 28t90.5 11.5q18 0 119 -13v-127q-70 9 -90 9q-35 0 -59 -11.5t-36.5 -26.5t-19 -41.5t-7.5 -44.5t-1 -48z" />
    <glyph glyph-name="g" unicode="g" horiz-adv-x="1150" 
d="M848 965h170v-912q0 -59 -1 -89t-6 -80t-18 -90.5t-35 -76.5q-54 -94 -158 -140t-229 -46q-180 0 -295 82q-35 25 -62 58.5t-41 60t-24.5 63.5t-13 52.5t-6.5 43.5h184q-1 -44 13 -82.5t44 -72t84.5 -53t127.5 -19.5q134 0 204 70q41 44 50.5 100.5t11.5 194.5v112
q-121 -170 -318 -170q-89 0 -168.5 32.5t-142 94t-99 159.5t-36.5 220q0 112 28 202.5t73 148t104.5 96.5t120 55t122.5 16q181 0 316 -159v129zM547 848q-133 -2 -214 -100.5t-81 -264.5q0 -161 67 -252q86 -114 238 -114q155 0 236 123q63 95 63 258q0 67 -14 122.5
t-35.5 91t-51.5 62t-58 40.5t-60 22t-52 10t-38 2z" />
    <glyph glyph-name="h" unicode="h" horiz-adv-x="1067" 
d="M135 0v1448h166v-580q70 75 140.5 101t152.5 26q76 0 136 -19.5t97 -52.5t59 -67.5t34 -73.5q18 -61 18 -221v-561h-166v510q0 79 -1.5 114.5t-10 76.5t-27.5 69q-57 82 -170 82q-87 0 -157 -51t-93 -156q-12 -53 -12 -176v-469h-166z" />
    <glyph glyph-name="i" unicode="i" horiz-adv-x="425" 
d="M141 1446h158v-189h-158v189zM141 965h158v-965h-158v965z" />
    <glyph glyph-name="j" unicode="j" horiz-adv-x="425" 
d="M133 1446h160v-191h-160v191zM133 963h160v-1176q-1 -54 -3 -78t-14 -59t-36 -60q-36 -37 -79 -48t-100 -11q-39 0 -108 6v148q51 -7 74 -7q31 0 51.5 8.5t31.5 19.5t16 34.5t6 39.5t1 50v1133z" />
    <glyph glyph-name="k" unicode="k" horiz-adv-x="937" 
d="M885 965l-359 -381l441 -584h-205l-346 463l-117 -123v-340h-166v1446h166v-891l385 410h201z" />
    <glyph glyph-name="l" unicode="l" horiz-adv-x="425" 
d="M135 1446h158v-1446h-158v1446z" />
    <glyph glyph-name="m" unicode="m" horiz-adv-x="1579" 
d="M125 965h160v-129q136 159 288 159q45 0 84 -12.5t63.5 -27.5t49.5 -43.5t36 -45.5t30 -49q34 34 53 52t54.5 46t64 42.5t68.5 26t81 11.5q87 0 160.5 -48t103.5 -120q17 -41 22 -89t5 -132v-604h-160v565q0 121 -8 154q-11 39 -33.5 65.5t-50 37t-47 14.5t-37.5 4
q-51 0 -101.5 -22.5t-86.5 -59.5q-38 -39 -48 -81t-10 -136v-541h-159v621q0 104 -37 153q-49 66 -142 66q-98 0 -180 -72q-43 -39 -53 -79t-10 -118v-573h-160v965z" />
    <glyph glyph-name="n" unicode="n" horiz-adv-x="1067" 
d="M133 965h164v-142q31 55 75 92.5t89.5 53t76.5 21t60 5.5q104 0 194 -55t123 -166q17 -61 17 -199v-575h-162v549q0 127 -10 160q-21 65 -78.5 99t-128.5 34q-110 0 -184 -74q-34 -34 -50.5 -75t-19 -67.5t-2.5 -74.5v-551h-164v965z" />
    <glyph glyph-name="o" unicode="o" horiz-adv-x="1110" 
d="M1028 483q-2 -225 -128.5 -368.5t-342.5 -143.5q-121 0 -214.5 42.5t-149 115t-83.5 160.5t-28 186q0 69 13.5 137t48.5 138.5t87.5 123.5t138 87t193.5 34q116 0 207 -42.5t146.5 -115t84 -163t27.5 -191.5zM850 483q2 75 -10 135q-26 131 -101.5 188.5t-171.5 57.5
q-156 0 -231.5 -107t-75.5 -284q0 -78 17 -144t51 -117.5t92 -80.5t135 -29q56 0 101.5 16.5t75.5 41.5t52.5 61.5t34.5 70t19 73.5t9 65.5t3 52.5z" />
    <glyph glyph-name="p" unicode="p" horiz-adv-x="1150" 
d="M131 -457v1422h162v-138q5 5 17.5 20t17.5 20l15 15t19.5 17.5t20.5 15.5q49 34 118 57t136 23q81 0 156.5 -32t138.5 -93.5t101 -162.5t38 -226q0 -105 -28.5 -196t-83 -161.5t-142.5 -111.5t-199 -41q-207 0 -325 144v-572h-162zM590 842q-138 -4 -217.5 -106.5
t-79.5 -268.5q0 -161 78.5 -256.5t222.5 -95.5q104 0 170 43q53 35 96 115t43 210q0 170 -86 267.5t-227 91.5z" />
    <glyph glyph-name="q" unicode="q" horiz-adv-x="1150" 
d="M852 965h166v-1424h-166v576q-42 -53 -92 -84q-100 -62 -242 -62q-141 0 -241.5 66t-148.5 177t-48 255q0 248 123 385q57 65 141 103t178 38q82 0 146 -26q117 -45 184 -148v144zM561 844q-74 0 -137 -29q-164 -78 -164 -336q0 -170 68 -266q80 -111 231 -111
q74 0 135 28.5t99 74.5q71 88 71 246q0 179 -81 284.5t-222 108.5z" />
    <glyph glyph-name="r" unicode="r" horiz-adv-x="641" 
d="M133 965h164v-177q26 52 64.5 89.5t72 55.5t78 29t65.5 12.5t52 2.5v-176q-40 4 -68 4q-154 0 -223 -115q-20 -34 -29.5 -80t-10.5 -73.5t-1 -90.5v-446h-164v965z" />
    <glyph glyph-name="s" unicode="s" horiz-adv-x="980" 
d="M543 408l-92 18q-150 36 -212 68q-135 70 -135 213q0 131 102.5 208.5t270.5 77.5q72 0 138.5 -18t125 -54t98.5 -98.5t52 -144.5l-176 -23q-2 54 -14.5 88.5t-55.5 67.5q-73 57 -186 57q-89 0 -140 -43t-51 -98q0 -27 13 -48.5t31 -35.5t52.5 -27.5t61.5 -21.5t74 -19
l92 -22q34 -8 54.5 -13.5t58.5 -18t62.5 -25.5t55 -35.5t48 -47.5t30 -61t12.5 -78q0 -126 -107.5 -215.5t-297.5 -89.5q-188 0 -299 78q-124 92 -143 262l184 29q-6 -122 72 -188q65 -56 194 -56q108 0 167.5 41.5t59.5 118.5q0 32 -10.5 56.5t-25.5 39t-44 26.5t-53 18
t-67 14z" />
    <glyph glyph-name="t" unicode="t" horiz-adv-x="598" 
d="M356 1270v-305h176v-136h-176v-553q0 -36 0.5 -52.5t2.5 -40t6 -33t11.5 -20t20 -14t29.5 -3.5q33 0 106 22v-135q-116 -16 -157 -16q-40 0 -70 5.5t-50 15.5t-33.5 25t-20 33.5t-10 40.5t-3.5 47v52v626h-153v136h153v305h168z" />
    <glyph glyph-name="u" unicode="u" horiz-adv-x="1067" 
d="M133 399v566h162v-551q0 -108 4 -133q11 -84 66.5 -118t126.5 -34t127.5 25.5t89.5 66.5q28 33 41.5 76t15.5 77.5t2 106.5v484h162v-965h-162v147q-130 -172 -330 -172q-152 0 -235 99q-48 55 -59 119t-11 206z" />
    <glyph glyph-name="v" unicode="v" horiz-adv-x="894" 
d="M451 225l254 740h167l-348 -965h-147l-352 965h170z" />
    <glyph glyph-name="w" unicode="w" horiz-adv-x="1492" 
d="M678 965h141l230 -717l251 717h173l-355 -965h-143l-232 719l-235 -719h-150l-335 965h176l241 -717z" />
    <glyph glyph-name="x" unicode="x" horiz-adv-x="811" 
d="M414 633l194 332h185l-291 -476l291 -489h-185l-205 344l-200 -344h-187l301 489l-284 476h188z" />
    <glyph glyph-name="y" unicode="y" horiz-adv-x="894" 
d="M700 965h170l-405 -1141q-17 -49 -29 -79t-29 -65.5t-32 -56.5t-36.5 -42.5t-45.5 -32.5t-55.5 -18t-69.5 -7q-73 0 -150 22v146q65 -17 105 -17q35 0 61.5 9.5t43.5 22.5t34 43.5t26 54t27 73.5l41 117l-327 971h174l241 -766z" />
    <glyph glyph-name="z" unicode="z" horiz-adv-x="854" 
d="M78 965h706v-131l-559 -699h572v-135h-770v135l555 688h-504v142z" />
    <glyph glyph-name="braceleft" unicode="{" horiz-adv-x="724" 
d="M139 614v82q32 9 47.5 15.5t36.5 27.5t37 56q16 36 20.5 83t4.5 148v113q2 146 15 215.5t60 120.5q52 56 109 70.5t197 21.5v-82q-31 -8 -45 -12.5t-42 -17t-48 -31.5t-35 -46q-21 -35 -27 -83.5t-8 -153.5v-21q0 -123 -2 -186q-2 -74 -15 -125t-38.5 -81t-52.5 -45.5
t-70 -29.5q61 -23 95.5 -49t57 -80.5t25.5 -142.5q2 -57 2 -172v-45q0 -49 1.5 -79t6 -65.5t13.5 -57t23 -44.5t36 -38.5t52 -30t71 -25.5v-82q-120 3 -187 19t-114 65q-29 30 -47 71t-23.5 81t-7.5 84t0 79v119q0 106 -4.5 154.5t-18.5 85.5q-15 36 -38.5 60.5t-39.5 33
t-47 20.5z" />
    <glyph glyph-name="bar" unicode="|" horiz-adv-x="468" 
d="M315 1536v-2048h-163v2048h163z" />
    <glyph glyph-name="braceright" unicode="}" horiz-adv-x="724" 
d="M586 694v-82q-25 -7 -36 -11.5t-29 -14.5t-31 -27.5t-25 -44.5q-16 -36 -20.5 -83t-4.5 -148v-113q-2 -146 -15 -215.5t-60 -120.5q-52 -56 -109 -70.5t-197 -21.5v82q79 21 113 44q36 24 57 62q21 35 27 84t8 154v20q0 124 2 187q2 60 11.5 104.5t23.5 73t38 49
t46.5 31.5t56.5 22q-61 23 -95.5 49t-57 81t-25.5 143q-2 57 -2 172v45q0 49 -1.5 79t-6 65.5t-13.5 57t-23 44.5t-36 38.5t-52 30t-71 25.5v82q120 -3 187 -19t114 -65q29 -30 47 -71t23.5 -81.5t7.5 -84.5t0 -79v-118q0 -106 4.5 -154.5t18.5 -85.5q12 -28 26 -48t33 -33
t31.5 -19t34.5 -15z" />
    <glyph glyph-name="asciitilde" unicode="~" horiz-adv-x="1366" 
d="M1098 750l78 -146q-50 -64 -122 -114t-159 -50q-30 0 -62 8t-53 17t-72 32q-13 6 -20 9q-84 42 -131 60t-90 18q-24 0 -43.5 -5.5t-33.5 -12.5t-36 -28.5t-35.5 -36.5t-46.5 -55l-82 146q116 172 273 172q38 0 81 -11t70.5 -22.5t75.5 -34.5l68 -30q97 -43 143 -43
q100 0 197 127z" />
    <glyph glyph-name="exclamdown" unicode="&#xa1;" 
d="M319 567v-567h-161v590l49 555h63zM319 1446v-184h-161v184h161z" />
    <glyph glyph-name="cent" unicode="&#xa2;" horiz-adv-x="1024" 
d="M473 985v199h123v-199q109 -11 184 -57q137 -85 189 -264l-183 -19q-5 47 -22.5 83.5t-36 57t-47.5 36.5t-44.5 21t-39.5 11v-745q79 14 127 55q76 66 88 205l178 -17q-27 -114 -67 -182q-28 -48 -65.5 -84.5t-69.5 -55.5t-73.5 -32t-64 -16.5t-55.5 -6.5v-211h-121v211
q-43 7 -73.5 14.5t-82.5 32t-94 62.5q-76 66 -121 172.5t-45 230.5q0 140 52.5 242.5t130.5 163.5q93 70 233 92zM473 111v745q-124 -32 -183 -129.5t-59 -239.5q0 -89 20 -157.5t45 -105.5t64 -63.5t61 -34.5t52 -15z" />
    <glyph glyph-name="sterling" unicode="&#xa3;" horiz-adv-x="1366" 
d="M1026 578h-356q28 -88 35.5 -119t7.5 -72q0 -70 -23 -158q49 -30 119 -57t135 -27q84 0 140.5 55t60.5 167l192 -15q-3 -25 -8 -52t-17 -65.5t-28.5 -72.5t-43.5 -69t-60.5 -60.5t-82 -41.5t-104.5 -16q-122 0 -272 64l-107 49q-56 -44 -79 -57q-41 -27 -98 -44.5
t-111 -17.5q-101 0 -166.5 53.5t-65.5 135.5q0 73 57 126.5t164 53.5q94 0 209 -37q2 14 2 33q0 110 -90 244h-362v133h268q-43 73 -65 115t-41 104t-19 123q0 100 46.5 183t123 136t172 82t195.5 29t188.5 -29t158 -84.5t112.5 -144.5t47 -201l-213 -23l2 37
q0 130 -83 213.5t-225 83.5q-76 0 -142.5 -25.5t-113.5 -87t-47 -149.5q0 -122 86 -252l72 -110h430v-133zM465 160q-105 35 -141 35q-34 0 -51 -17.5t-17 -34.5q0 -16 16.5 -32.5t49.5 -16.5q73 0 143 66z" />
    <glyph glyph-name="currency" unicode="&#xa4;" horiz-adv-x="1366" 
d="M1278 1167l-154 -153q37 -59 53.5 -90t33 -92t16.5 -132q0 -78 -16.5 -141.5t-33.5 -94t-55 -89.5l156 -158l-125 -121l-154 156q-47 -28 -68.5 -40t-63 -30t-85 -25t-98.5 -7q-75 0 -137.5 16.5t-94.5 34t-87 53.5l-156 -156l-123 123l156 154q-37 58 -54 89t-34 94.5
t-17 139.5q0 59 10 110.5t30.5 94t32 61.5t32.5 50l-154 153l123 123l154 -153q42 29 73 47t100.5 37.5t147.5 19.5q72 0 133 -16t93 -33.5t89 -54.5l154 153zM1063 696q1 87 -31.5 161t-86 122t-121 75t-138.5 27q-161 0 -273 -109.5t-112 -273.5q0 -172 113.5 -280.5
t267.5 -108.5q102 0 188 46.5t139 136t54 204.5z" />
    <glyph glyph-name="yen" unicode="&#xa5;" horiz-adv-x="1280" 
d="M637 799l387 587h227l-350 -505h229v-148h-325l-78 -106h403v-148h-399v-479h-192v479h-398v146h400l-68 106h-332v146h234l-346 509h229z" />
    <glyph glyph-name="brokenbar" unicode="&#xa6;" horiz-adv-x="468" 
d="M152 -358v716h163v-716h-163zM315 666h-163v716h163v-716z" />
    <glyph glyph-name="section" unicode="&#xa7;" horiz-adv-x="1280" 
d="M1108 1427l-84 -143q-43 26 -72.5 42t-91 44.5t-127 44t-129.5 15.5q-98 0 -165.5 -39.5t-67.5 -106.5q0 -26 11.5 -48.5t25 -36.5t42.5 -29t44 -21t49 -19l151 -57q90 -29 191 -77.5t149 -82.5q172 -124 172 -307q0 -106 -56.5 -190t-135.5 -129q57 -48 79.5 -104.5
t22.5 -102.5q0 -47 -17.5 -93.5t-53.5 -89t-85 -75.5t-117.5 -52.5t-146.5 -19.5q-90 0 -202 31q-159 44 -332 133l80 154q236 -156 460 -156q104 0 157.5 42t53.5 103q0 28 -11.5 52t-26.5 39.5t-44.5 32.5t-48.5 25t-57 23l-131 58q-224 84 -358 184q-160 119 -160 287
q0 51 15.5 98.5t33.5 77t51 62.5t48 44.5t44 32.5q-27 28 -42 48t-28.5 55.5t-13.5 76.5q0 56 25 111t74 104.5t133.5 80t191.5 30.5q36 0 65.5 -3t91.5 -15.5t149.5 -46.5t193.5 -87zM563 934l-131 51q-21 -7 -46.5 -23t-55 -41t-49 -63t-19.5 -80q0 -25 5.5 -47t20.5 -43
t29.5 -37.5t46 -37.5t55.5 -35.5t73 -38t83 -39.5t99 -45l176 -80q71 25 124.5 84t53.5 129q0 47 -22.5 87.5t-65.5 73.5t-87 57t-105 50z" />
    <glyph glyph-name="dieresis" unicode="&#xa8;" 
d="M-14 1319h178v-211h-178v211zM389 1319h180v-211h-180v211z" />
    <glyph glyph-name="copyright" unicode="&#xa9;" horiz-adv-x="1705" 
d="M1583 721q0 -213 -117 -402q-92 -143 -255 -234t-359 -91q-141 0 -272.5 54t-232.5 148t-161.5 232t-60.5 295q0 202 97.5 370t265.5 263.5t368 95.5q151 0 286 -56.5t231.5 -153.5t153 -232.5t56.5 -288.5zM1518 721q2 177 -81.5 329t-236.5 244t-342 92
q-182 0 -335.5 -87.5t-243 -240.5t-89.5 -337q0 -133 51.5 -254.5t139.5 -211t212.5 -143t264.5 -53.5q130 0 249.5 49t209.5 134t145 210t56 269zM1143 528l114 -100q-27 -32 -52 -55t-74 -57.5t-117 -54t-148 -19.5q-208 0 -344.5 136.5t-136.5 346.5q0 205 136 346
t345 141q65 0 124.5 -15t97.5 -33t77 -48.5t54 -46t38 -41.5l-114 -106q-27 29 -44 44t-53.5 41t-80.5 39t-95 13q-137 0 -231 -93t-94 -241q0 -147 96.5 -238.5t226.5 -91.5q54 0 99.5 12.5t80.5 37t52.5 40.5t42.5 43z" />
    <glyph glyph-name="ordfeminine" unicode="&#xaa;" horiz-adv-x="641" 
d="M537 1268v-234q1 -19 2.5 -28.5t5.5 -21t13 -16.5t24 -5t30 10v-94q-39 -13 -61 -13q-80 0 -111 76q-21 -21 -32 -30.5t-35.5 -25t-55 -22t-69.5 -6.5q-86 0 -136.5 45.5t-50.5 116.5q0 37 12.5 66t30.5 49t50.5 35t60 23t71.5 14.5t72.5 8.5t75.5 5v46t-6 44.5t-17 38
t-34.5 26.5t-57.5 10t-58 -9t-35.5 -20.5t-17.5 -30t-7 -31t0 -29.5l-113 6q3 25 6.5 42.5t18 49t37 52t66 36.5t101.5 16q94 0 152 -45q22 -17 35.5 -35t20 -41.5t8.5 -37t4 -41.5zM434 1147q-71 -10 -119.5 -21t-74.5 -21.5t-40 -24.5t-17 -25t-3 -29q0 -32 19.5 -52
t39.5 -25t40 -5q37 0 72.5 16.5t56.5 45.5q14 19 21 45t6 49t-1 47z" />
    <glyph glyph-name="guillemotleft" unicode="&#xab;" horiz-adv-x="811" 
d="M684 465v-184l-276 231v174l276 240v-185l-160 -137zM362 465v-184l-276 231v174l276 240v-185l-159 -137z" />
    <glyph glyph-name="logicalnot" unicode="&#xac;" horiz-adv-x="1366" 
d="M1202 0v516h-1202v164h1366v-680h-164z" />
    <glyph glyph-name="registered" unicode="&#xae;" horiz-adv-x="1705" 
d="M545 1188h299q149 0 215 -23q71 -25 109 -84t38 -129q0 -169 -188 -219q60 -27 88.5 -65t42.5 -127q16 -113 28.5 -164t41.5 -109h-187q-21 37 -37 127q-2 11 -11 72t-11 70q-9 48 -25 77t-44.5 43t-57 18t-80.5 5h-57v-412h-164v920zM711 1061v-250h135q25 0 38 0.5
t41 3.5t44.5 11t35.5 21.5t28 36.5t9 54q0 32 -15 62.5t-50 46.5q-24 10 -49.5 12t-112.5 2h-104zM1583 719q-1 -149 -57.5 -283t-153.5 -231t-232.5 -154t-287.5 -57q-141 0 -273 54t-232.5 147.5t-161 231t-60.5 294.5q0 155 58.5 292t157.5 232.5t232 151t279 55.5
q207 0 376 -100t262.5 -267.5t92.5 -365.5zM1518 719q1 135 -49.5 258t-138 213t-211.5 143t-263 53q-138 0 -262 -52.5t-212 -142t-140 -212t-52 -258.5q0 -182 89.5 -334.5t242 -240t332.5 -87.5q183 0 335.5 88t240 239.5t88.5 332.5z" />
    <glyph glyph-name="macron" unicode="&#xaf;" 
d="M-12 1108v139h581v-139h-581z" />
    <glyph glyph-name="degree" unicode="&#xb0;" horiz-adv-x="724" 
d="M33 1219q0 137 96.5 233t232.5 96q137 0 233.5 -96.5t96.5 -232.5q0 -137 -97 -233.5t-233 -96.5t-232.5 96.5t-96.5 233.5zM201 1219q0 -68 47 -115t114 -47q68 0 115 47.5t47 114.5t-47 114t-115 47t-114.5 -47t-46.5 -114z" />
    <glyph glyph-name="plusminus" unicode="&#xb1;" horiz-adv-x="1366" 
d="M766 772v-498h-162v498h-520v162h520v496h162v-496h514v-162h-514zM1280 162v-162h-1196v162h1196z" />
    <glyph glyph-name="twosuperior" unicode="&#xb2;" horiz-adv-x="768" 
d="M236 997h-136q-12 62 -12 109q0 133 82.5 213t218.5 80q137 0 217 -81t80 -204q0 -130 -111 -266q-45 -55 -116 -115t-103 -82t-86 -59h426v-115h-608v125q81 46 158.5 103.5t148.5 126t114.5 144t43.5 142.5q0 70 -46 117t-126 47q-76 0 -119 -47.5t-43 -130.5
q0 -45 17 -107z" />
    <glyph glyph-name="threesuperior" unicode="&#xb3;" horiz-adv-x="768" 
d="M205 1067l-133 4q5 107 28 160q72 168 279 168q132 0 221.5 -71.5t89.5 -194.5q0 -49 -15.5 -85t-42.5 -56.5t-45.5 -29t-43.5 -16.5q23 -5 38.5 -10t44 -21t46 -36.5t31.5 -59.5t14 -88q0 -38 -9 -74t-32.5 -73t-59 -64t-92.5 -44t-129 -17q-68 0 -123.5 14t-91 34
t-62 51.5t-40 57.5t-22 60.5t-10.5 52t-3 41.5h137q1 -25 2.5 -41t13.5 -48t31.5 -51.5t60.5 -35.5t97 -16q15 0 26.5 1t37.5 4.5t45 13.5t39 26t31 44.5t11 65.5q0 36 -9.5 63t-25 42t-36.5 25t-44 12.5t-47 4t-46 -0.5h-52v118h66q84 4 123 35q49 37 49 103
q0 64 -48.5 105.5t-125.5 41.5q-33 0 -59.5 -8t-44 -19t-30.5 -31t-19.5 -35.5t-11.5 -42t-6 -40t-3 -39.5z" />
    <glyph glyph-name="acute" unicode="&#xb4;" 
d="M231 1364h177l-177 -295h-84z" />
    <glyph glyph-name="paragraph" unicode="&#xb6;" horiz-adv-x="1366" 
d="M633 1446h471v-111h-70v-1675h-119v1675h-297v-1675h-116v993q-138 22 -219 107q-105 105 -105 276q0 125 62 226q27 42 59.5 74.5t70 51.5t69.5 31t72.5 17.5t63.5 7t58 2.5z" />
    <glyph glyph-name="periodcentered" unicode="&#xb7;" horiz-adv-x="468" 
d="M131 721h203v-229h-203v229z" />
    <glyph glyph-name="cedilla" unicode="&#xb8;" 
d="M287 33l61 -17l-61 -106l53 -27q31 -16 52.5 -50.5t21.5 -72.5q0 -73 -62 -122q-26 -20 -62 -32t-60.5 -15t-73.5 -7v45q30 -2 51.5 5t31.5 16.5t16 22.5t6.5 19t0.5 11q0 53 -63 78l-60 20z" />
    <glyph glyph-name="onesuperior" unicode="&#xb9;" horiz-adv-x="768" 
d="M164 1147v92q49 4 78 10.5t59.5 23t48.5 48t27 80.5h100v-924h-137v670h-176z" />
    <glyph glyph-name="ordmasculine" unicode="&#xba;" horiz-adv-x="681" 
d="M55 1149q-1 148 80 232.5t209 84.5q131 0 208 -90t77 -219q0 -58 -17.5 -111t-51 -96.5t-90 -69.5t-128.5 -26q-125 0 -205.5 80.5t-81.5 214.5zM170 1157q0 -39 8.5 -74.5t27.5 -67.5t54.5 -51.5t83.5 -19.5q84 0 126 59.5t42 157.5q0 95 -45.5 154t-128.5 59
q-41 0 -72 -15.5t-49 -38t-29 -53.5t-14.5 -57t-3.5 -53z" />
    <glyph glyph-name="guillemotright" unicode="&#xbb;" horiz-adv-x="811" 
d="M127 741v185l276 -232v-174l-276 -239v184l160 137zM449 741v185l276 -232v-174l-276 -239v184l159 137z" />
    <glyph glyph-name="onequarter" unicode="&#xbc;" horiz-adv-x="1792" 
d="M164 1147v92q49 4 78 10.5t59.5 23t48.5 48t27 80.5h100v-926h-137v672h-176zM1159 1397l111 -54l-649 -1400l-115 51zM1069 340l438 584h109v-588h131v-113h-133v-223h-129v223h-416v117zM1206 338h281l4 391z" />
    <glyph glyph-name="onehalf" unicode="&#xbd;" horiz-adv-x="1792" 
d="M164 1147v92q49 4 78 10.5t59.5 23t48.5 48t27 80.5h100v-926h-137v672h-176zM1112 1397l111 -54l-652 -1400l-112 51zM1262 520h-136q-12 62 -12 107q0 138 84.5 216.5t218.5 78.5q135 0 215 -81t80 -204q0 -131 -110 -266q-93 -113 -306 -256h426v-115h-608v125
q81 46 159 104t148.5 126.5t114 144t43.5 141.5q0 67 -43.5 115.5t-126.5 48.5q-81 0 -122.5 -49t-41.5 -129q0 -45 17 -107z" />
    <glyph glyph-name="threequarters" unicode="&#xbe;" horiz-adv-x="1792" 
d="M205 1067l-133 4q5 107 28 160q72 168 279 168q132 0 221.5 -71.5t89.5 -194.5q0 -49 -15.5 -85t-42.5 -56.5t-45.5 -29t-43.5 -16.5q23 -5 38.5 -10t44 -21t46 -36.5t31.5 -59.5t14 -88q0 -38 -9 -74t-32.5 -73t-59 -64t-92.5 -44t-129 -17q-68 0 -123.5 14t-91 34
t-62 51.5t-40 57.5t-22 60.5t-10.5 52t-3 41.5h137q1 -25 2.5 -41t13.5 -48t31.5 -51.5t60.5 -35.5t97 -16q15 0 26.5 1t37.5 4.5t45 13.5t39 26t31 44.5t11 65.5q0 39 -12 67.5t-28.5 43.5t-43 23t-47 10t-49.5 2h-80v118h66q79 0 123 35q49 37 49 103q0 64 -48.5 105.5
t-125.5 41.5q-33 0 -59.5 -8t-44 -19t-30.5 -31t-19.5 -35.5t-11.5 -42t-6 -40t-3 -39.5zM1247 1397l111 -54l-649 -1400l-113 51zM1069 340l438 582h109v-586h131v-113h-133v-223h-129v223h-416v117zM1204 338h283l4 391z" />
    <glyph glyph-name="questiondown" unicode="&#xbf;" horiz-adv-x="1150" 
d="M463 827v312h162v-486q-60 3 -133 -4q-83 -11 -130 -35q-50 -29 -84 -80.5t-34 -123.5q0 -116 85 -192.5t222 -76.5q202 0 260 172q19 67 16 162h179q2 -102 -24.5 -186t-71.5 -139t-106 -92.5t-125 -53.5t-130 -16q-199 0 -336 126.5t-137 315.5q0 36 7 76.5t31.5 96
t64 100t113.5 80t171 44.5zM637 1247h-182v199h182v-199z" />
    <glyph glyph-name="Agrave" unicode="&#xc0;" horiz-adv-x="1323" 
d="M1096 0l-158 442h-551l-162 -442h-205l551 1446h201l526 -1446h-202zM449 604h432l-211 602zM449 1833h202l97 -254h-123z" />
    <glyph glyph-name="Aacute" unicode="&#xc1;" horiz-adv-x="1323" 
d="M1096 0l-158 442h-551l-162 -442h-205l551 1446h201l526 -1446h-202zM449 604h432l-211 602zM674 1833h203l-179 -254h-123z" />
    <glyph glyph-name="Acircumflex" unicode="&#xc2;" horiz-adv-x="1323" 
d="M1096 0l-158 442h-551l-162 -442h-205l551 1446h201l526 -1446h-202zM449 604h432l-211 602zM539 1579h-152l205 254h133l219 -254h-158l-127 152z" />
    <glyph glyph-name="Atilde" unicode="&#xc3;" horiz-adv-x="1323" 
d="M1096 0l-158 442h-551l-162 -442h-205l551 1446h201l526 -1446h-202zM449 604h432l-211 602zM864 1808h97q-36 -206 -170 -206q-49 0 -136 34q-69 26 -87.5 31.5t-37.5 5.5q-54 0 -67 -63h-98q3 28 11 55.5t26 64t54.5 59.5t86.5 23q12 0 24.5 -1.5t27 -5.5t22.5 -6.5
t26.5 -8.5t24.5 -8q95 -39 129 -39q18 0 31 6t20 18t10 20t6 21z" />
    <glyph glyph-name="Adieresis" unicode="&#xc4;" horiz-adv-x="1323" 
d="M1096 0l-158 442h-551l-162 -442h-205l551 1446h201l526 -1446h-202zM449 604h432l-211 602zM379 1808h178v-209h-178v209zM780 1808h178v-209h-178v209z" />
    <glyph glyph-name="Aring" unicode="&#xc5;" horiz-adv-x="1323" 
d="M1096 0l-158 442h-551l-162 -442h-205l551 1446h201l526 -1446h-202zM449 604h432l-211 602zM670 1933q82 0 139 -56t57 -138q0 -83 -57 -140t-139 -57q-80 0 -137.5 58t-57.5 139q0 79 57.5 136.5t137.5 57.5zM672 1843q-44 0 -74.5 -30.5t-30.5 -73.5t30.5 -74
t74.5 -31q41 0 71.5 31t30.5 74t-30.5 73.5t-71.5 30.5z" />
    <glyph glyph-name="AE" unicode="&#xc6;" horiz-adv-x="2134" 
d="M1243 639v-471h834v-168h-1026v477h-516l-314 -477h-227l989 1446h1067v-172h-807v-471h651v-164h-651zM647 641h404v616z" />
    <glyph glyph-name="Ccedilla" unicode="&#xc7;" horiz-adv-x="1536" 
d="M1311 549l209 -25q-28 -125 -95.5 -232t-167.5 -183q-69 -54 -142.5 -85t-121.5 -39t-131 -16l-33 -57l54 -27q30 -16 51.5 -50t21.5 -73q0 -74 -61 -122q-26 -20 -62.5 -32t-61 -15t-73.5 -7v43q30 -2 51.5 5t32 16.5t16.5 22.5t6.5 19t0.5 11q0 53 -66 78l-57 22
l104 162q-58 6 -88 10t-82 13.5t-87 23.5t-80 36.5t-85 56t-79 77.5q-93 106 -139 246.5t-46 294.5q0 125 28 236.5t87.5 208t145 166.5t207.5 109.5t268 39.5q80 0 152.5 -12.5t127 -31.5t104 -50t83 -58.5t65 -67t49 -65.5t35.5 -64t24 -53t15 -41l-195 -41
q-13 37 -19.5 54t-24 48.5t-42.5 59.5q-59 73 -155 120.5t-221 47.5q-120 0 -225.5 -46.5t-174.5 -135.5q-121 -151 -121 -414q0 -275 135.5 -442.5t380.5 -167.5q84 0 160.5 24.5t143.5 73.5t114 133.5t64 194.5z" />
    <glyph glyph-name="Egrave" unicode="&#xc8;" horiz-adv-x="1236" 
d="M1051 659h-705v-491h836v-168h-1022v1446h997v-170h-811v-447h705v-170zM426 1833h203l96 -254h-123z" />
    <glyph glyph-name="Eacute" unicode="&#xc9;" horiz-adv-x="1236" 
d="M1051 659h-705v-491h836v-168h-1022v1446h997v-170h-811v-447h705v-170zM651 1833h203l-178 -254h-123z" />
    <glyph glyph-name="Ecircumflex" unicode="&#xca;" horiz-adv-x="1236" 
d="M1051 659h-705v-491h836v-168h-1022v1446h997v-170h-811v-447h705v-170zM528 1579h-151l205 254h133l219 -254h-158l-127 152z" />
    <glyph glyph-name="Edieresis" unicode="&#xcb;" horiz-adv-x="1236" 
d="M1051 659h-705v-491h836v-168h-1022v1446h997v-170h-811v-447h705v-170zM362 1808h179v-209h-179v209zM764 1808h178v-209h-178v209z" />
    <glyph glyph-name="Igrave" unicode="&#xcc;" horiz-adv-x="468" 
d="M137 1446h195v-1446h-195v1446zM23 1833h202l97 -254h-123z" />
    <glyph glyph-name="Iacute" unicode="&#xcd;" horiz-adv-x="468" 
d="M137 1446h195v-1446h-195v1446zM248 1833h203l-179 -254h-122z" />
    <glyph glyph-name="Icircumflex" unicode="&#xce;" horiz-adv-x="468" 
d="M137 1446h195v-1446h-195v1446zM113 1579h-152l205 254h133l219 -254h-158l-127 152z" />
    <glyph glyph-name="Idieresis" unicode="&#xcf;" horiz-adv-x="468" 
d="M137 1446h195v-1446h-195v1446zM-53 1808h178v-209h-178v209zM348 1808h178v-209h-178v209z" />
    <glyph glyph-name="Eth" unicode="&#xd0;" horiz-adv-x="1449" 
d="M160 819v627h452q58 0 87.5 -0.5t81.5 -3.5t83.5 -9.5t77 -19.5t79 -32t72.5 -47.5t74 -65.5q181 -193 181 -545q0 -379 -203 -569q-48 -44 -105 -75t-102.5 -46t-105.5 -23t-91.5 -9t-83.5 -1h-497v698h-135v121h135zM584 1276h-228v-457h346v-121h-346v-532h256
q65 1 100.5 3t89.5 11t93 25q71 30 122.5 85t79.5 125.5t41 145.5t13 160q0 436 -301 530q-38 12 -85.5 17.5t-81 6.5t-99.5 1z" />
    <glyph glyph-name="Ntilde" unicode="&#xd1;" horiz-adv-x="1449" 
d="M1116 1446h174v-1446h-174l-792 1176l16 -1176h-180v1446h180l784 -1159zM928 1808h96q-36 -206 -170 -206q-48 0 -135 34q-69 26 -87.5 31.5t-37.5 5.5q-55 0 -68 -63h-98q3 28 11 55.5t26 64t54.5 59.5t86.5 23q12 0 24.5 -1.5t27 -5.5t22.5 -6.5t26.5 -8.5t24.5 -8
q95 -39 129 -39q18 0 31 6t20 17.5t10.5 20t6.5 21.5z" />
    <glyph glyph-name="Ograve" unicode="&#xd2;" horiz-adv-x="1662" 
d="M1561 737q0 -131 -30 -247t-91 -213t-147.5 -166.5t-205.5 -108.5t-260 -39q-217 0 -381.5 95.5t-253 268t-88.5 396.5q0 156 41.5 284.5t112 215.5t165 146.5t198 86.5t213.5 27q152 0 284.5 -51t231 -144.5t155 -235.5t56.5 -315zM1352 735q-2 269 -137.5 430.5
t-380.5 161.5q-133 0 -235 -48.5t-163 -133t-92 -191.5t-31 -233q0 -93 18 -179.5t59 -164.5t100.5 -136t148.5 -92t197 -34q113 0 203 36.5t147.5 96t96 141t54.5 167.5t15 179zM618 1833h203l97 -254h-123z" />
    <glyph glyph-name="Oacute" unicode="&#xd3;" horiz-adv-x="1662" 
d="M1561 737q0 -131 -30 -247t-91 -213t-147.5 -166.5t-205.5 -108.5t-260 -39q-217 0 -381.5 95.5t-253 268t-88.5 396.5q0 156 41.5 284.5t112 215.5t165 146.5t198 86.5t213.5 27q152 0 284.5 -51t231 -144.5t155 -235.5t56.5 -315zM1352 735q-2 269 -137.5 430.5
t-380.5 161.5q-133 0 -235 -48.5t-163 -133t-92 -191.5t-31 -233q0 -93 18 -179.5t59 -164.5t100.5 -136t148.5 -92t197 -34q113 0 203 36.5t147.5 96t96 141t54.5 167.5t15 179zM844 1833h203l-179 -254h-123z" />
    <glyph glyph-name="Ocircumflex" unicode="&#xd4;" horiz-adv-x="1662" 
d="M1561 737q0 -131 -30 -247t-91 -213t-147.5 -166.5t-205.5 -108.5t-260 -39q-217 0 -381.5 95.5t-253 268t-88.5 396.5q0 156 41.5 284.5t112 215.5t165 146.5t198 86.5t213.5 27q152 0 284.5 -51t231 -144.5t155 -235.5t56.5 -315zM1352 735q-2 269 -137.5 430.5
t-380.5 161.5q-133 0 -235 -48.5t-163 -133t-92 -191.5t-31 -233q0 -93 18 -179.5t59 -164.5t100.5 -136t148.5 -92t197 -34q113 0 203 36.5t147.5 96t96 141t54.5 167.5t15 179zM709 1579h-152l205 254h133l219 -254h-158l-127 152z" />
    <glyph glyph-name="Otilde" unicode="&#xd5;" horiz-adv-x="1662" 
d="M1561 737q0 -131 -30 -247t-91 -213t-147.5 -166.5t-205.5 -108.5t-260 -39q-217 0 -381.5 95.5t-253 268t-88.5 396.5q0 156 41.5 284.5t112 215.5t165 146.5t198 86.5t213.5 27q152 0 284.5 -51t231 -144.5t155 -235.5t56.5 -315zM1352 735q-2 269 -137.5 430.5
t-380.5 161.5q-133 0 -235 -48.5t-163 -133t-92 -191.5t-31 -233q0 -93 18 -179.5t59 -164.5t100.5 -136t148.5 -92t197 -34q113 0 203 36.5t147.5 96t96 141t54.5 167.5t15 179zM1034 1808h96q-5 -29 -11 -52.5t-19 -54t-30 -50.5t-45.5 -34.5t-63.5 -14.5q-49 0 -136 34
q-69 26 -87.5 31.5t-37.5 5.5q-54 0 -67 -63h-98q3 28 11 55.5t26 64t54.5 59.5t86.5 23q12 0 24.5 -1.5t27 -5.5t22.5 -6.5t26.5 -8.5t24.5 -8q95 -39 129 -39q18 0 31 6t20 18t10 20t6 21z" />
    <glyph glyph-name="Odieresis" unicode="&#xd6;" horiz-adv-x="1662" 
d="M1561 737q0 -131 -30 -247t-91 -213t-147.5 -166.5t-205.5 -108.5t-260 -39q-217 0 -381.5 95.5t-253 268t-88.5 396.5q0 156 41.5 284.5t112 215.5t165 146.5t198 86.5t213.5 27q152 0 284.5 -51t231 -144.5t155 -235.5t56.5 -315zM1352 735q-2 269 -137.5 430.5
t-380.5 161.5q-133 0 -235 -48.5t-163 -133t-92 -191.5t-31 -233q0 -93 18 -179.5t59 -164.5t100.5 -136t148.5 -92t197 -34q113 0 203 36.5t147.5 96t96 141t54.5 167.5t15 179zM551 1808h178v-209h-178v209zM952 1808h178v-209h-178v209z" />
    <glyph glyph-name="multiply" unicode="&#xd7;" horiz-adv-x="1366" 
d="M1208 188l-114 -114l-410 409l-414 -409l-112 114l411 410l-411 412l112 114l414 -411l410 411l114 -114l-409 -412z" />
    <glyph glyph-name="Oslash" unicode="&#xd8;" horiz-adv-x="1662" 
d="M1325 1298l139 134l99 -105l-146 -137q146 -217 146 -463q0 -107 -27 -212.5t-87 -205.5t-145 -176.5t-210.5 -123t-274.5 -46.5q-87 0 -160 14t-133.5 42.5t-101.5 55.5t-94 68l-133 -127l-101 105l142 135q-136 222 -136 467q0 109 26 214.5t83 205t139.5 174.5
t205.5 120.5t271 45.5q163 0 276 -48t222 -137zM381 393l809 776q-66 70 -152 115t-215 45q-162 0 -278.5 -81.5t-173 -218.5t-56.5 -314q0 -170 66 -322zM1272 1049l-813 -781q33 -32 62 -54.5t74 -47.5t104.5 -38t131.5 -13q127 0 228 49t163.5 131.5t95 185t32.5 215.5
q0 191 -78 353z" />
    <glyph glyph-name="Ugrave" unicode="&#xd9;" horiz-adv-x="1409" 
d="M1057 1448h194v-924q-4 -132 -18 -188q-16 -69 -55 -132t-103 -118t-163 -88t-220 -33q-294 0 -444 193q-28 36 -46.5 74.5t-28 68t-14 79.5t-5 77.5t-0.5 93.5v897h194v-870q-1 -63 0 -98.5t7.5 -83.5t23 -85.5t43.5 -70.5q92 -113 270 -113q130 0 222 62t124 178
q16 62 19 215v866zM492 1833h202l97 -254h-123z" />
    <glyph glyph-name="Uacute" unicode="&#xda;" horiz-adv-x="1409" 
d="M1057 1448h194v-924q-4 -132 -18 -188q-16 -69 -55 -132t-103 -118t-163 -88t-220 -33q-294 0 -444 193q-28 36 -46.5 74.5t-28 68t-14 79.5t-5 77.5t-0.5 93.5v897h194v-870q-1 -63 0 -98.5t7.5 -83.5t23 -85.5t43.5 -70.5q92 -113 270 -113q130 0 222 62t124 178
q16 62 19 215v866zM717 1833h203l-179 -254h-123z" />
    <glyph glyph-name="Ucircumflex" unicode="&#xdb;" horiz-adv-x="1409" 
d="M1057 1448h194v-924q-4 -132 -18 -188q-16 -69 -55 -132t-103 -118t-163 -88t-220 -33q-294 0 -444 193q-28 36 -46.5 74.5t-28 68t-14 79.5t-5 77.5t-0.5 93.5v897h194v-870q-1 -63 0 -98.5t7.5 -83.5t23 -85.5t43.5 -70.5q92 -113 270 -113q130 0 222 62t124 178
q16 62 19 215v866zM582 1579h-152l205 254h133l219 -254h-158l-127 152z" />
    <glyph glyph-name="Udieresis" unicode="&#xdc;" horiz-adv-x="1409" 
d="M1057 1448h194v-924q-4 -132 -18 -188q-16 -69 -55 -132t-103 -118t-163 -88t-220 -33q-294 0 -444 193q-28 36 -46.5 74.5t-28 68t-14 79.5t-5 77.5t-0.5 93.5v897h194v-870q-1 -63 0 -98.5t7.5 -83.5t23 -85.5t43.5 -70.5q92 -113 270 -113q130 0 222 62t124 178
q16 62 19 215v866zM414 1808h178v-209h-178v209zM815 1808h178v-209h-178v209z" />
    <glyph glyph-name="Yacute" unicode="&#xdd;" horiz-adv-x="1280" 
d="M1251 1446l-520 -784v-662h-194v662l-510 784h229l379 -612l387 612h229zM651 1833h203l-178 -254h-123z" />
    <glyph glyph-name="Thorn" unicode="&#xde;" horiz-adv-x="1280" 
d="M760 348h-418v-348h-186v1446h186v-264h438q154 0 230 -25q122 -42 184.5 -147t62.5 -238q0 -84 -25 -161t-87 -144.5t-154 -95.5q-72 -23 -231 -23zM342 1016v-498h403q53 0 79 1t62 7t61.5 20t49.5 38q70 70 70 192q0 121 -76 185q-29 25 -67 37.5t-65 15t-71 2.5h-446
z" />
    <glyph glyph-name="germandbls" unicode="&#xdf;" horiz-adv-x="1110" 
d="M393 10v170q117 -43 201 -43q73 0 127 26t84.5 71.5t44.5 101t14 121.5q0 186 -133 270q-40 26 -101.5 39t-106 15.5t-113.5 2.5v162q43 -4 82 -4q66 0 116 15.5t77.5 37.5t45 51.5t22.5 53.5t5 47q0 88 -62.5 137t-158.5 49q-131 0 -193 -76q-33 -39 -41 -85t-10 -164
v-1008h-162v1016q0 139 16 209q22 91 80 150.5t133.5 83.5t171.5 24q184 0 287 -90.5t103 -239.5q0 -79 -29.5 -140t-68 -92t-87.5 -51q40 -5 77.5 -18.5t78 -43.5t70 -72t48.5 -109.5t19 -151.5q0 -232 -98 -352q-52 -63 -139.5 -104.5t-204.5 -41.5q-93 0 -195 33z" />
    <glyph glyph-name="agrave" unicode="&#xe0;" horiz-adv-x="1024" 
d="M555 565l154 13v24q0 30 -0.5 47t-4.5 49t-12 52t-24 45.5t-38 39.5t-57.5 24.5t-80.5 10.5q-59 0 -101 -17t-61.5 -38.5t-30.5 -54.5t-12.5 -50.5t-1.5 -41.5l-172 10q11 93 39 145q44 82 128.5 127t204.5 45q75 0 152.5 -20.5t130.5 -61.5q38 -31 61 -66.5t32 -82.5
t10.5 -80.5t0.5 -95.5v-314q1 -36 1.5 -50.5t4.5 -37t11 -30.5t20 -14.5t33 -6.5q30 0 53 10v-141q-72 -16 -102 -16q-149 0 -168 143q-23 -24 -36 -37t-48 -39.5t-66.5 -41.5t-80.5 -27.5t-101 -12.5q-142 0 -234.5 77.5t-92.5 199.5q0 81 43 145q46 69 145 111.5t301 58.5
zM711 473q-179 -28 -254 -45q-123 -27 -167 -70.5t-44 -103.5q0 -62 47.5 -102.5t134.5 -40.5q88 0 155 36t101 109q18 39 22.5 74.5t4.5 142.5zM309 1362h180l84 -295h-96z" />
    <glyph glyph-name="aacute" unicode="&#xe1;" horiz-adv-x="1024" 
d="M555 565l154 13v24q0 30 -0.5 47t-4.5 49t-12 52t-24 45.5t-38 39.5t-57.5 24.5t-80.5 10.5q-59 0 -101 -17t-61.5 -38.5t-30.5 -54.5t-12.5 -50.5t-1.5 -41.5l-172 10q11 93 39 145q44 82 128.5 127t204.5 45q75 0 152.5 -20.5t130.5 -61.5q38 -31 61 -66.5t32 -82.5
t10.5 -80.5t0.5 -95.5v-314q1 -36 1.5 -50.5t4.5 -37t11 -30.5t20 -14.5t33 -6.5q30 0 53 10v-141q-72 -16 -102 -16q-149 0 -168 143q-23 -24 -36 -37t-48 -39.5t-66.5 -41.5t-80.5 -27.5t-101 -12.5q-142 0 -234.5 77.5t-92.5 199.5q0 81 43 145q46 69 145 111.5t301 58.5
zM711 473q-179 -28 -254 -45q-123 -27 -167 -70.5t-44 -103.5q0 -62 47.5 -102.5t134.5 -40.5q88 0 155 36t101 109q18 39 22.5 74.5t4.5 142.5zM551 1364h176l-176 -295h-84z" />
    <glyph glyph-name="acircumflex" unicode="&#xe2;" horiz-adv-x="1024" 
d="M555 565l154 13v24q0 30 -0.5 47t-4.5 49t-12 52t-24 45.5t-38 39.5t-57.5 24.5t-80.5 10.5q-59 0 -101 -17t-61.5 -38.5t-30.5 -54.5t-12.5 -50.5t-1.5 -41.5l-172 10q11 93 39 145q44 82 128.5 127t204.5 45q75 0 152.5 -20.5t130.5 -61.5q38 -31 61 -66.5t32 -82.5
t10.5 -80.5t0.5 -95.5v-314q1 -36 1.5 -50.5t4.5 -37t11 -30.5t20 -14.5t33 -6.5q30 0 53 10v-141q-72 -16 -102 -16q-149 0 -168 143q-23 -24 -36 -37t-48 -39.5t-66.5 -41.5t-80.5 -27.5t-101 -12.5q-142 0 -234.5 77.5t-92.5 199.5q0 81 43 145q46 69 145 111.5t301 58.5
zM711 473q-179 -28 -254 -45q-123 -27 -167 -70.5t-44 -103.5q0 -62 47.5 -102.5t134.5 -40.5q88 0 155 36t101 109q18 39 22.5 74.5t4.5 142.5zM393 1071h-143l192 309h138l213 -309h-154l-125 195z" />
    <glyph glyph-name="atilde" unicode="&#xe3;" horiz-adv-x="1024" 
d="M555 565l154 13v24q0 30 -0.5 47t-4.5 49t-12 52t-24 45.5t-38 39.5t-57.5 24.5t-80.5 10.5q-59 0 -101 -17t-61.5 -38.5t-30.5 -54.5t-12.5 -50.5t-1.5 -41.5l-172 10q11 93 39 145q44 82 128.5 127t204.5 45q75 0 152.5 -20.5t130.5 -61.5q38 -31 61 -66.5t32 -82.5
t10.5 -80.5t0.5 -95.5v-314q1 -36 1.5 -50.5t4.5 -37t11 -30.5t20 -14.5t33 -6.5q30 0 53 10v-141q-72 -16 -102 -16q-149 0 -168 143q-23 -24 -36 -37t-48 -39.5t-66.5 -41.5t-80.5 -27.5t-101 -12.5q-142 0 -234.5 77.5t-92.5 199.5q0 81 43 145q46 69 145 111.5t301 58.5
zM711 473q-179 -28 -254 -45q-123 -27 -167 -70.5t-44 -103.5q0 -62 47.5 -102.5t134.5 -40.5q88 0 155 36t101 109q18 39 22.5 74.5t4.5 142.5zM715 1300h98q-3 -21 -8.5 -43.5t-18.5 -52.5t-30 -53t-46.5 -39t-64.5 -16q-47 0 -135 32q-72 27 -90.5 33t-36.5 6t-31 -6
t-20.5 -17.5t-10.5 -19.5t-6 -20h-100q3 22 8 43.5t18.5 52t31.5 53t49.5 38.5t70.5 16q38 0 150 -41q76 -29 108 -29q53 0 64 63z" />
    <glyph glyph-name="adieresis" unicode="&#xe4;" horiz-adv-x="1024" 
d="M555 565l154 13v24q0 30 -0.5 47t-4.5 49t-12 52t-24 45.5t-38 39.5t-57.5 24.5t-80.5 10.5q-59 0 -101 -17t-61.5 -38.5t-30.5 -54.5t-12.5 -50.5t-1.5 -41.5l-172 10q11 93 39 145q44 82 128.5 127t204.5 45q75 0 152.5 -20.5t130.5 -61.5q38 -31 61 -66.5t32 -82.5
t10.5 -80.5t0.5 -95.5v-314q1 -36 1.5 -50.5t4.5 -37t11 -30.5t20 -14.5t33 -6.5q30 0 53 10v-141q-72 -16 -102 -16q-149 0 -168 143q-23 -24 -36 -37t-48 -39.5t-66.5 -41.5t-80.5 -27.5t-101 -12.5q-142 0 -234.5 77.5t-92.5 199.5q0 81 43 145q46 69 145 111.5t301 58.5
zM711 473q-179 -28 -254 -45q-123 -27 -167 -70.5t-44 -103.5q0 -62 47.5 -102.5t134.5 -40.5q88 0 155 36t101 109q18 39 22.5 74.5t4.5 142.5zM215 1319h178v-211h-178v211zM618 1319h181v-211h-181v211z" />
    <glyph glyph-name="aring" unicode="&#xe5;" horiz-adv-x="1024" 
d="M555 565l154 13v24q0 30 -0.5 47t-4.5 49t-12 52t-24 45.5t-38 39.5t-57.5 24.5t-80.5 10.5q-59 0 -101 -17t-61.5 -38.5t-30.5 -54.5t-12.5 -50.5t-1.5 -41.5l-172 10q11 93 39 145q44 82 128.5 127t204.5 45q75 0 152.5 -20.5t130.5 -61.5q38 -31 61 -66.5t32 -82.5
t10.5 -80.5t0.5 -95.5v-314q1 -36 1.5 -50.5t4.5 -37t11 -30.5t20 -14.5t33 -6.5q30 0 53 10v-141q-72 -16 -102 -16q-149 0 -168 143q-23 -24 -36 -37t-48 -39.5t-66.5 -41.5t-80.5 -27.5t-101 -12.5q-142 0 -234.5 77.5t-92.5 199.5q0 81 43 145q46 69 145 111.5t301 58.5
zM711 473q-179 -28 -254 -45q-123 -27 -167 -70.5t-44 -103.5q0 -62 47.5 -102.5t134.5 -40.5q88 0 155 36t101 109q18 39 22.5 74.5t4.5 142.5zM311 1245q0 79 56.5 136t136.5 57q79 0 135.5 -56.5t56.5 -136.5q0 -79 -56 -135.5t-136 -56.5t-136.5 56.5t-56.5 135.5z
M399 1247q0 -43 31 -73.5t74 -30.5t73.5 30.5t30.5 73.5t-30.5 74t-73.5 31t-74 -31t-31 -74z" />
    <glyph glyph-name="ae" unicode="&#xe6;" horiz-adv-x="1662" 
d="M1409 307l170 -26q-14 -51 -43.5 -100.5t-79 -99t-129 -80t-176.5 -30.5q-77 0 -160 25q-42 16 -77.5 39.5t-60 51.5t-36.5 46t-26 41q-157 -203 -394 -203q-154 0 -242.5 76.5t-88.5 194.5q0 74 40.5 141.5t116.5 110.5q78 44 170.5 53.5t339.5 9.5q0 72 -12 119
q-7 32 -22 63t-40.5 62t-68.5 50t-96 19q-91 0 -145.5 -54t-59.5 -140l-174 12q10 85 47 147t91.5 95.5t113.5 49t125 15.5q147 0 241 -73q41 -32 84 -97q26 33 46 53.5t61.5 52t98.5 48t126 16.5q215 0 338 -172q37 -49 60.5 -104t33 -112t12.5 -89.5t4 -79.5h-702
q0 -87 27 -159q34 -89 101.5 -133t150.5 -44q86 0 148.5 52.5t86.5 152.5zM893 557h530q-10 148 -93 225.5t-179 77.5q-102 0 -178 -83t-80 -220zM731 438h-94q-110 0 -182 -12q-58 -11 -104 -31t-79.5 -58t-33.5 -87q0 -55 48 -102.5t144 -47.5q126 0 212 88.5t89 249.5z
" />
    <glyph glyph-name="ccedilla" unicode="&#xe7;" horiz-adv-x="1067" 
d="M834 365l176 -17q-16 -92 -54 -164q-30 -53 -70.5 -92.5t-76 -60t-81 -34t-71 -17t-59.5 -5.5l-35 -63l53 -27q31 -16 52.5 -50.5t21.5 -72.5q0 -74 -61 -122q-26 -20 -62.5 -32t-61 -15t-73.5 -7v43q30 -2 52 5t32 17t16 23t6.5 19t0.5 10q0 53 -64 78l-59 22l108 170
q-51 5 -80 10t-74.5 19t-85 42t-77.5 71q-127 142 -127 364q0 102 28 192.5t83 164t147 116.5t211 43q118 0 203 -34q80 -34 150.5 -108.5t90.5 -180.5l-182 -17q-3 19 -8 38.5t-23 55.5t-44 62t-74 46t-109 20q-58 0 -104.5 -17.5t-76.5 -44.5t-52 -65.5t-33 -73.5
t-17.5 -76.5t-8 -65.5t-1.5 -49q0 -180 79 -284.5t224 -104.5q48 0 88 12t66 28.5t47 44t32.5 49t20 52.5t11.5 45.5t6 37.5z" />
    <glyph glyph-name="egrave" unicode="&#xe8;" horiz-adv-x="1067" 
d="M823 319l166 -22q-9 -25 -14.5 -39.5t-24.5 -53t-39 -64.5t-56 -60.5t-76.5 -56t-99.5 -37t-126 -15.5q-217 0 -345 139t-128 382q0 105 29 192t76 143.5t109 95t125.5 55.5t127.5 17q69 0 134 -19.5t123 -59.5t102 -107.5t65 -155.5q18 -82 18 -196h-733
q-2 -64 15 -125.5t52.5 -116t98.5 -88t145 -33.5q104 0 168.5 61t87.5 164zM260 573h551q-4 72 -27 128t-53 87t-68.5 50.5t-69 25.5t-58.5 6q-109 0 -185.5 -78t-89.5 -219zM338 1362h180l84 -295h-96z" />
    <glyph glyph-name="eacute" unicode="&#xe9;" horiz-adv-x="1067" 
d="M823 319l166 -22q-9 -25 -14.5 -39.5t-24.5 -53t-39 -64.5t-56 -60.5t-76.5 -56t-99.5 -37t-126 -15.5q-217 0 -345 139t-128 382q0 105 29 192t76 143.5t109 95t125.5 55.5t127.5 17q69 0 134 -19.5t123 -59.5t102 -107.5t65 -155.5q18 -82 18 -196h-733
q-2 -64 15 -125.5t52.5 -116t98.5 -88t145 -33.5q104 0 168.5 61t87.5 164zM260 573h551q-4 72 -27 128t-53 87t-68.5 50.5t-69 25.5t-58.5 6q-109 0 -185.5 -78t-89.5 -219zM571 1364h177l-177 -295h-84z" />
    <glyph glyph-name="ecircumflex" unicode="&#xea;" horiz-adv-x="1067" 
d="M823 319l166 -22q-9 -25 -14.5 -39.5t-24.5 -53t-39 -64.5t-56 -60.5t-76.5 -56t-99.5 -37t-126 -15.5q-217 0 -345 139t-128 382q0 105 29 192t76 143.5t109 95t125.5 55.5t127.5 17q69 0 134 -19.5t123 -59.5t102 -107.5t65 -155.5q18 -82 18 -196h-733
q-2 -64 15 -125.5t52.5 -116t98.5 -88t145 -33.5q104 0 168.5 61t87.5 164zM260 573h551q-4 72 -27 128t-53 87t-68.5 50.5t-69 25.5t-58.5 6q-109 0 -185.5 -78t-89.5 -219zM412 1071h-144l193 309h137l213 -309h-154l-125 195z" />
    <glyph glyph-name="edieresis" unicode="&#xeb;" horiz-adv-x="1067" 
d="M823 319l166 -22q-9 -25 -14.5 -39.5t-24.5 -53t-39 -64.5t-56 -60.5t-76.5 -56t-99.5 -37t-126 -15.5q-217 0 -345 139t-128 382q0 105 29 192t76 143.5t109 95t125.5 55.5t127.5 17q69 0 134 -19.5t123 -59.5t102 -107.5t65 -155.5q18 -82 18 -196h-733
q-2 -64 15 -125.5t52.5 -116t98.5 -88t145 -33.5q104 0 168.5 61t87.5 164zM260 573h551q-4 72 -27 128t-53 87t-68.5 50.5t-69 25.5t-58.5 6q-109 0 -185.5 -78t-89.5 -219zM266 1319h178v-211h-178v211zM670 1319h180v-211h-180v211z" />
    <glyph glyph-name="igrave" unicode="&#xec;" horiz-adv-x="425" 
d="M137 965h158v-965h-158v965zM18 1362h181l84 -295h-97z" />
    <glyph glyph-name="iacute" unicode="&#xed;" horiz-adv-x="425" 
d="M137 965h158v-965h-158v965zM240 1364h176l-176 -295h-84z" />
    <glyph glyph-name="icircumflex" unicode="&#xee;" horiz-adv-x="425" 
d="M137 965h158v-965h-158v965zM92 1071h-143l192 309h138l213 -309h-154l-125 195z" />
    <glyph glyph-name="idieresis" unicode="&#xef;" horiz-adv-x="425" 
d="M137 965h158v-965h-158v965zM-76 1319h178v-211h-178v211zM328 1319h180v-211h-180v211z" />
    <glyph glyph-name="eth" unicode="&#xf0;" horiz-adv-x="1110" 
d="M983 1264l-152 -50q98 -156 148.5 -322t50.5 -364q0 -259 -124.5 -408t-350.5 -149q-87 0 -158.5 20.5t-119.5 53.5t-84.5 79t-57 91.5t-33 97.5t-16.5 91t-4 77q0 124 37.5 223t102.5 162t149 96t180 33q50 0 95 -11t75 -27.5t45.5 -27.5t24.5 -20q33 -32 34 -26
q0 2 -19 59t-20 62q-9 25 -22.5 53.5t-22 43t-25.5 42.5l-18 28l-362 -116l-39 90l340 112q-60 71 -148 154l127 59q39 -33 62 -57.5t92 -109.5l176 57zM852 483q2 75 -10 135q-14 70 -44 121t-69 76.5t-78 37t-82 11.5q-81 0 -141.5 -30t-96 -84.5t-52.5 -123.5t-17 -153
q0 -78 17 -144t51 -117.5t92 -80.5t135 -29q56 0 101.5 16.5t75.5 41.5t52.5 61.5t34.5 70t19 73.5t9 65.5t3 52.5z" />
    <glyph glyph-name="ntilde" unicode="&#xf1;" horiz-adv-x="1067" 
d="M133 965h164v-142q31 55 75 92.5t89.5 53t76.5 21t60 5.5q104 0 194 -55t123 -166q17 -61 17 -199v-575h-162v549q0 127 -10 160q-21 65 -78.5 99t-128.5 34q-110 0 -184 -74q-34 -34 -50.5 -75t-19 -67.5t-2.5 -74.5v-551h-164v965zM733 1300h98q-4 -28 -12.5 -57
t-26.5 -65.5t-51 -59t-77 -22.5q-48 0 -136 32q-72 27 -90.5 33t-36.5 6t-31 -6t-20 -17.5t-10 -19t-6 -20.5h-101q3 22 8.5 43.5t19 52t31.5 53t49.5 38.5t70.5 16q37 0 149 -41q76 -29 109 -29q52 0 63 63z" />
    <glyph glyph-name="ograve" unicode="&#xf2;" horiz-adv-x="1110" 
d="M1028 483q-2 -225 -128.5 -368.5t-342.5 -143.5q-121 0 -214.5 42.5t-149 115t-83.5 160.5t-28 186q0 69 13.5 137t48.5 138.5t87.5 123.5t138 87t193.5 34q116 0 207 -42.5t146.5 -115t84 -163t27.5 -191.5zM850 483q2 75 -10 135q-26 131 -101.5 188.5t-171.5 57.5
q-156 0 -231.5 -107t-75.5 -284q0 -78 17 -144t51 -117.5t92 -80.5t135 -29q56 0 101.5 16.5t75.5 41.5t52.5 61.5t34.5 70t19 73.5t9 65.5t3 52.5zM362 1362h181l84 -295h-97z" />
    <glyph glyph-name="oacute" unicode="&#xf3;" horiz-adv-x="1110" 
d="M1028 483q-2 -225 -128.5 -368.5t-342.5 -143.5q-121 0 -214.5 42.5t-149 115t-83.5 160.5t-28 186q0 69 13.5 137t48.5 138.5t87.5 123.5t138 87t193.5 34q116 0 207 -42.5t146.5 -115t84 -163t27.5 -191.5zM850 483q2 75 -10 135q-26 131 -101.5 188.5t-171.5 57.5
q-156 0 -231.5 -107t-75.5 -284q0 -78 17 -144t51 -117.5t92 -80.5t135 -29q56 0 101.5 16.5t75.5 41.5t52.5 61.5t34.5 70t19 73.5t9 65.5t3 52.5zM584 1364h176l-176 -295h-84z" />
    <glyph glyph-name="ocircumflex" unicode="&#xf4;" horiz-adv-x="1110" 
d="M1028 483q-2 -225 -128.5 -368.5t-342.5 -143.5q-121 0 -214.5 42.5t-149 115t-83.5 160.5t-28 186q0 69 13.5 137t48.5 138.5t87.5 123.5t138 87t193.5 34q116 0 207 -42.5t146.5 -115t84 -163t27.5 -191.5zM850 483q2 75 -10 135q-26 131 -101.5 188.5t-171.5 57.5
q-156 0 -231.5 -107t-75.5 -284q0 -78 17 -144t51 -117.5t92 -80.5t135 -29q56 0 101.5 16.5t75.5 41.5t52.5 61.5t34.5 70t19 73.5t9 65.5t3 52.5zM436 1071h-143l192 309h138l213 -309h-154l-125 195z" />
    <glyph glyph-name="otilde" unicode="&#xf5;" horiz-adv-x="1110" 
d="M1028 483q-2 -225 -128.5 -368.5t-342.5 -143.5q-121 0 -214.5 42.5t-149 115t-83.5 160.5t-28 186q0 69 13.5 137t48.5 138.5t87.5 123.5t138 87t193.5 34q116 0 207 -42.5t146.5 -115t84 -163t27.5 -191.5zM850 483q2 75 -10 135q-26 131 -101.5 188.5t-171.5 57.5
q-156 0 -231.5 -107t-75.5 -284q0 -78 17 -144t51 -117.5t92 -80.5t135 -29q56 0 101.5 16.5t75.5 41.5t52.5 61.5t34.5 70t19 73.5t9 65.5t3 52.5zM758 1300h98q-3 -21 -8.5 -43.5t-18.5 -52.5t-30 -53t-46.5 -39t-64.5 -16q-47 0 -135 32q-72 27 -90.5 33t-36.5 6t-31 -6
t-20.5 -17.5t-10.5 -19.5t-6 -20h-100q3 22 8 43.5t18.5 52t31.5 53t49.5 38.5t70.5 16q38 0 150 -41q76 -29 108 -29q53 0 64 63z" />
    <glyph glyph-name="odieresis" unicode="&#xf6;" horiz-adv-x="1110" 
d="M1028 483q-2 -225 -128.5 -368.5t-342.5 -143.5q-121 0 -214.5 42.5t-149 115t-83.5 160.5t-28 186q0 69 13.5 137t48.5 138.5t87.5 123.5t138 87t193.5 34q116 0 207 -42.5t146.5 -115t84 -163t27.5 -191.5zM850 483q2 75 -10 135q-26 131 -101.5 188.5t-171.5 57.5
q-156 0 -231.5 -107t-75.5 -284q0 -78 17 -144t51 -117.5t92 -80.5t135 -29q56 0 101.5 16.5t75.5 41.5t52.5 61.5t34.5 70t19 73.5t9 65.5t3 52.5zM295 1319h178v-211h-178v211zM698 1319h181v-211h-181v211z" />
    <glyph glyph-name="divide" unicode="&#xf7;" horiz-adv-x="1366" 
d="M801 297q-1 -49 -34 -81t-83 -32q-47 0 -81 33t-34 80q0 51 35 84t82 33q52 0 84.5 -36t30.5 -81zM801 891q0 -45 -32.5 -80t-86.5 -35q-43 0 -78 31.5t-35 83.5q0 44 32 79.5t85 35.5t84 -34.5t31 -80.5zM1366 676v-162h-1366v162h1366z" />
    <glyph glyph-name="oslash" unicode="&#xf8;" horiz-adv-x="1110" 
d="M874 870l91 91l71 -76l-94 -92q88 -126 88 -310q0 -103 -31.5 -195t-90.5 -163t-151 -112.5t-204 -41.5q-200 0 -322 131l-81 -82l-72 74l88 84q-25 46 -39 77.5t-28.5 92t-14.5 125.5q0 119 39 219t104.5 165.5t151 101.5t178.5 36q173 0 317 -125zM291 303l473 459
l-5 5q-18 18 -31.5 29.5t-40.5 30t-62 28t-74 9.5q-123 0 -209 -99t-86 -267q0 -100 35 -195zM821 674l-477 -461q89 -111 221 -111q128 0 212.5 102t84.5 267q0 111 -41 203z" />
    <glyph glyph-name="ugrave" unicode="&#xf9;" horiz-adv-x="1067" 
d="M133 399v566h162v-551q0 -108 4 -133q11 -84 66.5 -118t126.5 -34t127.5 25.5t89.5 66.5q28 33 41.5 76t15.5 77.5t2 106.5v484h162v-965h-162v147q-130 -172 -330 -172q-152 0 -235 99q-48 55 -59 119t-11 206zM338 1362h180l84 -295h-96z" />
    <glyph glyph-name="uacute" unicode="&#xfa;" horiz-adv-x="1067" 
d="M133 399v566h162v-551q0 -108 4 -133q11 -84 66.5 -118t126.5 -34t127.5 25.5t89.5 66.5q28 33 41.5 76t15.5 77.5t2 106.5v484h162v-965h-162v147q-130 -172 -330 -172q-152 0 -235 99q-48 55 -59 119t-11 206zM559 1364h176l-176 -295h-84z" />
    <glyph glyph-name="ucircumflex" unicode="&#xfb;" horiz-adv-x="1067" 
d="M133 399v566h162v-551q0 -108 4 -133q11 -84 66.5 -118t126.5 -34t127.5 25.5t89.5 66.5q28 33 41.5 76t15.5 77.5t2 106.5v484h162v-965h-162v147q-130 -172 -330 -172q-152 0 -235 99q-48 55 -59 119t-11 206zM412 1071h-144l193 309h137l213 -309h-154l-125 195z" />
    <glyph glyph-name="udieresis" unicode="&#xfc;" horiz-adv-x="1067" 
d="M133 399v566h162v-551q0 -108 4 -133q11 -84 66.5 -118t126.5 -34t127.5 25.5t89.5 66.5q28 33 41.5 76t15.5 77.5t2 106.5v484h162v-965h-162v147q-130 -172 -330 -172q-152 0 -235 99q-48 55 -59 119t-11 206zM238 1319h178v-211h-178v211zM641 1319h180v-211h-180v211
z" />
    <glyph glyph-name="yacute" unicode="&#xfd;" horiz-adv-x="894" 
d="M700 965h170l-405 -1141q-17 -49 -29 -79t-29 -65.5t-32 -56.5t-36.5 -42.5t-45.5 -32.5t-55.5 -18t-69.5 -7q-73 0 -150 22v146q65 -17 105 -17q35 0 61.5 9.5t43.5 22.5t34 43.5t26 54t27 73.5l41 117l-327 971h174l241 -766zM485 1364h177l-177 -295h-84z" />
    <glyph glyph-name="thorn" unicode="&#xfe;" horiz-adv-x="1150" 
d="M131 -457v1905h162v-621q60 67 90 88q44 32 113.5 56t140.5 24q81 0 156.5 -32t138.5 -93.5t101 -162.5t38 -226q0 -105 -28.5 -196t-83 -161.5t-142.5 -111.5t-199 -41q-207 0 -325 144v-572h-162zM590 842q-138 -4 -217.5 -106.5t-79.5 -268.5q0 -161 78.5 -256.5
t222.5 -95.5q104 0 170 43q53 35 96 115t43 210q0 170 -86 267.5t-227 91.5z" />
    <glyph glyph-name="ydieresis" unicode="&#xff;" horiz-adv-x="894" 
d="M700 965h170l-405 -1141q-17 -49 -29 -79t-29 -65.5t-32 -56.5t-36.5 -42.5t-45.5 -32.5t-55.5 -18t-69.5 -7q-73 0 -150 22v146q65 -17 105 -17q35 0 61.5 9.5t43.5 22.5t34 43.5t26 54t27 73.5l41 117l-327 971h174l241 -766zM160 1319h178v-211h-178v211zM563 1319
h180v-211h-180v211z" />
    <glyph glyph-name="dotlessi" unicode="&#x131;" horiz-adv-x="425" 
d="M137 965h158v-965h-158v965z" />
    <glyph glyph-name="Lslash" unicode="&#x141;" horiz-adv-x="1067" 
d="M332 662v-490h700v-172h-893v479l-129 -123v162l129 123v807h193v-629l313 289v-160z" />
    <glyph glyph-name="lslash" unicode="&#x142;" horiz-adv-x="425" 
d="M135 1446h158v-488l110 101v-144l-110 -102v-813h-158v668l-112 -99v138l112 102v637z" />
    <glyph glyph-name="OE" unicode="&#x152;" horiz-adv-x="2347" 
d="M1450 655v-487h842v-168h-1026v166q-197 -203 -475 -203q-157 0 -288 60.5t-218 164t-135 242.5t-48 297q0 160 48.5 298t137.5 240t223.5 160t299.5 58q282 0 455 -189v152h1003v-174h-819v-449h659v-168h-659zM1264 727q0 168 -29 270q-50 166 -167 251t-267 85
q-217 0 -356.5 -164.5t-139.5 -445.5q0 -138 38.5 -252t104.5 -189.5t155 -117t190 -41.5q162 0 282 94q53 43 91 101.5t56.5 110t28.5 116.5t11.5 100t1.5 82z" />
    <glyph glyph-name="oe" unicode="&#x153;" horiz-adv-x="1792" 
d="M1538 311l166 -22q-13 -39 -33 -77.5t-56.5 -83.5t-81.5 -78.5t-113 -56t-146 -22.5q-123 0 -219 53.5t-150 139.5q-127 -193 -356 -193q-94 0 -176.5 32.5t-147 94.5t-102 160.5t-37.5 222.5q0 128 39.5 229t106.5 161.5t150 92t175 31.5q214 0 348 -178
q127 178 352 178q228 0 353 -174q101 -144 108 -383h-729q0 -146 83.5 -241t215.5 -95q50 0 92 17t67.5 40t46 55t29.5 53.5t15 43.5zM991 561h547q-17 143 -93 223t-181 80q-67 0 -125 -33t-99 -103t-49 -167zM825 477q1 181 -77 282t-203 101q-130 0 -207.5 -106
t-77.5 -277q0 -173 79.5 -270.5t203.5 -97.5q122 0 202 93.5t80 274.5z" />
    <glyph glyph-name="Scaron" unicode="&#x160;" horiz-adv-x="1366" 
d="M782 643l-120 25q-44 9 -73 15.5t-76 19t-78.5 24.5t-73.5 31.5t-70 40.5t-58 50t-47.5 62.5t-29 76t-11.5 91.5q0 166 134 281q143 123 387 123q243 0 389 -107q50 -37 86.5 -82.5t56 -95.5t28 -84t15.5 -78l-194 -12q-7 159 -117 240q-96 69 -258 69q-140 0 -234 -58
t-94 -169q0 -29 6.5 -54t21 -44.5t29 -35t40 -28.5t43 -21t49 -17t47.5 -13t49 -12l159 -41q17 -4 58.5 -14t55 -13.5t39.5 -10.5t42 -13t33 -13q77 -32 130 -79.5t77 -100t33.5 -95t9.5 -85.5q0 -224 -185 -350q-152 -103 -393 -103q-38 0 -74 2.5t-98 13.5t-114 29.5
t-111.5 56.5t-102.5 88.5t-74 130t-38 177.5l207 26q7 -182 116 -278t297 -96q159 0 260 75.5t101 212.5q0 60 -21.5 103.5t-64.5 70t-85 41t-104 27.5zM805 1833h151l-204 -254h-136l-215 254h156l127 -156z" />
    <glyph glyph-name="scaron" unicode="&#x161;" horiz-adv-x="980" 
d="M543 408l-92 18q-150 36 -212 68q-135 70 -135 213q0 131 102.5 208.5t270.5 77.5q72 0 138.5 -18t125 -54t98.5 -98.5t52 -144.5l-176 -23q-2 54 -14.5 88.5t-55.5 67.5q-73 57 -186 57q-89 0 -140 -43t-51 -98q0 -27 13 -48.5t31 -35.5t52.5 -27.5t61.5 -21.5t74 -19
l92 -22q34 -8 54.5 -13.5t58.5 -18t62.5 -25.5t55 -35.5t48 -47.5t30 -61t12.5 -78q0 -126 -107.5 -215.5t-297.5 -89.5q-188 0 -299 78q-124 92 -143 262l184 29q-6 -122 72 -188q65 -56 194 -56q108 0 167.5 41.5t59.5 118.5q0 32 -10.5 56.5t-25.5 39t-44 26.5t-53 18
t-67 14zM604 1378h146l-197 -309h-137l-209 309h151l125 -196z" />
    <glyph glyph-name="Ydieresis" unicode="&#x178;" horiz-adv-x="1280" 
d="M1251 1446l-520 -784v-662h-194v662l-510 784h229l379 -612l387 612h229zM350 1808h178v-209h-178v209zM752 1808h178v-209h-178v209z" />
    <glyph glyph-name="Zcaron" unicode="&#x17d;" horiz-adv-x="1236" 
d="M109 1446h1040v-180l-889 -1092h909v-174h-1132v188l893 1080h-821v178zM741 1833h152l-205 -254h-135l-215 254h156l127 -156z" />
    <glyph glyph-name="zcaron" unicode="&#x17e;" horiz-adv-x="854" 
d="M78 965h706v-131l-559 -699h572v-135h-770v135l555 688h-504v142zM561 1378h146l-197 -309h-137l-209 309h151l125 -196z" />
    <glyph glyph-name="florin" unicode="&#x192;" horiz-adv-x="894" 
d="M684 1178l-51 -213h174l-31 -127h-172l-256 -1071q-10 -38 -18 -63t-26.5 -61.5t-41 -58t-61 -37.5t-86.5 -16q-53 0 -123 25l31 118q33 -14 63 -14q38 0 61 18q30 20 62 154l235 1006h-147l31 127h147l70 270q8 29 12.5 43.5t13 38.5t15.5 36.5t18 30.5t22 27.5t27 21
t34 16.5t41.5 9t51.5 4q51 0 115 -20l-29 -123q-35 10 -73 10q-48 0 -66.5 -29t-42.5 -122z" />
    <glyph glyph-name="circumflex" unicode="&#x2c6;" 
d="M150 1071h-144l193 309h137l213 -309h-154l-125 195z" />
    <glyph glyph-name="caron" unicode="&#x2c7;" 
d="M403 1378h146l-197 -309h-137l-209 309h152l125 -196z" />
    <glyph glyph-name="breve" unicode="&#x2d8;" 
d="M430 1341h107q-6 -110 -81 -188t-180 -78q-98 0 -175 68.5t-83 195.5h103q13 -43 38 -72t52.5 -40t43 -14t26.5 -3q60 0 104.5 43t44.5 88z" />
    <glyph glyph-name="dotaccent" unicode="&#x2d9;" 
d="M188 1108v203h179v-203h-179z" />
    <glyph glyph-name="ring" unicode="&#x2da;" 
d="M84 1245q0 80 56.5 136.5t135.5 56.5q80 0 136.5 -57t56.5 -136t-56.5 -135.5t-136.5 -56.5t-136 56.5t-56 135.5zM172 1247q0 -43 30.5 -73.5t73.5 -30.5t74 30.5t31 73.5t-31 74t-74 31t-73.5 -31t-30.5 -74z" />
    <glyph glyph-name="ogonek" unicode="&#x2db;" 
d="M268 12l150 -2q-41 -31 -61.5 -48t-44 -50t-23.5 -64q0 -28 15 -46t37.5 -23.5t48.5 -7.5t48 0v-154h-30q-49 0 -84 2t-77 11t-68 25t-44 46t-18 72q0 34 8 60.5t32 58.5t43.5 52.5t67.5 67.5z" />
    <glyph glyph-name="tilde" unicode="&#x2dc;" 
d="M479 1300h99q-3 -21 -8.5 -43.5t-18.5 -52.5t-30 -53t-46.5 -39t-64.5 -16q-48 0 -136 32q-72 27 -90.5 33t-36.5 6t-31 -6t-20 -17.5t-10 -19t-6 -20.5h-100q3 22 8 43.5t18.5 52t31.5 53t49.5 38.5t70.5 16q37 0 149 -41q76 -29 109 -29q52 0 63 63z" />
    <glyph glyph-name="hungarumlaut" unicode="&#x2dd;" 
d="M-2 1067l94 295h180l-180 -295h-94zM287 1067l88 295h182l-178 -295h-92z" />
    <glyph glyph-name="mu" unicode="&#x3bc;" horiz-adv-x="1067" 
d="M133 -459v1422h162v-543q1 -29 2.5 -46t7 -51.5t14 -56.5t26 -50.5t41 -45.5t60 -29t82.5 -12q115 0 185 90q26 35 38.5 76.5t14.5 68t2 74.5v525h162v-963h-162v147q-52 -96 -114.5 -134t-141.5 -38q-32 0 -62 8.5t-49 17.5t-43 29t-33 29t-30 31v-549h-162z" />
    <glyph glyph-name="endash" unicode="&#x2013;" horiz-adv-x="1193" 
d="M1108 684v-162h-1016v162h1016z" />
    <glyph glyph-name="emdash" unicode="&#x2014;" horiz-adv-x="1280" 
d="M1192 684v-162h-1100v162h1100z" />
    <glyph glyph-name="quoteleft" unicode="&#x2018;" horiz-adv-x="468" 
d="M332 901h-203v105q5 143 20.5 226t65.5 214h96q-58 -151 -67 -322h88v-223z" />
    <glyph glyph-name="quoteright" unicode="&#x2019;" horiz-adv-x="468" 
d="M129 1446h203v-107q-1 -141 -19.5 -228t-64.5 -210h-96q56 141 67 320h-90v225z" />
    <glyph glyph-name="quotesinglbase" unicode="&#x201a;" horiz-adv-x="468" 
d="M129 223h203v-104q-3 -143 -19.5 -227t-64.5 -211h-96q57 152 67 319h-90v223z" />
    <glyph glyph-name="quotedblleft" unicode="&#x201c;" horiz-adv-x="768" 
d="M637 901h-203v105q3 142 18.5 225.5t67.5 214.5h94q-59 -154 -65 -322h88v-223zM332 901h-203v105q5 142 20.5 225.5t65.5 214.5h96q-57 -143 -67 -322h88v-223z" />
    <glyph glyph-name="quotedblright" unicode="&#x201d;" horiz-adv-x="768" 
d="M129 1446h203v-107q-3 -143 -19.5 -227t-64.5 -211h-96q56 141 67 320h-90v225zM434 1446h203v-107q-3 -141 -20 -225t-66 -213h-94q58 169 65 320h-88v225z" />
    <glyph glyph-name="quotedblbase" unicode="&#x201e;" horiz-adv-x="768" 
d="M129 223h203v-104q-3 -143 -19.5 -227t-64.5 -211h-96q57 152 67 319h-90v223zM434 223h203v-104q-3 -141 -20 -225t-66 -213h-94q57 153 65 319h-88v223z" />
    <glyph glyph-name="dagger" unicode="&#x2020;" horiz-adv-x="937" 
d="M391 1446h164v-422h348v-164h-348v-860h-164v860h-350v164h350v422z" />
    <glyph glyph-name="daggerdbl" unicode="&#x2021;" horiz-adv-x="937" 
d="M391 1446h164v-422h348v-164h-348v-325h348v-164h-348v-371h-164v371h-352v164h352v325h-350v164h350v422z" />
    <glyph glyph-name="bullet" unicode="&#x2022;" horiz-adv-x="681" 
d="M76 723q0 110 78 188t188 78t188 -78t78 -188t-78 -188t-188 -78t-188 78t-78 188z" />
    <glyph glyph-name="ellipsis" unicode="&#x2026;" horiz-adv-x="2048" 
d="M1606 231h202v-231h-202v231zM924 231h202v-231h-202v231zM242 231h202v-231h-202v231z" />
    <glyph glyph-name="perthousand" unicode="&#x2030;" horiz-adv-x="2560" 
d="M1739 436q-2 -132 -37.5 -232t-111 -161t-183.5 -61q-107 0 -188 63q-148 116 -148 401q0 115 27 207q41 138 127 205q77 64 178 64q40 0 80.5 -12t84 -39.5t81 -80.5t61.5 -126q29 -88 29 -228zM1606 436q0 97 -17 178q-4 15 -7.5 26t-13 36.5t-23 44t-33 38.5t-48 31
t-61.5 11q-41 0 -74 -18t-51.5 -41t-32.5 -54.5t-18.5 -50t-7.5 -35.5q-15 -77 -15 -151q0 -99 21 -181q8 -31 21.5 -58.5t34.5 -54.5t54 -43t74 -16q45 0 80.5 20.5t55.5 55.5t33.5 71t19 79t7 66.5t1.5 45.5zM1157 1395l113 -54l-649 -1398l-113 51zM723 922
q-1 -151 -42.5 -249t-100.5 -147q-79 -67 -191 -67q-86 0 -153 41.5t-105.5 110t-58 148.5t-19.5 165q0 90 20.5 173t60 151.5t104.5 109.5t147 41q66 0 125.5 -28.5t108 -84.5t77 -150t27.5 -214zM590 922q0 225 -82 307q-53 53 -121 53q-56 0 -97 -32t-60 -72.5t-29 -90.5
q-15 -77 -15 -153q0 -21 0.5 -38t4.5 -56.5t11 -70t22 -68.5t36 -63t54 -42.5t75 -17.5q70 0 121 51q80 78 80 293zM2179 922q64 0 122.5 -28t106.5 -83t76.5 -147t28.5 -209q0 -217 -90.5 -345t-247.5 -128q-156 0 -245 128t-89 326q0 84 19 170q14 64 37.5 116t49.5 84.5
t58.5 56t57 34.5t53 17t40 7t23.5 1zM1976 453q0 -70 9.5 -129t31.5 -111.5t63.5 -82.5t98.5 -30q38 0 69 14t49 36.5t27 38t15 30.5q37 89 37 232q0 48 -4 91.5t-17.5 93t-34.5 85t-58.5 59t-86.5 23.5q-35 0 -66.5 -15t-63 -50.5t-50.5 -108.5t-19 -176z" />
    <glyph glyph-name="guilsinglleft" unicode="&#x2039;" horiz-adv-x="512" 
d="M373 465v-184l-277 231v174l277 240v-185l-160 -137z" />
    <glyph glyph-name="guilsinglright" unicode="&#x203a;" horiz-adv-x="512" 
d="M139 741v185l277 -232v-174l-277 -239v184l160 137z" />
    <glyph glyph-name="fraction" unicode="&#x2044;" horiz-adv-x="256" 
d="M504 1468l69 -38l-823 -1450l-67 38z" />
    <glyph glyph-name="trademark" unicode="&#x2122;" horiz-adv-x="1406" 
d="M1303 1446v-680h-117l4 420l6 139l-33 -115l-139 -444h-106l-138 444l-35 113l9 -137l4 -420h-115v680h162l170 -537l166 537h162zM371 1346v-580h-119v580h-219v100h553v-100h-215z" />
    <glyph glyph-name="minus" unicode="&#x2212;" horiz-adv-x="1366" 
d="M1366 680v-162h-1366v162h1366z" />
    <glyph glyph-name="fi" unicode="&#xfb01;" horiz-adv-x="980" 
d="M342 1133v-168h184v-136h-184v-829h-158v829h-161v136h161l2 198q1 26 1.5 41.5t6 47.5t14.5 53.5t28 49t44 44t65.5 28t90.5 11.5q25 0 119 -13v-127q-65 9 -88 9q-35 0 -60 -11.5t-37.5 -26.5t-19 -42t-7.5 -45t-1 -49zM696 1448h158v-188h-158v188zM696 965h158v-965
h-158v965z" />
    <glyph glyph-name="fl" unicode="&#xfb02;" horiz-adv-x="980" 
d="M340 1133v-168h184v-136h-184v-829h-158v829h-162v136h162l2 198q0 23 1 41t6 48t14.5 53t28 49.5t44 43.5t66 28.5t90.5 11.5q25 0 119 -13v-127q-65 9 -88 9q-35 0 -60 -11.5t-37.5 -26.5t-19 -42t-7.5 -45t-1 -49zM690 1446h158v-1446h-158v1446z" />
    </font>
</defs>
</svg>
