<?xml version="1.0" encoding="utf-8"?>
<!-- Generator: Adobe Illustrator 24.2.3, SVG Export Plug-In . SVG Version: 6.00 Build 0)  -->
<svg version="1.1" id="Layer_1" xmlns="http://www.w3.org/2000/svg" xmlns:xlink="http://www.w3.org/1999/xlink" x="0px" y="0px"
	 viewBox="0 0 230 339.1" style="enable-background:new 0 0 230 339.1;" xml:space="preserve">
<style type="text/css">
	.st0{fill:#1D1D1B;}
</style>
<g>
	<path class="st0" d="M53.9,8c5.5-5.7,11.7-4.3,13.7,1.9C88.3,76,109,142.1,129.7,208.2c12.8,40.9,25.7,81.8,38.4,122.8
		c0.5,1.5,2.3,3.7-0.4,4.7c-2.9,1-2.6-2-3.1-3.4c-16.3-46.7-32.4-93.5-48.6-140.3C97.7,139.3,79.4,86.5,61.1,33.8
		C58.7,26.9,56.2,20,54,13C53.5,11.2,53.9,9.1,53.9,8z"/>
	<path class="st0" d="M6.6,63.2c1.4-1,3.2-2.7,5.2-3.7c2.6-1.2,4.6,0.1,6.3,2.3c7.6,10.3,15.3,20.6,23,30.9
		c28.9,38.9,57.8,77.8,86.6,116.7c30.7,41.4,61.4,82.7,92.1,124c0.5,0.7,1.2,1.5,1.5,2.3c0.2,0.5-0.1,1.5-0.5,1.8
		c-0.5,0.4-1.6,0.6-2.1,0.3c-0.8-0.4-1.3-1.3-1.8-2C151.1,252.6,85.3,169.3,19.6,86c-4.2-5.3-8.4-10.7-12.7-16
		C5.3,68,5.1,66,6.6,63.2z"/>
</g>
</svg>
