<?xml version="1.0" encoding="utf-8"?>
<!-- Generator: Adobe Illustrator 24.2.3, SVG Export Plug-In . SVG Version: 6.00 Build 0)  -->
<svg version="1.1" id="Layer_1" xmlns="http://www.w3.org/2000/svg" xmlns:xlink="http://www.w3.org/1999/xlink" x="0px" y="0px"
	 viewBox="0 0 300 300" style="enable-background:new 0 0 300 300;" xml:space="preserve">
<style type="text/css">
	.st0{fill:#FFFFFF;}
	.st1{fill:none;}
</style>
<g>
	<g>
		<g>
			<path class="st0" d="M30.97,82.5c-9.39,1.79-11.17,6.51-5.36,14.17c1.74,2.28,4.87,4.89,9.39,7.84c4.51,2.95,8.28,3.86,11.3,2.74
				c1.18-0.39,1.91-1.36,2.18-2.93c0.27-1.57,0.27-2.89-0.01-3.97c-0.39-1.18-0.98-2.3-1.77-3.35c-0.79-1.05-1.58-2.11-2.37-3.18
				c-0.1-0.05-0.22-0.12-0.36-0.2c-0.14-0.08-0.28-0.16-0.41-0.23c-0.49,2.37-0.82,4.32-1.01,5.85l-6.82,0.39
				c0.18-0.78,0.74-2.81,1.66-6.11c0.92-3.3,1.67-5.31,2.25-6.04c1.81-1.96,3.93-1.15,6.35,2.42c2.42,3.58,5.61,5.53,9.58,5.87
				c0.39,0.13,0.63,0.23,0.72,0.28c-0.79,1.86-2.97,2.28-6.54,1.24c0.37,0.46,0.71,1.02,1,1.69c0.83,1.81,1,3.97,0.49,6.47
				c-0.5,2.51-1.8,4.28-3.9,5.33c-4.69,2.32-10.74,1.24-18.15-3.25c-7.4-4.48-11.48-9.51-12.21-15.08c-0.6-4.32,0.5-8.32,3.3-12.02
				c2.8-3.69,5.81-5.31,9.03-4.85L30.97,82.5z M41.32,92.45c-0.16-0.09-0.29-0.12-0.39-0.09c0.06,0.04,0.13,0.05,0.19,0.05
				C41.19,92.4,41.25,92.41,41.32,92.45z"/>
			<path class="st0" d="M35.24,61.67c0.62,1.31,2.01,3.24,4.16,5.81c2.15,2.57,4.54,5.13,7.16,7.68c2.62,2.56,5.18,4.78,7.68,6.66
				c2.5,1.89,4.39,2.68,5.68,2.4c1.99-0.28,2.42-1.54,1.3-3.77c-1.12-2.24-2.79-4.71-5-7.4c-2.21-2.69-4.46-5.24-6.75-7.63
				c-2.29-2.39-3.64-3.88-4.04-4.47l5.71-3.43c1.85,3.09,4.31,6.07,7.36,8.94c3.05,2.87,6.41,4.67,10.07,5.39
				c2.36,0.49,3.59,0.21,3.67-0.86c0.08-1.06-0.35-2.5-1.3-4.32c-2.3-4.53-5.73-8.88-10.28-13.07c-4.56-4.18-7.08-8.84-7.59-13.98
				c3.24,4.77,7.04,9.04,11.42,12.83c4.38,3.79,7.83,7.8,10.36,12.04c2.15,3.68,2.62,6.86,1.41,9.56c-1.21,2.69-4.04,3.72-8.51,3.1
				c-1.82-0.27-3.52-0.74-5.12-1.4c2.32,4.4,2.62,7.9,0.89,10.5c-1.43,2.18-3.57,2.81-6.44,1.89c-2.87-0.92-5.83-2.48-8.89-4.67
				c-3.06-2.2-5.91-4.55-8.54-7.07c-2.63-2.52-4.41-4.29-5.34-5.33c-1.25-1.4-2.27-2.59-3.07-3.58c-0.8-0.99-1.6-2.36-2.42-4.1
				L35.24,61.67z"/>
			<path class="st0" d="M61.22,34.09l8.12-4.21c2.2,5.12,4.5,9.97,6.91,14.54c2.41,4.57,4.89,9.32,7.44,14.24
				c0.76,1.52,1.37,2.75,1.81,3.69c0.44,0.94,0.76,2.24,0.95,3.9c-1.04-0.52-1.63-0.82-1.78-0.89c-0.15-0.08-0.64-0.53-1.5-1.36
				c-3.97-3.82-7.92-8.56-11.85-14.2C67.38,44.16,64.02,38.93,61.22,34.09z"/>
			<path class="st0" d="M97.9,24.61c-0.62-0.18-1.76,0.18-3.4,1.1c-1.65,0.92-2.68,1.5-3.09,1.74c-1.38,0.92-2.74,2.02-4.09,3.3
				c-1.35,1.28-2.38,2.68-3.09,4.21c1.09,0.07,2.96-0.16,5.59-0.7c2.63-0.54,4.17-0.84,4.63-0.91c3.29-0.36,6.79,0.06,10.5,1.25
				c3.71,1.19,5.84,3.83,6.38,7.93c0.69,5.53-1.33,9.47-6.04,11.82c-4.72,2.35-9.27,3.5-13.65,3.46l0.05-0.02
				c-0.31,0.03-0.61,0.01-0.88-0.05c0.43-0.29,0.67-0.45,0.74-0.49c3.18-0.83,5.99-1.9,8.45-3.22c2.45-1.31,4.49-3.55,6.11-6.71
				c2.07-4,2.04-6.49-0.08-7.48s-4.92-1.39-8.39-1.19c-3.47,0.2-6.93,0.57-10.37,1.11c-3.45,0.54-5.48,0.34-6.1-0.57
				c-1.44-2.02-1.74-4.27-0.88-6.75c0.86-2.48,2.3-4.79,4.32-6.93c2.02-2.14,4.35-3.88,6.96-5.24c2.62-1.35,4.96-1.91,7.04-1.67
				c1.99,0.24,3.23,1.23,3.7,2.98c0.47,1.75,0.83,3.52,1.06,5.32c-0.78-0.02-1.86-0.17-3.21-0.44C98.8,26.17,98.05,25.56,97.9,24.61
				z M83.81,34.86c-0.07-0.05-0.11-0.09-0.12-0.12C83.73,34.84,83.78,34.88,83.81,34.86z M97.95,24.58
				c0.03,0.07,0.07,0.11,0.12,0.12C98.01,24.66,97.97,24.62,97.95,24.58z"/>
			<path class="st0" d="M106.57,10.24l9.02-1.46c0.48,5.56,1.16,10.88,2.02,15.97c0.86,5.1,1.73,10.38,2.61,15.85
				c0.25,1.68,0.44,3.04,0.56,4.07c0.13,1.03,0.02,2.37-0.32,4c-0.83-0.82-1.3-1.29-1.41-1.4c-0.11-0.12-0.45-0.7-1-1.76
				c-2.57-4.87-4.84-10.6-6.81-17.19C109.27,21.73,107.71,15.7,106.57,10.24z"/>
			<path class="st0" d="M132.48,7.32c-0.29,0.89-0.5,2.47-0.65,4.74l1.31-0.56c1.84,4.15,3.98,8.48,6.43,12.99
				c2.44,4.51,4.87,8.76,7.28,12.76c-1.12-5.13-2.1-11.39-2.93-18.79c-0.83-7.4-1.09-12.23-0.76-14.49l7.47,1.67
				c-0.31,1.04-0.48,3.18-0.53,6.44c-0.05,3.25-0.05,6.81,0,10.66c0.05,3.85,0.1,7.57,0.15,11.16c0.05,3.59,0.04,6.22-0.03,7.89
				c-0.06,0.93-0.25,1.84-0.58,2.73c-1.98-1.84-4.9-5.06-8.75-9.66c-3.86-4.6-7.07-8.79-9.64-12.59c-0.15,3.64-0.27,7.19-0.36,10.65
				c-0.09,3.46-0.17,6.07-0.24,7.81c-0.07,1.41-0.13,2.38-0.17,2.9c-0.04,0.52-0.25,1.47-0.62,2.85l-1.08-1.91
				c-0.67-1.42-1.27-3.98-1.82-7.67c-0.55-3.69-1-7.6-1.36-11.72c-0.36-4.12-0.59-8.03-0.7-11.73c-0.1-3.7-0.03-6.32,0.2-7.86
				L132.48,7.32z"/>
		</g>
		<g>
			<path class="st0" d="M185.58,279.16l3.94-1.06c2.58-0.69,2.89,0.28,3.76,3.5c0.69,2.58,0.97,3.61-0.71,4.14l0.03,0.12
				c0.56-0.1,1.44-0.26,1.96,0.81c0.12,0.27,0.18,0.39,0.99,3.4c0.91,3.39,0.94,4.26-2.03,5.05l-3.42,0.92L185.58,279.16z
				 M189.63,285.66c1.63-0.44,1.86-0.5,1.93-1.01c0.07-0.4-0.3-1.79-0.45-2.34c-0.08-0.31-0.23-0.76-0.37-1.18
				c-0.23-0.68-0.34-0.88-0.56-0.95c-0.19-0.05-0.26-0.03-1.91,0.41L189.63,285.66z M190.12,287.5l1.58,5.88l1.15-0.31
				c0.65-0.17,0.85-0.28,0.89-0.6c0.07-0.32-0.44-2.21-0.56-2.67c-0.7-2.61-0.88-2.89-1.81-2.64L190.12,287.5z"/>
			<path class="st0" d="M196.4,283.24c-0.24-0.7-0.94-2.71,1.77-3.65c2.71-0.94,3.36,0.93,3.64,1.75l2.74,7.93
				c0.27,0.77,0.53,1.44,1.09,2.01l-2.01,0.7c-0.34-0.38-0.4-0.46-0.67-0.89c-0.16,0.66-0.38,1.41-1.4,1.77
				c-1.78,0.61-2.3-0.88-2.51-1.49l-0.77-2.22c-0.32-0.91-0.56-1.61,0.34-2.74l1.41-1.75c0.31-0.4,0.54-0.87,0.5-0.98l-0.65-1.87
				c-0.15-0.42-0.4-0.93-1.15-0.68c-0.82,0.28-0.62,0.87-0.49,1.22l0.61,1.75l-1.92,0.66L196.4,283.24z M201.27,285.82
				c-0.13,0.23-0.55,0.82-0.86,1.21c-0.41,0.56-0.42,0.98-0.23,1.52l0.44,1.26c0.23,0.66,0.52,1.5,1.27,1.24
				c1.07-0.37,0.52-1.99,0.41-2.29L201.27,285.82z"/>
			<path class="st0" d="M205.67,278.61c0.05-0.85,0.09-1.86,1.23-2.33c0.18-0.08,0.35-0.12,0.52-0.16l0.88,2.13
				c-0.3-0.07-0.7-0.14-1.25,0.09c-1.31,0.54-0.69,2.08-0.34,2.93l3.39,8.21l-1.83,0.76l-5.06-12.26l1.88-0.77L205.67,278.61z"/>
			<path class="st0" d="M207.01,271.82l1.78-0.86l2.23,4.64c0.03-0.34,0.12-1.29,1.23-1.83c0.67-0.32,1.34-0.29,1.85,0.02
				c0.47,0.3,0.76,0.79,0.95,1.17l3.63,7.54c0.21,0.45,1.31,2.72-0.88,3.77c-1.23,0.59-1.95-0.05-2.3-0.38
				c-0.04,0.54-0.03,0.67,0.08,1.2l-1,0.48L207.01,271.82z M213.51,276.35c-0.17-0.36-0.48-1-1.26-0.63
				c-0.87,0.42-0.53,1.3-0.38,1.61l3.21,6.67c0.29,0.6,0.61,1.27,1.46,0.86c0.58-0.28,0.67-0.84,0.38-1.44L213.51,276.35z"/>
			<path class="st0" d="M218.23,275.02c-0.47-0.82-0.82-1.44-0.89-2.06c-0.18-1.12,0.5-2.13,1.57-2.74
				c2.54-1.44,3.71,0.62,4.01,1.14l2.13,3.74l-3.42,1.94l1.83,3.23c0.18,0.32,0.54,0.95,1.36,0.48c0.84-0.48,0.46-1.2,0.26-1.54
				l-1.15-2.02l1.74-0.99l0.93,1.63c0.39,0.69,1.62,2.84-1.01,4.33c-0.37,0.21-0.73,0.36-1.12,0.43c-1.73,0.36-2.44-0.89-2.73-1.4
				L218.23,275.02z M221.12,272.23c-0.27-0.47-0.6-1.05-1.4-0.6c-0.88,0.5-0.48,1.21-0.17,1.75l1.26,2.22l1.68-0.96L221.12,272.23z"
				/>
			<path class="st0" d="M225.03,270.11c-0.34-0.52-1.67-2.55,0.81-4.17c2.48-1.63,3.75,0.26,4.25,1.03l0.99,1.51l-1.68,1.1
				l-1.23-1.88c-0.32-0.5-0.71-0.81-1.41-0.35c-0.85,0.56-0.45,1.16-0.13,1.65l4.41,6.73c0.15,0.23,0.57,0.87,1.38,0.34
				c0.87-0.57,0.44-1.23,0.11-1.73l-1.34-2.05l1.66-1.09l1.32,2.01c0.39,0.6,1.7,2.59-0.79,4.22c-2.32,1.52-3.41,0.22-4.04-0.75
				L225.03,270.11z"/>
			<path class="st0" d="M240.54,271c-0.01,0.56-0.04,1.39-0.91,2.05c-1.6,1.21-2.72-0.28-3.25-0.99l-6.46-8.58l1.62-1.22l6.24,8.28
				c0.34,0.45,0.77,1.03,1.47,0.51c0.83-0.63,0.25-1.4-0.15-1.93l-6.03-8.01l1.58-1.19l7.96,10.58l-1.56,1.18L240.54,271z"/>
			<path class="st0" d="M238.85,261.17c-0.61-0.71-1.08-1.26-1.27-1.85c-0.4-1.06,0.07-2.19,1.01-3c2.21-1.91,3.76-0.11,4.15,0.34
				l2.81,3.26l-2.98,2.57l2.42,2.81c0.24,0.28,0.71,0.82,1.42,0.21c0.73-0.63,0.22-1.26-0.04-1.56l-1.52-1.76l1.52-1.31l1.23,1.42
				c0.52,0.6,2.13,2.47-0.15,4.45c-0.32,0.27-0.65,0.5-1.01,0.64c-1.63,0.69-2.57-0.4-2.96-0.85L238.85,261.17z M241.15,257.88
				c-0.36-0.41-0.79-0.92-1.48-0.32c-0.77,0.66-0.24,1.28,0.17,1.75l1.67,1.93l1.46-1.26L241.15,257.88z"/>
			<path class="st0" d="M248.56,251.13c-0.45-0.42-2.23-2.08-0.2-4.25c2.03-2.17,3.71-0.64,4.38-0.01l1.32,1.23l-1.37,1.47
				l-1.65-1.54c-0.43-0.41-0.88-0.62-1.45,0c-0.69,0.74-0.17,1.23,0.27,1.64l5.88,5.49c0.2,0.19,0.76,0.71,1.42,0
				c0.71-0.76,0.13-1.3-0.3-1.7l-1.79-1.67l1.35-1.45l1.76,1.64c0.52,0.49,2.26,2.11,0.24,4.28c-1.89,2.03-3.26,1.02-4.11,0.23
				L248.56,251.13z"/>
			<path class="st0" d="M254.51,245.76c-1-0.82-2.93-2.4-1.02-4.74c1.85-2.26,3.48-0.93,4.24-0.3l5.77,4.72
				c0.69,0.56,2.4,2.03,0.52,4.33c-1.85,2.26-3.57,0.85-4.78-0.14L254.51,245.76z M256.34,242.11c-0.48-0.39-0.99-0.78-1.59-0.05
				c-0.66,0.8-0.01,1.34,0.45,1.71l6.03,4.94c0.4,0.33,0.92,0.75,1.53,0.01c0.63-0.77,0.08-1.27-0.38-1.65L256.34,242.11z"/>
			<path class="st0" d="M259.28,236.34c-0.4-0.75-0.9-1.63-0.17-2.63c0.12-0.16,0.24-0.29,0.36-0.41l1.86,1.35
				c-0.28,0.1-0.67,0.25-1.02,0.73c-0.83,1.14,0.5,2.14,1.24,2.68l7.19,5.22l-1.16,1.6l-10.74-7.79l1.19-1.64L259.28,236.34z"/>
			<path class="st0" d="M259.23,226.8l1.32-2.06l0.85,4.22l-0.61,0.96L259.23,226.8z M263.47,234.08c-0.79-0.51-1.4-0.89-1.74-1.41
				c-0.68-0.91-0.55-2.12,0.11-3.16c1.57-2.46,3.57-1.18,4.07-0.86l3.63,2.32l-2.12,3.31l3.12,2c0.31,0.2,0.92,0.59,1.42-0.2
				c0.52-0.81-0.15-1.27-0.49-1.49l-1.96-1.26l1.08-1.69l1.58,1.02c0.67,0.43,2.75,1.76,1.12,4.3c-0.23,0.35-0.48,0.66-0.79,0.91
				c-1.37,1.12-2.57,0.35-3.07,0.03L263.47,234.08z M264.74,230.27c-0.46-0.29-1.02-0.65-1.52,0.12c-0.55,0.85,0.14,1.29,0.66,1.63
				l2.15,1.38l1.04-1.63L264.74,230.27z"/>
			<path class="st0" d="M267.96,226.9c-0.82-0.45-1.45-0.8-1.83-1.29c-0.74-0.86-0.69-2.08-0.1-3.16c1.41-2.56,3.49-1.41,4.01-1.13
				l3.77,2.07l-1.9,3.45l3.25,1.79c0.32,0.18,0.95,0.52,1.41-0.3c0.46-0.85-0.24-1.26-0.59-1.45l-2.04-1.12l0.97-1.76l1.65,0.91
				c0.69,0.38,2.86,1.57,1.41,4.22c-0.2,0.37-0.44,0.69-0.72,0.96c-1.29,1.21-2.55,0.52-3.07,0.24L267.96,226.9z M268.97,223.02
				c-0.48-0.26-1.06-0.58-1.5,0.22c-0.49,0.89,0.23,1.28,0.77,1.58l2.23,1.23l0.93-1.69L268.97,223.02z"/>
			<path class="st0" d="M270.28,216.48c-0.24-0.49-0.62-1.24-0.16-2.23c0.85-1.82,2.53-1.03,3.34-0.66l9.74,4.53l-0.86,1.84
				l-9.4-4.37c-0.52-0.24-1.17-0.54-1.53,0.24c-0.44,0.94,0.44,1.35,1.04,1.63l9.09,4.23l-0.83,1.8l-12.01-5.58l0.82-1.77
				L270.28,216.48z"/>
		</g>
	</g>
	<g>
		<g>
			<path class="st1" d="M241.77,103.8l-83.85,0V83.33l64.7,0c2.72,2.23,5.36,4.59,7.88,7.12C234.67,94.62,238.44,99.08,241.77,103.8
				z"/>
			<path class="st1" d="M259.88,174.88c-0.52,4.5-1.33,8.9-2.42,13.19c-0.55,2.21-1.17,4.38-1.87,6.52
				c-0.43,1.33-0.88,2.67-1.37,3.98l-96.3,0V127.5l96.34,0c0.48,1.3,0.94,2.63,1.36,3.96c0.7,2.15,1.31,4.33,1.86,6.52
				c1.09,4.33,1.89,8.74,2.41,13.21l-96.32,0v23.69L259.88,174.88z"/>
			<path class="st1" d="M213.77,76.87l-55.84,0V60.39C178.04,60.39,197.28,66.15,213.77,76.87z"/>
			<path class="st1" d="M241.71,222.27c-5.43,7.67-11.9,14.56-19.18,20.48h-64.6l0-20.48L241.71,222.27z"/>
			<path class="st1" d="M271.66,141.53v43.02c0,2.69-2.19,4.88-4.88,4.88h-2.99c2.11-8.46,3.24-17.3,3.24-26.39
				c0-9.02-1.09-17.86-3.2-26.39h2.95C269.47,136.64,271.66,138.84,271.66,141.53z"/>
			<path class="st1" d="M213.66,249.2c-16.06,10.42-35.21,16.48-55.74,16.48V249.2L213.66,249.2z"/>
			<path class="st0" d="M266.78,130.19h-4.77c-5.2-16.54-14.33-31.69-26.94-44.3c-20.6-20.62-48.01-31.96-77.15-31.96
				c-29.15,0-56.54,11.34-77.16,31.96c-12.61,12.61-21.75,27.76-26.94,44.3h-4.77c-6.25,0-11.34,5.09-11.34,11.34l0,43.02
				c0,6.25,5.09,11.34,11.34,11.34h4.81c13.98,44.16,55.34,76.25,104.05,76.25c0.01,0,0.01,0,0.01,0c24.36,0,46.88-8.03,65.05-21.57
				c18.17-13.54,32-32.6,38.99-54.68h4.81c6.25,0,11.34-5.09,11.34-11.34v-43.02C278.12,135.28,273.03,130.19,266.78,130.19z
				 M49.06,189.43c-2.69,0-4.88-2.19-4.88-4.88l0-43.02c0-2.69,2.2-4.88,4.88-4.88H52c-2.11,8.53-3.2,17.38-3.2,26.39
				c0,9.09,1.13,17.94,3.24,26.39H49.06z M157.92,60.39c20.12,0,39.36,5.76,55.84,16.48l-111.7,0
				C118.55,66.15,137.79,60.39,157.92,60.39z M85.34,90.45c2.52-2.53,5.15-4.9,7.89-7.12l129.4,0c2.72,2.23,5.36,4.59,7.88,7.12
				c4.17,4.16,7.94,8.63,11.28,13.34l-167.71,0C77.4,99.08,81.16,94.62,85.34,90.45z M157.92,265.69c0,0,0,0-0.01,0
				c-20.53,0-39.67-6.07-55.74-16.48l111.48,0C197.59,259.62,178.45,265.69,157.92,265.69z M222.52,242.75l-129.21,0
				c-7.28-5.92-13.75-12.8-19.18-20.48l167.58,0C236.27,229.94,229.81,236.83,222.52,242.75z M259.88,174.88
				c-0.52,4.5-1.33,8.9-2.42,13.19c-0.55,2.21-1.17,4.38-1.87,6.52c-0.43,1.33-0.88,2.67-1.37,3.98l-192.61,0
				c-0.48-1.31-0.94-2.65-1.37-3.98c-0.7-2.14-1.32-4.31-1.87-6.52c-1.09-4.29-1.9-8.69-2.42-13.19l96.31,0v-23.69l-96.32,0
				c0.52-4.48,1.32-8.89,2.41-13.21c0.55-2.19,1.16-4.37,1.86-6.52c0.42-1.33,0.87-2.66,1.36-3.96l192.7,0
				c0.48,1.3,0.94,2.63,1.36,3.96c0.7,2.15,1.31,4.33,1.86,6.52c1.09,4.33,1.89,8.74,2.41,13.21l-96.32,0v23.69L259.88,174.88z
				 M271.66,184.55c0,2.69-2.19,4.88-4.88,4.88h-2.99c2.11-8.46,3.24-17.3,3.24-26.39c0-9.02-1.09-17.86-3.2-26.39h2.95
				c2.69,0,4.88,2.2,4.88,4.88V184.55z"/>
		</g>
		<g>
			<path class="st1" d="M157.92,83.33v20.46l-83.86,0c3.34-4.71,7.1-9.18,11.28-13.34c2.52-2.53,5.15-4.9,7.89-7.12L157.92,83.33z"
				/>
			<path class="st1" d="M157.92,127.5v71.08l-96.31,0c-0.48-1.31-0.94-2.65-1.37-3.98c-0.7-2.14-1.32-4.31-1.87-6.52
				c-1.09-4.29-1.9-8.69-2.42-13.19l96.31,0v-23.69l-96.32,0c0.52-4.48,1.32-8.89,2.41-13.21c0.55-2.19,1.16-4.37,1.86-6.52
				c0.42-1.33,0.87-2.66,1.36-3.96L157.92,127.5z"/>
			<path class="st1" d="M157.92,60.39v16.48l-55.85,0C118.55,66.15,137.79,60.39,157.92,60.39z"/>
			<path class="st1" d="M157.92,222.27l0,20.48l-64.61,0c-7.28-5.92-13.75-12.8-19.18-20.48L157.92,222.27z"/>
			<path class="st1" d="M52.05,189.43h-2.99c-2.69,0-4.88-2.19-4.88-4.88l0-43.02c0-2.69,2.2-4.88,4.88-4.88H52
				c-2.11,8.53-3.2,17.38-3.2,26.39C48.81,172.13,49.94,180.97,52.05,189.43z"/>
			<path class="st1" d="M157.92,249.2v16.48c0,0,0,0-0.01,0c-20.53,0-39.67-6.07-55.74-16.48L157.92,249.2z"/>
		</g>
	</g>
</g>
</svg>
