<?xml version="1.0" encoding="utf-8"?>
<!-- Generator: Adobe Illustrator 24.2.3, SVG Export Plug-In . SVG Version: 6.00 Build 0)  -->
<svg version="1.1" id="Layer_1" xmlns="http://www.w3.org/2000/svg" xmlns:xlink="http://www.w3.org/1999/xlink" x="0px" y="0px"
	 viewBox="0 0 187.45 1213.12" style="enable-background:new 0 0 187.45 1213.12;" xml:space="preserve">
<style type="text/css">
	.st0{fill:none;}
	.st1{fill:#981B22;}
	.st2{fill:none;stroke:#000000;stroke-width:1.8262;stroke-miterlimit:10;}
	.st3{fill:none;stroke:#981B22;stroke-width:1.8262;stroke-miterlimit:10;}
	.st4{fill:#981B22;stroke:#981B22;stroke-width:1.8262;stroke-miterlimit:10;}
	.st5{fill:none;stroke:#981B22;stroke-width:1.8262;stroke-linecap:round;stroke-miterlimit:10;}
	.st6{fill:#AF222B;}
	.st7{fill:url(#SVGID_1_);}
</style>
<pattern  x="-302.58" y="381.64" width="404.64" height="360" patternUnits="userSpaceOnUse" id="New_Pattern_3" viewBox="36.97 -425.7 404.64 360" style="overflow:visible;">
	<g>
		<rect x="36.97" y="-425.7" class="st0" width="404.64" height="360"/>
		<g>
			<g>
				<path class="st1" d="M488.97-70.19c1.79,0.55,2.16,2.03,1.05,3.09c-11.82,11.37-23.64,22.73-35.45,34.1
					c-7.32,7.04-14.63,14.08-21.96,21.1c-0.27,0.26-0.54,0.88-1.04,0.41c-0.53-0.5,0.14-0.76,0.39-1.02
					c8.19-8.38,16.39-16.74,24.59-25.11c9.24-9.44,18.48-18.88,27.72-28.32c1.21-1.24,2.41-2.5,3.66-3.7
					C488.25-69.95,488.75-70.08,488.97-70.19z"/>
				<path class="st1" d="M472.28-74.38c0.37,0.19,0.91,0.39,1.33,0.72c0.53,0.42,0.48,0.99,0.18,1.57c-1.38,2.7-2.74,5.42-4.11,8.12
					c-5.19,10.23-10.38,20.45-15.57,30.68c-5.52,10.87-11.03,21.74-16.55,32.62c-0.1,0.19-0.18,0.41-0.33,0.55
					c-0.09,0.09-0.34,0.15-0.44,0.09c-0.14-0.08-0.29-0.28-0.28-0.43c0-0.2,0.14-0.4,0.23-0.6c10.7-22.73,21.39-45.45,32.09-68.18
					c0.69-1.46,1.38-2.92,2.06-4.38C471.13-74.16,471.54-74.42,472.28-74.38z"/>
			</g>
		</g>
		<g>
			<g>
				<path class="st1" d="M84.33-70.19c1.79,0.55,2.16,2.03,1.05,3.09C73.55-55.73,61.74-44.37,49.92-33
					c-7.32,7.04-14.63,14.08-21.96,21.1c-0.27,0.26-0.54,0.88-1.04,0.41c-0.53-0.5,0.14-0.76,0.39-1.02
					C35.5-20.88,43.7-29.25,51.9-37.62c9.24-9.44,18.48-18.88,27.72-28.32c1.21-1.24,2.41-2.5,3.66-3.7
					C83.61-69.95,84.11-70.08,84.33-70.19z"/>
				<path class="st1" d="M67.64-74.38c0.37,0.19,0.91,0.39,1.33,0.72c0.53,0.42,0.48,0.99,0.18,1.57c-1.38,2.7-2.74,5.42-4.11,8.12
					c-5.19,10.23-10.38,20.45-15.57,30.68C43.95-22.41,38.43-11.54,32.91-0.67c-0.1,0.19-0.18,0.41-0.33,0.55
					c-0.09,0.09-0.34,0.15-0.44,0.09c-0.14-0.08-0.29-0.28-0.28-0.43c0-0.2,0.14-0.4,0.23-0.6c10.7-22.73,21.39-45.45,32.09-68.18
					c0.69-1.46,1.38-2.92,2.06-4.38C66.49-74.16,66.9-74.42,67.64-74.38z"/>
			</g>
		</g>
		<g>
			<g>
				<g>
					<path class="st2" d="M405.55-94.79c0,0.01,0,0.01,0,0.02c0-0.01,0-0.02,0-0.04C405.55-94.8,405.55-94.8,405.55-94.79z"/>
					<path class="st3" d="M434.04-98.77c-15.7,0-28.44,1.77-28.49,3.95c0,0.01,0,0.02,0,0.04c0.08,2.18,12.8,3.94,28.49,3.94
						c15.69,0,28.41-1.76,28.49-3.94c0-0.01,0-0.02,0-0.04C462.48-97.01,449.75-98.77,434.04-98.77z"/>
					<path class="st4" d="M462.54-94.78c-0.08,2.18-12.81,3.94-28.49,3.94c-15.69,0-28.41-1.76-28.49-3.94
						c0.06,7.99,7.48,14.81,17.94,17.61c0.66,0.18,1.12,0.78,1.12,1.47l0,2.22c0,0.4,0.32,0.73,0.73,0.73l17.39,0
						c0.4,0,0.73-0.32,0.73-0.73l0-2.22c0-0.69,0.46-1.29,1.12-1.47C455.06-79.96,462.47-86.79,462.54-94.78z"/>
				</g>
				<path class="st2" d="M424.62-76.89"/>
				<path class="st5" d="M418.02-95.72c-0.73-2.29-0.65-1.85,0.65-6.41s-0.03-4.8-0.56-8.16"/>
				<path class="st5" d="M433.3-95.72c-0.49-1.53-0.43-1.23,0.43-4.27c0.87-3.04-0.02-3.19-0.37-5.43"/>
			</g>
			<g>
				<path class="st1" d="M371.47-109.39c7.09,10.72,14.09,21.28,21.17,31.97c0.35,0.52,0.2,1.23-0.32,1.57l-3.81,2.52
					c-0.51,0.34-1.22,0.2-1.56-0.32c-7.05-10.66-14.05-21.23-21.17-31.97c-0.35-0.52-0.2-1.23,0.32-1.57l3.82-2.52
					C370.42-110.06,371.13-109.91,371.47-109.39z"/>
				<path class="st1" d="M349.15-95.98c1.27-0.84,2.51-1.66,3.8-2.52c0.52-0.34,1.23-0.2,1.57,0.32
					c7.08,10.69,14.09,21.28,21.16,31.97c0.35,0.52,0.2,1.23-0.32,1.57l-3.81,2.51c-0.51,0.34-1.22,0.19-1.56-0.33
					c-7.05-10.65-14.04-21.21-21.16-31.96C348.49-94.93,348.63-95.64,349.15-95.98z"/>
				<path class="st1" d="M357.75-101.72l3.81-2.52c0.52-0.34,1.22-0.19,1.57,0.33c2.99,4.52,5.91,8.93,8.89,13.43
					c0.33,0.51,0.21,1.19-0.28,1.54c-1.22,0.89-2.43,1.76-3.69,2.68c-0.52,0.38-1.25,0.24-1.61-0.29c-2.99-4.52-5.95-8.98-9.01-13.6
					C357.09-100.67,357.23-101.38,357.75-101.72z"/>
				<path class="st1" d="M369.98-83.15l3.7-2.69c0.51-0.37,1.25-0.24,1.6,0.3c3,4.54,5.96,9.01,9.01,13.6
					c0.35,0.52,0.2,1.23-0.32,1.57l-3.82,2.52c-0.5,0.33-1.21,0.19-1.55-0.33c-2.95-4.45-5.87-8.85-8.9-13.43
					C369.37-82.11,369.49-82.8,369.98-83.15z"/>
			</g>
			<path class="st1" d="M356.71-156.62c4.69-4.21,9.39-6.77,15.33-4.13c0.14,0.06,0.17,0.25,0.06,0.35
				c-3.44,2.94-17.02,7.2-13.98,28.8c0.08,0.58,0.84,0.74,1.16,0.25c9.57-14.91,25.16-8.98,29.29-19.3
				c0.06-0.15,0.27-0.18,0.36-0.05c2.83,4.18,0.09,9.74-1.43,12.23c-0.3,0.48,0.15,1.08,0.7,0.94c10.8-2.9,18.33-12.26,14.11-21.11
				c-0.94-1.96-2.53-4.31-4.49-6.74c-0.2-0.25-0.59-0.21-0.74,0.07c-3.61,6.43-7.98,11.12-20.34,13.96
				c-0.53,0.12-0.91-0.51-0.55-0.91c5.38-6.07,6.56-8.81,5.17-12.76c-0.88-2.51-3.85-4.31-6.48-4.09c-0.48,0.04-0.76-0.53-0.45-0.9
				c2.67-3.26,5.62-6.88,9.5-7.48c0.4-0.06,0.52-0.59,0.18-0.82c-1-0.67-1.96-1.23-2.84-1.65c-11.05-5.24-18.77,7.54-25.56,22.63
				C355.43-156.72,356.2-156.16,356.71-156.62z"/>
			<g>
				<path class="st1" d="M345.64-229.7c1.78,1.29,4.1,2.8,5.41,2.96c2.35,0.29,14.64,2.67,17.95,4.68
					c3.31,2.01,25.97,6.51,28.93,6.85c2.96,0.34,16.62,0.81,18.86,1.75c0.3,0.13,0.58,0.23,0.85,0.31c0.32,0.1,0.65-0.11,0.7-0.44
					c0.07-0.49,0.13-0.9,0.2-1.21c0.7-3.18-12.49-3.56-17.83-3.16c-5.34,0.39-13.81-5.25-21.51-8.56c-7.7-3.31-12.4-2.37-18.64-1.93
					c-6.24,0.44-7.82-5.07-11.01-5.73c-1.14-0.24-2.62,1.47-4.05,3.76C345.35-230.18,345.41-229.87,345.64-229.7z"/>
				<path class="st1" d="M418.03-211.34c0.01-0.06-0.03-0.12-0.09-0.13c-1.45-0.32-3.51-0.78-6.24-1.41
					c-6.34-1.47-7.68-0.15-10.76-0.36c-3.09-0.21-21.55-3.1-31.04-6.66c-9.5-3.56-8.91-2.13-14.56-3.81
					c-4.74-1.41-7.61-2.65-10.94-4.3c-0.12-0.06-0.27-0.01-0.33,0.1c-0.56,1.05-1.09,2.11-1.55,3.1c-0.07,0.15,0.02,0.31,0.18,0.34
					c3.03,0.57,14.9,2.82,19.06,4.25c7.65,2.61,23.8,8.2,31.21,9.69c6.56,1.31,24.46,2.62,24.46,2.62s-0.53,1.37-1.09,2.62
					c-0.41,0.93-0.85,1.81-1.13,2.01c-0.65,0.47-4.75,1.13-11.48-1.61c-2.86-1.17-5.93-2.02-8.27-2.29
					c-2.41-0.27-13.12,0.28-22.21-3.15c-4.74-1.79-5.45-4.8-17.5-7.3c-11.58-2.4-13.75-3.65-14.17-4.21
					c-0.02-0.02-0.03-0.04-0.04-0.07c-0.07-0.13-0.11-0.26-0.15-0.4c-0.01,0.06-0.06,0.13-0.08,0.18c-0.03,0.07-0.06,0.14-0.09,0.2
					c-0.69,1.62-0.75,2.17-0.45,2.69c0.3,0.52,2.16,1.78,14.21,4.28c12.05,2.5,12.76,5.52,17.5,7.3c9.09,3.43,19.81,2.88,22.21,3.15
					c2.34,0.26,5.4,1.12,8.27,2.29c6.73,2.74,10.83,2.09,11.48,1.61c0.65-0.47,2.19-4.62,2.19-4.62
					C417.35-207.12,417.75-209.41,418.03-211.34z"/>
			</g>
			<g>
				<path class="st1" d="M488.97-250.19c1.79,0.55,2.16,2.03,1.05,3.09c-11.82,11.37-23.64,22.73-35.45,34.1
					c-7.32,7.04-14.63,14.08-21.96,21.1c-0.27,0.26-0.54,0.88-1.04,0.41c-0.53-0.5,0.14-0.76,0.39-1.02
					c8.19-8.38,16.39-16.74,24.59-25.11c9.24-9.44,18.48-18.88,27.72-28.32c1.21-1.24,2.41-2.5,3.66-3.7
					C488.25-249.95,488.75-250.08,488.97-250.19z"/>
				<path class="st1" d="M472.28-254.38c0.37,0.19,0.91,0.39,1.33,0.72c0.53,0.42,0.48,0.99,0.18,1.57
					c-1.38,2.7-2.74,5.42-4.11,8.12c-5.19,10.23-10.38,20.45-15.57,30.68c-5.52,10.87-11.03,21.74-16.55,32.62
					c-0.1,0.19-0.18,0.41-0.33,0.55c-0.09,0.09-0.34,0.15-0.44,0.09c-0.14-0.08-0.29-0.28-0.28-0.43c0-0.2,0.14-0.4,0.23-0.6
					c10.7-22.73,21.39-45.45,32.09-68.18c0.69-1.46,1.38-2.92,2.06-4.38C471.13-254.16,471.54-254.42,472.28-254.38z"/>
			</g>
			<path class="st1" d="M495.63-143.9l-1.21-0.5c1.09-12.53-5.95-24.88-18.17-29.94c-12.22-5.06-25.93-1.31-34.02,8.31l-1.21-0.5
				c-1.57-0.65-3.37,0.1-4.02,1.67l-4.47,10.79c-0.65,1.57,0.1,3.37,1.67,4.02l1.21,0.5c-1.09,12.53,5.95,24.88,18.17,29.94
				c12.22,5.06,25.93,1.31,34.02-8.31l1.21,0.5c1.57,0.65,3.37-0.1,4.02-1.67l4.47-10.79C497.94-141.45,497.2-143.25,495.63-143.9z
				 M458.38-174.06l30.3,12.56c1.57,2.59,2.72,5.42,3.39,8.37l-42.01-17.41C452.62-172.15,455.44-173.34,458.38-174.06z
				 M434.86-151.67c-0.68-0.28-1-1.06-0.72-1.73l4.47-10.79c0.28-0.68,1.06-1,1.73-0.72l0.75,0.31c-1.41,1.9-2.61,4-3.55,6.28
				s-1.58,4.62-1.93,6.96L434.86-151.67z M471.44-119.9l-30.3-12.56c-1.58-2.59-2.72-5.42-3.4-8.37l42.02,17.41
				C477.2-121.8,474.38-120.61,471.44-119.9z M486.13-128.91c-0.25,0.29-0.5,0.58-0.76,0.85l-48.3-20.02
				c0.01-0.38,0.04-0.76,0.07-1.14c0.05-0.61,0.12-1.22,0.21-1.83c0.18-1.19,0.43-2.38,0.77-3.56l24.15,10.01l2.46-5.94
				l-24.15-10.01c0.6-1.07,1.26-2.1,1.98-3.06c0.37-0.49,0.75-0.97,1.15-1.44c0.25-0.29,0.5-0.58,0.76-0.85l48.3,20.02
				c-0.01,0.38-0.04,0.76-0.07,1.14c-0.05,0.61-0.12,1.22-0.21,1.83c-0.18,1.19-0.43,2.38-0.77,3.56l-24.15-10.01l-2.46,5.94
				l24.15,10.01c-0.6,1.07-1.26,2.1-1.98,3.06C486.91-129.85,486.52-129.37,486.13-128.91z M491.2-129.76
				c-0.28,0.68-1.06,1-1.73,0.72l-0.75-0.31c1.41-1.9,2.61-4,3.55-6.28c0.95-2.28,1.58-4.62,1.93-6.96l0.75,0.31
				c0.68,0.28,1,1.06,0.72,1.73L491.2-129.76z"/>
		</g>
		<g>
			<path class="st1" d="M154.39-66.62c4.69-4.21,9.39-6.77,15.33-4.13c0.14,0.06,0.17,0.25,0.06,0.35
				c-3.44,2.94-17.02,7.2-13.98,28.8c0.08,0.58,0.84,0.74,1.16,0.25c9.57-14.91,25.16-8.98,29.29-19.3
				c0.06-0.15,0.27-0.18,0.36-0.05c2.83,4.18,0.09,9.74-1.43,12.23c-0.3,0.48,0.15,1.08,0.7,0.94c10.8-2.9,18.33-12.26,14.11-21.11
				c-0.94-1.96-2.53-4.31-4.49-6.74c-0.2-0.25-0.59-0.21-0.74,0.07c-3.61,6.43-7.98,11.12-20.34,13.96
				c-0.53,0.12-0.91-0.51-0.55-0.91c5.38-6.07,6.56-8.81,5.17-12.76c-0.88-2.51-3.85-4.31-6.48-4.09c-0.48,0.04-0.76-0.53-0.45-0.9
				c2.67-3.26,5.62-6.88,9.5-7.48c0.4-0.06,0.52-0.59,0.18-0.82c-1-0.67-1.96-1.23-2.84-1.65c-11.05-5.24-18.77,7.54-25.56,22.63
				C153.11-66.72,153.88-66.16,154.39-66.62z"/>
			<path class="st1" d="M333.57-127.42c-0.29,6.3-1.76,11.44-7.82,13.81c-0.14,0.05-0.3-0.05-0.29-0.2
				c0.32-4.51,6.82-17.18-10.7-30.18c-0.47-0.35-1.12,0.08-0.99,0.65c3.9,17.28-11.26,24.23-6.82,34.4
				c0.07,0.15-0.06,0.32-0.22,0.29c-4.96-0.92-7-6.77-7.71-9.61c-0.14-0.55-0.88-0.65-1.16-0.16c-5.51,9.73-4.14,21.66,5.14,24.87
				c2.05,0.71,4.85,1.23,7.95,1.53c0.32,0.03,0.56-0.27,0.47-0.57c-2.04-7.08-2.31-13.49,4.34-24.28c0.28-0.46,1-0.29,1.03,0.25
				c0.54,8.09,1.67,10.86,5.46,12.64c2.41,1.13,5.77,0.28,7.46-1.74c0.31-0.37,0.91-0.16,0.96,0.31c0.45,4.19,0.95,8.83-1.34,12.02
				c-0.24,0.33,0.06,0.78,0.46,0.7c1.18-0.24,2.25-0.53,3.16-0.87c11.49-4.19,7.81-18.66,1.82-34.09
				C334.54-128.26,333.61-128.1,333.57-127.42z"/>
			<g>
				<path class="st1" d="M143.32-139.7c1.78,1.29,4.1,2.8,5.41,2.96c2.35,0.29,14.64,2.67,17.95,4.68
					c3.31,2.01,25.97,6.51,28.93,6.85c2.96,0.34,16.62,0.81,18.86,1.75c0.3,0.13,0.58,0.23,0.85,0.31c0.32,0.1,0.65-0.11,0.7-0.44
					c0.07-0.49,0.13-0.9,0.2-1.21c0.7-3.18-12.49-3.56-17.83-3.16c-5.34,0.39-13.81-5.25-21.51-8.56c-7.7-3.31-12.4-2.37-18.64-1.93
					c-6.24,0.44-7.82-5.07-11.01-5.73c-1.14-0.24-2.62,1.47-4.05,3.76C143.03-140.18,143.09-139.87,143.32-139.7z"/>
				<path class="st1" d="M215.71-121.34c0.01-0.06-0.03-0.12-0.09-0.13c-1.45-0.32-3.51-0.78-6.24-1.41
					c-6.34-1.47-7.68-0.15-10.76-0.36c-3.09-0.21-21.55-3.1-31.04-6.66c-9.5-3.56-8.91-2.13-14.56-3.81
					c-4.74-1.41-7.61-2.65-10.94-4.3c-0.12-0.06-0.27-0.01-0.33,0.1c-0.56,1.05-1.09,2.11-1.55,3.1c-0.07,0.15,0.02,0.31,0.18,0.34
					c3.03,0.57,14.9,2.82,19.06,4.25c7.65,2.61,23.8,8.2,31.21,9.69c6.56,1.31,24.46,2.62,24.46,2.62s-0.53,1.37-1.09,2.62
					c-0.41,0.93-0.85,1.81-1.13,2.01c-0.65,0.47-4.75,1.13-11.48-1.61c-2.86-1.17-5.93-2.02-8.27-2.29
					c-2.41-0.27-13.12,0.28-22.21-3.15c-4.74-1.79-5.45-4.8-17.5-7.3c-11.58-2.4-13.75-3.65-14.17-4.21
					c-0.02-0.02-0.03-0.04-0.04-0.07c-0.07-0.13-0.11-0.26-0.15-0.4c-0.01,0.06-0.06,0.13-0.08,0.18c-0.03,0.07-0.06,0.14-0.09,0.2
					c-0.69,1.62-0.75,2.17-0.45,2.69c0.3,0.52,2.16,1.78,14.21,4.28c12.05,2.5,12.76,5.52,17.5,7.3c9.09,3.43,19.81,2.88,22.21,3.15
					c2.34,0.26,5.4,1.12,8.27,2.29c6.73,2.74,10.83,2.09,11.48,1.61c0.65-0.47,2.19-4.62,2.19-4.62
					C215.03-117.12,215.43-119.41,215.71-121.34z"/>
			</g>
			<g>
				<path class="st1" d="M286.65-160.19c1.79,0.55,2.16,2.03,1.05,3.09c-11.82,11.37-23.64,22.73-35.45,34.1
					c-7.32,7.04-14.63,14.08-21.96,21.1c-0.27,0.26-0.54,0.88-1.04,0.41c-0.53-0.5,0.14-0.76,0.39-1.02
					c8.19-8.38,16.39-16.74,24.59-25.11c9.24-9.44,18.48-18.88,27.72-28.32c1.21-1.24,2.41-2.5,3.66-3.7
					C285.93-159.95,286.43-160.08,286.65-160.19z"/>
				<path class="st1" d="M269.96-164.38c0.37,0.19,0.91,0.39,1.33,0.72c0.53,0.42,0.48,0.99,0.18,1.57
					c-1.38,2.7-2.74,5.42-4.11,8.12c-5.19,10.23-10.38,20.45-15.57,30.68c-5.52,10.87-11.03,21.74-16.55,32.62
					c-0.1,0.19-0.18,0.41-0.33,0.55c-0.09,0.09-0.34,0.15-0.44,0.09c-0.14-0.08-0.29-0.28-0.28-0.43c0-0.2,0.14-0.4,0.23-0.6
					c10.7-22.73,21.39-45.45,32.09-68.18c0.69-1.46,1.38-2.92,2.06-4.38C268.81-164.16,269.22-164.42,269.96-164.38z"/>
			</g>
			<path class="st1" d="M293.31-53.9l-1.21-0.5c1.09-12.53-5.95-24.88-18.17-29.94c-12.22-5.06-25.93-1.31-34.02,8.31l-1.21-0.5
				c-1.57-0.65-3.37,0.1-4.02,1.67l-4.47,10.79c-0.65,1.57,0.1,3.37,1.67,4.02l1.21,0.5c-1.09,12.53,5.95,24.88,18.17,29.94
				c12.22,5.06,25.93,1.31,34.02-8.31l1.21,0.5c1.57,0.65,3.37-0.1,4.02-1.67l4.47-10.79C295.62-51.45,294.88-53.25,293.31-53.9z
				 M256.06-84.06l30.3,12.56c1.57,2.59,2.72,5.42,3.39,8.37l-42.01-17.41C250.3-82.15,253.12-83.34,256.06-84.06z M232.54-61.67
				c-0.68-0.28-1-1.06-0.72-1.73l4.47-10.79c0.28-0.68,1.06-1,1.73-0.72l0.75,0.31c-1.41,1.9-2.61,4-3.55,6.28
				c-0.95,2.28-1.58,4.62-1.93,6.96L232.54-61.67z M269.12-29.9l-30.3-12.56c-1.58-2.59-2.72-5.42-3.4-8.37l42.02,17.41
				C274.88-31.8,272.06-30.61,269.12-29.9z M283.81-38.91c-0.25,0.29-0.5,0.58-0.76,0.85l-48.3-20.02c0.01-0.38,0.04-0.76,0.07-1.14
				c0.05-0.61,0.12-1.22,0.21-1.83c0.18-1.19,0.43-2.38,0.77-3.56l24.15,10.01l2.46-5.94l-24.15-10.01c0.6-1.07,1.26-2.1,1.98-3.06
				c0.37-0.49,0.75-0.97,1.15-1.44c0.25-0.29,0.5-0.58,0.76-0.85l48.3,20.02c-0.01,0.38-0.04,0.76-0.07,1.14
				c-0.05,0.61-0.12,1.22-0.21,1.83c-0.18,1.19-0.43,2.38-0.77,3.56l-24.15-10.01l-2.46,5.94l24.15,10.01
				c-0.6,1.07-1.26,2.1-1.98,3.06C284.59-39.85,284.2-39.37,283.81-38.91z M288.88-39.76c-0.28,0.68-1.06,1-1.73,0.72l-0.75-0.31
				c1.41-1.9,2.61-4,3.55-6.28c0.95-2.28,1.58-4.62,1.93-6.96l0.75,0.31c0.68,0.28,1,1.06,0.72,1.73L288.88-39.76z"/>
		</g>
		<g>
			<g>
				<path class="st2" d="M57.9-94.78c0-0.01,0-0.01,0-0.02"/>
				<g>
					<path class="st3" d="M29.4-98.77c-15.7,0-28.44,1.77-28.49,3.95c0,0.01,0,0.02,0,0.04c0.08,2.18,12.8,3.94,28.49,3.94
						c15.69,0,28.41-1.76,28.49-3.94c0-0.01,0-0.02,0-0.04C57.84-97.01,45.11-98.77,29.4-98.77z"/>
					<path class="st4" d="M57.9-94.78c-0.08,2.18-12.81,3.94-28.49,3.94C13.72-90.84,1-92.6,0.91-94.77
						c0.06,7.99,7.48,14.81,17.94,17.61c0.66,0.18,1.12,0.78,1.12,1.47l0,2.22c0,0.4,0.32,0.73,0.73,0.73l17.39,0
						c0.4,0,0.73-0.32,0.73-0.73l0-2.22c0-0.69,0.46-1.29,1.12-1.47C50.42-79.96,57.83-86.79,57.9-94.78z"/>
				</g>
				<path class="st5" d="M44.26-95.72c-0.73-2.29-0.65-1.85,0.65-6.41c1.3-4.57-0.03-4.8-0.56-8.16"/>
			</g>
			<path class="st1" d="M131.25-217.42c-0.29,6.3-1.76,11.44-7.82,13.81c-0.14,0.05-0.3-0.05-0.29-0.2
				c0.32-4.51,6.82-17.18-10.7-30.18c-0.47-0.35-1.12,0.08-0.99,0.65c3.9,17.28-11.26,24.23-6.82,34.4
				c0.07,0.15-0.06,0.32-0.22,0.29c-4.96-0.92-7-6.77-7.71-9.61c-0.14-0.55-0.88-0.65-1.16-0.16c-5.51,9.73-4.14,21.66,5.14,24.87
				c2.05,0.71,4.85,1.23,7.95,1.53c0.32,0.03,0.56-0.27,0.47-0.57c-2.04-7.08-2.31-13.49,4.34-24.28c0.28-0.46,1-0.29,1.03,0.25
				c0.54,8.09,1.67,10.86,5.46,12.64c2.41,1.13,5.77,0.28,7.46-1.74c0.31-0.37,0.91-0.16,0.96,0.31c0.45,4.19,0.95,8.83-1.34,12.02
				c-0.24,0.33,0.06,0.78,0.46,0.7c1.18-0.24,2.25-0.53,3.16-0.87c11.49-4.19,7.81-18.66,1.82-34.09
				C132.22-218.26,131.29-218.1,131.25-217.42z"/>
			<path class="st1" d="M132.84-106.61c-0.73,6.94-9.98,12.07-8.42,18.28c1.23,4.9,6.29,15.25,7.96,21.24
				c0.39,1.41-0.47,2.86-1.89,3.19l-8.66,2.03c-1.33,0.31-2.67-0.47-3.06-1.77c-2.77-9.29-1.19-16.84-6.41-21.86
				c-9.89-9.5-16.14-17.76-14.58-27.61c0.76-4.77,4.07-5.94,3.88-10.49c-0.19-4.55-1.92-9.13,3.34-11.03
				c5.26-1.9,12.14-1.37,13.29,6.23c1.15,7.59,7.41,3.42,8,8.48C126.88-114.79,133.57-113.55,132.84-106.61z M124.96-112.43
				c-1.48,17.42-6.16,15.64-6.8,23.52c-1.52-3.57-8.35-31.22-9.56-40.02c2.09,21.1,3,25.63,5.99,35.04
				c-1.63-4.37-2.67-6.07-9.08-13.34c8.77,11.95,15.98,34.33,17.32,39.7c0.05,0.19,0.21,0.33,0.41,0.34l1.97,0.14
				c0.33,0.02,0.58-0.29,0.47-0.61c-0.99-2.89-4.91-14.53-5.63-18.4C119.22-90.48,126.08-102.22,124.96-112.43z"/>
			<g>
				<path class="st1" d="M84.33-250.19c1.79,0.55,2.16,2.03,1.05,3.09c-11.82,11.37-23.64,22.73-35.45,34.1
					c-7.32,7.04-14.63,14.08-21.96,21.1c-0.27,0.26-0.54,0.88-1.04,0.41c-0.53-0.5,0.14-0.76,0.39-1.02
					c8.19-8.38,16.39-16.74,24.59-25.11c9.24-9.44,18.48-18.88,27.72-28.32c1.21-1.24,2.41-2.5,3.66-3.7
					C83.61-249.95,84.11-250.08,84.33-250.19z"/>
				<path class="st1" d="M67.64-254.38c0.37,0.19,0.91,0.39,1.33,0.72c0.53,0.42,0.48,0.99,0.18,1.57c-1.38,2.7-2.74,5.42-4.11,8.12
					c-5.19,10.23-10.38,20.45-15.57,30.68c-5.52,10.87-11.03,21.74-16.55,32.62c-0.1,0.19-0.18,0.41-0.33,0.55
					c-0.09,0.09-0.34,0.15-0.44,0.09c-0.14-0.08-0.29-0.28-0.28-0.43c0-0.2,0.14-0.4,0.23-0.6c10.7-22.73,21.39-45.45,32.09-68.18
					c0.69-1.46,1.38-2.92,2.06-4.38C66.49-254.16,66.9-254.42,67.64-254.38z"/>
			</g>
			<path class="st1" d="M90.99-143.9l-1.21-0.5c1.09-12.53-5.95-24.88-18.17-29.94c-12.22-5.06-25.93-1.31-34.02,8.31l-1.21-0.5
				c-1.57-0.65-3.37,0.1-4.02,1.67l-4.47,10.79c-0.65,1.57,0.1,3.37,1.67,4.02l1.21,0.5c-1.09,12.53,5.95,24.88,18.17,29.94
				c12.22,5.06,25.93,1.31,34.02-8.31l1.21,0.5c1.57,0.65,3.37-0.1,4.02-1.67l4.47-10.79C93.3-141.45,92.56-143.25,90.99-143.9z
				 M53.74-174.06l30.3,12.56c1.57,2.59,2.72,5.42,3.39,8.37l-42.01-17.41C47.98-172.15,50.8-173.34,53.74-174.06z M30.22-151.67
				c-0.68-0.28-1-1.06-0.72-1.73l4.47-10.79c0.28-0.68,1.06-1,1.73-0.72l0.75,0.31c-1.41,1.9-2.61,4-3.55,6.28
				c-0.95,2.28-1.58,4.62-1.93,6.96L30.22-151.67z M66.8-119.9l-30.3-12.56c-1.58-2.59-2.72-5.42-3.4-8.37l42.02,17.41
				C72.56-121.8,69.74-120.61,66.8-119.9z M81.49-128.91c-0.25,0.29-0.5,0.58-0.76,0.85l-48.3-20.02c0.01-0.38,0.04-0.76,0.07-1.14
				c0.05-0.61,0.12-1.22,0.21-1.83c0.18-1.19,0.43-2.38,0.77-3.56l24.15,10.01l2.46-5.94l-24.15-10.01c0.6-1.07,1.26-2.1,1.98-3.06
				c0.37-0.49,0.75-0.97,1.15-1.44c0.25-0.29,0.5-0.58,0.76-0.85l48.3,20.02c-0.01,0.38-0.04,0.76-0.07,1.14
				c-0.05,0.61-0.12,1.22-0.21,1.83c-0.18,1.19-0.43,2.38-0.77,3.56l-24.15-10.01l-2.46,5.94l24.15,10.01
				c-0.6,1.07-1.26,2.1-1.98,3.06C82.27-129.85,81.88-129.37,81.49-128.91z M86.56-129.76c-0.28,0.68-1.06,1-1.73,0.72l-0.75-0.31
				c1.41-1.9,2.61-4,3.55-6.28c0.95-2.28,1.58-4.62,1.93-6.96l0.75,0.31c0.68,0.28,1,1.06,0.72,1.73L86.56-129.76z"/>
		</g>
		<g>
			<g>
				<g>
					<path class="st2" d="M405.55-274.79c0,0.01,0,0.01,0,0.02c0-0.01,0-0.02,0-0.04C405.55-274.8,405.55-274.8,405.55-274.79z"/>
					<path class="st3" d="M434.04-278.77c-15.7,0-28.44,1.77-28.49,3.95c0,0.01,0,0.02,0,0.04c0.08,2.18,12.8,3.94,28.49,3.94
						c15.69,0,28.41-1.76,28.49-3.94c0-0.01,0-0.02,0-0.04C462.48-277.01,449.75-278.77,434.04-278.77z"/>
					<path class="st4" d="M462.54-274.78c-0.08,2.18-12.81,3.94-28.49,3.94c-15.69,0-28.41-1.76-28.49-3.94
						c0.06,7.99,7.48,14.81,17.94,17.61c0.66,0.18,1.12,0.78,1.12,1.47l0,2.22c0,0.4,0.32,0.73,0.73,0.73l17.39,0
						c0.4,0,0.73-0.32,0.73-0.73l0-2.22c0-0.69,0.46-1.29,1.12-1.47C455.06-259.96,462.47-266.79,462.54-274.78z"/>
				</g>
				<path class="st2" d="M424.62-256.89"/>
				<path class="st5" d="M418.02-275.72c-0.73-2.29-0.65-1.85,0.65-6.41c1.3-4.57-0.03-4.8-0.56-8.16"/>
				<path class="st5" d="M433.3-275.72c-0.49-1.53-0.43-1.23,0.43-4.27c0.87-3.04-0.02-3.19-0.37-5.43"/>
			</g>
			<g>
				<path class="st1" d="M371.47-289.39c7.09,10.72,14.09,21.28,21.17,31.97c0.35,0.52,0.2,1.23-0.32,1.57l-3.81,2.52
					c-0.51,0.34-1.22,0.2-1.56-0.32c-7.05-10.66-14.05-21.23-21.17-31.97c-0.35-0.52-0.2-1.23,0.32-1.57l3.82-2.52
					C370.42-290.06,371.13-289.91,371.47-289.39z"/>
				<path class="st1" d="M349.15-275.98c1.27-0.84,2.51-1.66,3.8-2.52c0.52-0.34,1.23-0.2,1.57,0.32
					c7.08,10.69,14.09,21.28,21.16,31.97c0.35,0.52,0.2,1.23-0.32,1.57l-3.81,2.51c-0.51,0.34-1.22,0.19-1.56-0.33
					c-7.05-10.65-14.04-21.21-21.16-31.96C348.49-274.93,348.63-275.64,349.15-275.98z"/>
				<path class="st1" d="M357.75-281.72l3.81-2.52c0.52-0.34,1.22-0.19,1.57,0.33c2.99,4.52,5.91,8.93,8.89,13.43
					c0.33,0.51,0.21,1.19-0.28,1.54c-1.22,0.89-2.43,1.76-3.69,2.68c-0.52,0.38-1.25,0.24-1.61-0.29c-2.99-4.52-5.95-8.98-9.01-13.6
					C357.09-280.67,357.23-281.38,357.75-281.72z"/>
				<path class="st1" d="M369.98-263.15l3.7-2.69c0.51-0.37,1.25-0.24,1.6,0.3c3,4.54,5.96,9.01,9.01,13.6
					c0.35,0.52,0.2,1.23-0.32,1.57l-3.82,2.52c-0.5,0.33-1.21,0.19-1.55-0.33c-2.95-4.45-5.87-8.85-8.9-13.43
					C369.37-262.11,369.49-262.8,369.98-263.15z"/>
			</g>
			<path class="st1" d="M356.71-336.62c4.69-4.21,9.39-6.77,15.33-4.13c0.14,0.06,0.17,0.25,0.06,0.35
				c-3.44,2.94-17.02,7.2-13.98,28.8c0.08,0.58,0.84,0.74,1.16,0.25c9.57-14.91,25.16-8.98,29.29-19.3
				c0.06-0.15,0.27-0.18,0.36-0.05c2.83,4.18,0.09,9.74-1.43,12.23c-0.3,0.48,0.15,1.08,0.7,0.94c10.8-2.9,18.33-12.26,14.11-21.11
				c-0.94-1.96-2.53-4.31-4.49-6.74c-0.2-0.25-0.59-0.21-0.74,0.07c-3.61,6.43-7.98,11.12-20.34,13.96
				c-0.53,0.12-0.91-0.51-0.55-0.91c5.38-6.07,6.56-8.81,5.17-12.76c-0.88-2.51-3.85-4.31-6.48-4.09c-0.48,0.04-0.76-0.53-0.45-0.9
				c2.67-3.26,5.62-6.88,9.5-7.48c0.4-0.06,0.52-0.59,0.18-0.82c-1-0.67-1.96-1.23-2.84-1.65c-11.05-5.24-18.77,7.54-25.56,22.63
				C355.43-336.72,356.2-336.16,356.71-336.62z"/>
			<g>
				<path class="st1" d="M345.64-409.7c1.78,1.29,4.1,2.8,5.41,2.96c2.35,0.29,14.64,2.67,17.95,4.68
					c3.31,2.01,25.97,6.51,28.93,6.85c2.96,0.34,16.62,0.81,18.86,1.75c0.3,0.13,0.58,0.23,0.85,0.31c0.32,0.1,0.65-0.11,0.7-0.44
					c0.07-0.49,0.13-0.9,0.2-1.21c0.7-3.18-12.49-3.56-17.83-3.16c-5.34,0.39-13.81-5.25-21.51-8.56c-7.7-3.31-12.4-2.37-18.64-1.93
					c-6.24,0.44-7.82-5.07-11.01-5.73c-1.14-0.24-2.62,1.47-4.05,3.76C345.35-410.18,345.41-409.87,345.64-409.7z"/>
				<path class="st1" d="M418.03-391.34c0.01-0.06-0.03-0.12-0.09-0.13c-1.45-0.32-3.51-0.78-6.24-1.41
					c-6.34-1.47-7.68-0.15-10.76-0.36c-3.09-0.21-21.55-3.1-31.04-6.66c-9.5-3.56-8.91-2.13-14.56-3.81
					c-4.74-1.41-7.61-2.65-10.94-4.3c-0.12-0.06-0.27-0.01-0.33,0.1c-0.56,1.05-1.09,2.11-1.55,3.1c-0.07,0.15,0.02,0.31,0.18,0.34
					c3.03,0.57,14.9,2.82,19.06,4.25c7.65,2.61,23.8,8.2,31.21,9.69c6.56,1.31,24.46,2.62,24.46,2.62s-0.53,1.37-1.09,2.62
					c-0.41,0.93-0.85,1.81-1.13,2.01c-0.65,0.47-4.75,1.13-11.48-1.61c-2.86-1.17-5.93-2.02-8.27-2.29
					c-2.41-0.27-13.12,0.28-22.21-3.15c-4.74-1.79-5.45-4.8-17.5-7.3c-11.58-2.4-13.75-3.65-14.17-4.21
					c-0.02-0.02-0.03-0.04-0.04-0.07c-0.07-0.13-0.11-0.26-0.15-0.4c-0.01,0.06-0.06,0.13-0.08,0.18c-0.03,0.07-0.06,0.14-0.09,0.2
					c-0.69,1.62-0.75,2.17-0.45,2.69s2.16,1.78,14.21,4.28c12.05,2.5,12.76,5.52,17.5,7.3c9.09,3.43,19.81,2.88,22.21,3.15
					c2.34,0.26,5.4,1.12,8.27,2.29c6.73,2.74,10.83,2.09,11.48,1.61c0.65-0.47,2.19-4.62,2.19-4.62
					C417.35-387.12,417.75-389.41,418.03-391.34z"/>
			</g>
			<g>
				<path class="st1" d="M488.97-430.19c1.79,0.55,2.16,2.03,1.05,3.09c-11.82,11.37-23.64,22.73-35.45,34.1
					c-7.32,7.04-14.63,14.08-21.96,21.1c-0.27,0.26-0.54,0.88-1.04,0.41c-0.53-0.5,0.14-0.76,0.39-1.02
					c8.19-8.38,16.39-16.74,24.59-25.11c9.24-9.44,18.48-18.88,27.72-28.32c1.21-1.24,2.41-2.5,3.66-3.7
					C488.25-429.95,488.75-430.08,488.97-430.19z"/>
				<path class="st1" d="M472.28-434.38c0.37,0.19,0.91,0.39,1.33,0.72c0.53,0.42,0.48,0.99,0.18,1.57
					c-1.38,2.7-2.74,5.42-4.11,8.12c-5.19,10.23-10.38,20.45-15.57,30.68c-5.52,10.87-11.03,21.74-16.55,32.62
					c-0.1,0.19-0.18,0.41-0.33,0.55c-0.09,0.09-0.34,0.15-0.44,0.09c-0.14-0.08-0.29-0.28-0.28-0.43c0-0.2,0.14-0.4,0.23-0.6
					c10.7-22.73,21.39-45.45,32.09-68.18c0.69-1.46,1.38-2.92,2.06-4.38C471.13-434.16,471.54-434.42,472.28-434.38z"/>
			</g>
			<path class="st1" d="M495.63-323.9l-1.21-0.5c1.09-12.53-5.95-24.88-18.17-29.94c-12.22-5.06-25.93-1.31-34.02,8.31l-1.21-0.5
				c-1.57-0.65-3.37,0.1-4.02,1.67l-4.47,10.79c-0.65,1.57,0.1,3.37,1.67,4.02l1.21,0.5c-1.09,12.53,5.95,24.88,18.17,29.94
				c12.22,5.06,25.93,1.31,34.02-8.31l1.21,0.5c1.57,0.65,3.37-0.1,4.02-1.67l4.47-10.79C497.94-321.45,497.2-323.25,495.63-323.9z
				 M458.38-354.06l30.3,12.56c1.57,2.59,2.72,5.42,3.39,8.37l-42.01-17.41C452.62-352.15,455.44-353.34,458.38-354.06z
				 M434.86-331.67c-0.68-0.28-1-1.06-0.72-1.73l4.47-10.79c0.28-0.68,1.06-1,1.73-0.72l0.75,0.31c-1.41,1.9-2.61,4-3.55,6.28
				c-0.95,2.28-1.58,4.62-1.93,6.96L434.86-331.67z M471.44-299.9l-30.3-12.56c-1.58-2.59-2.72-5.42-3.4-8.37l42.02,17.41
				C477.2-301.8,474.38-300.61,471.44-299.9z M486.13-308.91c-0.25,0.29-0.5,0.58-0.76,0.85l-48.3-20.02
				c0.01-0.38,0.04-0.76,0.07-1.14c0.05-0.61,0.12-1.22,0.21-1.83c0.18-1.19,0.43-2.38,0.77-3.56l24.15,10.01l2.46-5.94
				l-24.15-10.01c0.6-1.07,1.26-2.1,1.98-3.06c0.37-0.49,0.75-0.97,1.15-1.44c0.25-0.29,0.5-0.58,0.76-0.85l48.3,20.02
				c-0.01,0.38-0.04,0.76-0.07,1.14c-0.05,0.61-0.12,1.22-0.21,1.83c-0.18,1.19-0.43,2.38-0.77,3.56l-24.15-10.01l-2.46,5.94
				l24.15,10.01c-0.6,1.07-1.26,2.1-1.98,3.06C486.91-309.85,486.52-309.37,486.13-308.91z M491.2-309.76
				c-0.28,0.68-1.06,1-1.73,0.72l-0.75-0.31c1.41-1.9,2.61-4,3.55-6.28s1.58-4.62,1.93-6.96l0.75,0.31c0.68,0.28,1,1.06,0.72,1.73
				L491.2-309.76z"/>
		</g>
		<g>
			<g>
				<path class="st2" d="M260.22-184.78c0-0.01,0-0.01,0-0.02"/>
				<g>
					<path class="st2" d="M203.23-184.79c0,0.01,0,0.01,0,0.02c0-0.01,0-0.02,0-0.04C203.23-184.8,203.23-184.8,203.23-184.79z"/>
					<path class="st3" d="M231.72-188.77c-15.7,0-28.44,1.77-28.49,3.95c0,0.01,0,0.02,0,0.04c0.08,2.18,12.8,3.94,28.49,3.94
						c15.69,0,28.41-1.76,28.49-3.94c0-0.01,0-0.02,0-0.04C260.16-187.01,247.43-188.77,231.72-188.77z"/>
					<path class="st4" d="M260.22-184.78c-0.08,2.18-12.81,3.94-28.49,3.94c-15.69,0-28.41-1.76-28.49-3.94
						c0.06,7.99,7.48,14.81,17.94,17.61c0.66,0.18,1.12,0.78,1.12,1.47l0,2.22c0,0.4,0.32,0.73,0.73,0.73l17.39,0
						c0.4,0,0.73-0.32,0.73-0.73l0-2.22c0-0.69,0.46-1.29,1.12-1.47C252.74-169.96,260.15-176.79,260.22-184.78z"/>
				</g>
				<path class="st2" d="M222.3-166.89"/>
				<path class="st5" d="M215.7-185.72c-0.73-2.29-0.65-1.85,0.65-6.41s-0.03-4.8-0.56-8.16"/>
				<path class="st5" d="M230.98-185.72c-0.49-1.53-0.43-1.23,0.43-4.27c0.87-3.04-0.02-3.19-0.37-5.43"/>
				<path class="st5" d="M246.58-185.72c-0.73-2.29-0.65-1.85,0.65-6.41s-0.03-4.8-0.56-8.16"/>
			</g>
			<g>
				<path class="st1" d="M169.15-199.39c7.09,10.72,14.09,21.28,21.17,31.97c0.35,0.52,0.2,1.23-0.32,1.57l-3.81,2.52
					c-0.51,0.34-1.22,0.2-1.56-0.32c-7.05-10.66-14.05-21.23-21.17-31.97c-0.35-0.52-0.2-1.23,0.32-1.57l3.82-2.52
					C168.1-200.06,168.81-199.91,169.15-199.39z"/>
				<path class="st1" d="M146.83-185.98c1.27-0.84,2.51-1.66,3.8-2.52c0.52-0.34,1.23-0.2,1.57,0.32
					c7.08,10.69,14.09,21.28,21.16,31.97c0.35,0.52,0.2,1.23-0.32,1.57l-3.81,2.51c-0.51,0.34-1.22,0.19-1.56-0.33
					c-7.05-10.65-14.04-21.21-21.16-31.96C146.17-184.93,146.31-185.64,146.83-185.98z"/>
				<path class="st1" d="M155.43-191.72l3.81-2.52c0.52-0.34,1.22-0.19,1.57,0.33c2.99,4.52,5.91,8.93,8.89,13.43
					c0.33,0.51,0.21,1.19-0.28,1.54c-1.22,0.89-2.43,1.76-3.69,2.68c-0.52,0.38-1.25,0.24-1.61-0.29c-2.99-4.52-5.95-8.98-9.01-13.6
					C154.77-190.67,154.91-191.38,155.43-191.72z"/>
				<path class="st1" d="M167.66-173.15l3.7-2.69c0.51-0.37,1.25-0.24,1.6,0.3c3,4.54,5.96,9.01,9.01,13.6
					c0.35,0.52,0.2,1.23-0.32,1.57l-3.82,2.52c-0.5,0.33-1.21,0.19-1.55-0.33c-2.95-4.45-5.87-8.85-8.9-13.43
					C167.05-172.11,167.17-172.8,167.66-173.15z"/>
			</g>
			<path class="st1" d="M154.39-246.62c4.69-4.21,9.39-6.77,15.33-4.13c0.14,0.06,0.17,0.25,0.06,0.35
				c-3.44,2.94-17.02,7.2-13.98,28.8c0.08,0.58,0.84,0.74,1.16,0.25c9.57-14.91,25.16-8.98,29.29-19.3
				c0.06-0.15,0.27-0.18,0.36-0.05c2.83,4.18,0.09,9.74-1.43,12.23c-0.3,0.48,0.15,1.08,0.7,0.94c10.8-2.9,18.33-12.26,14.11-21.11
				c-0.94-1.96-2.53-4.31-4.49-6.74c-0.2-0.25-0.59-0.21-0.74,0.07c-3.61,6.43-7.98,11.12-20.34,13.96
				c-0.53,0.12-0.91-0.51-0.55-0.91c5.38-6.07,6.56-8.81,5.17-12.76c-0.88-2.51-3.85-4.31-6.48-4.09c-0.48,0.04-0.76-0.53-0.45-0.9
				c2.67-3.26,5.62-6.88,9.5-7.48c0.4-0.06,0.52-0.59,0.18-0.82c-1-0.67-1.96-1.23-2.84-1.65c-11.05-5.24-18.77,7.54-25.56,22.63
				C153.11-246.72,153.88-246.16,154.39-246.62z"/>
			<path class="st1" d="M333.57-307.42c-0.29,6.3-1.76,11.44-7.82,13.81c-0.14,0.05-0.3-0.05-0.29-0.2
				c0.32-4.51,6.82-17.18-10.7-30.18c-0.47-0.35-1.12,0.08-0.99,0.65c3.9,17.28-11.26,24.23-6.82,34.4
				c0.07,0.15-0.06,0.32-0.22,0.29c-4.96-0.92-7-6.77-7.71-9.61c-0.14-0.55-0.88-0.65-1.16-0.16c-5.51,9.73-4.14,21.66,5.14,24.87
				c2.05,0.71,4.85,1.23,7.95,1.53c0.32,0.03,0.56-0.27,0.47-0.57c-2.04-7.08-2.31-13.49,4.34-24.28c0.28-0.46,1-0.29,1.03,0.25
				c0.54,8.09,1.67,10.86,5.46,12.64c2.41,1.13,5.77,0.28,7.46-1.74c0.31-0.37,0.91-0.16,0.96,0.31c0.45,4.19,0.95,8.83-1.34,12.02
				c-0.24,0.33,0.06,0.78,0.46,0.7c1.18-0.24,2.25-0.53,3.16-0.87c11.49-4.19,7.81-18.66,1.82-34.09
				C334.54-308.26,333.61-308.1,333.57-307.42z"/>
			<path class="st1" d="M335.16-196.61c-0.73,6.94-9.98,12.07-8.42,18.28c1.23,4.9,6.29,15.25,7.96,21.24
				c0.39,1.41-0.47,2.86-1.89,3.19l-8.66,2.03c-1.33,0.31-2.67-0.47-3.06-1.77c-2.77-9.29-1.19-16.84-6.41-21.86
				c-9.89-9.5-16.14-17.76-14.58-27.61c0.76-4.77,4.07-5.94,3.88-10.49c-0.19-4.55-1.92-9.13,3.34-11.03
				c5.26-1.9,12.14-1.37,13.29,6.23c1.15,7.59,7.41,3.42,8,8.48C329.2-204.79,335.89-203.55,335.16-196.61z M327.28-202.43
				c-1.48,17.42-6.16,15.64-6.8,23.52c-1.52-3.57-8.35-31.22-9.56-40.02c2.09,21.1,3,25.63,5.99,35.04
				c-1.63-4.37-2.67-6.07-9.08-13.34c8.77,11.95,15.98,34.33,17.32,39.7c0.05,0.19,0.21,0.33,0.41,0.34l1.97,0.14
				c0.33,0.02,0.58-0.29,0.47-0.61c-0.99-2.89-4.91-14.53-5.63-18.4C321.54-180.48,328.4-192.22,327.28-202.43z"/>
			<g>
				<path class="st1" d="M143.32-319.7c1.78,1.29,4.1,2.8,5.41,2.96c2.35,0.29,14.64,2.67,17.95,4.68
					c3.31,2.01,25.97,6.51,28.93,6.85c2.96,0.34,16.62,0.81,18.86,1.75c0.3,0.13,0.58,0.23,0.85,0.31c0.32,0.1,0.65-0.11,0.7-0.44
					c0.07-0.49,0.13-0.9,0.2-1.21c0.7-3.18-12.49-3.56-17.83-3.16c-5.34,0.39-13.81-5.25-21.51-8.56s-12.4-2.37-18.64-1.93
					c-6.24,0.44-7.82-5.07-11.01-5.73c-1.14-0.24-2.62,1.47-4.05,3.76C143.03-320.18,143.09-319.87,143.32-319.7z"/>
				<path class="st1" d="M215.71-301.34c0.01-0.06-0.03-0.12-0.09-0.13c-1.45-0.32-3.51-0.78-6.24-1.41
					c-6.34-1.47-7.68-0.15-10.76-0.36s-21.55-3.1-31.04-6.66s-8.91-2.13-14.56-3.81c-4.74-1.41-7.61-2.65-10.94-4.3
					c-0.12-0.06-0.27-0.01-0.33,0.1c-0.56,1.05-1.09,2.11-1.55,3.1c-0.07,0.15,0.02,0.31,0.18,0.34c3.03,0.57,14.9,2.82,19.06,4.25
					c7.65,2.61,23.8,8.2,31.21,9.69c6.56,1.31,24.46,2.62,24.46,2.62s-0.53,1.37-1.09,2.62c-0.41,0.93-0.85,1.81-1.13,2.01
					c-0.65,0.47-4.75,1.13-11.48-1.61c-2.86-1.17-5.93-2.02-8.27-2.29c-2.41-0.27-13.12,0.28-22.21-3.15
					c-4.74-1.79-5.45-4.8-17.5-7.3c-11.58-2.4-13.75-3.65-14.17-4.21c-0.02-0.02-0.03-0.04-0.04-0.07c-0.07-0.13-0.11-0.26-0.15-0.4
					c-0.01,0.06-0.06,0.13-0.08,0.18c-0.03,0.07-0.06,0.14-0.09,0.2c-0.69,1.62-0.75,2.17-0.45,2.69c0.3,0.52,2.16,1.78,14.21,4.28
					c12.05,2.5,12.76,5.52,17.5,7.3c9.09,3.43,19.81,2.88,22.21,3.15c2.34,0.26,5.4,1.12,8.27,2.29c6.73,2.74,10.83,2.09,11.48,1.61
					c0.65-0.47,2.19-4.62,2.19-4.62C215.03-297.12,215.43-299.41,215.71-301.34z"/>
			</g>
			<g>
				<path class="st1" d="M286.65-340.19c1.79,0.55,2.16,2.03,1.05,3.09c-11.82,11.37-23.64,22.73-35.45,34.1
					c-7.32,7.04-14.63,14.08-21.96,21.1c-0.27,0.26-0.54,0.88-1.04,0.41c-0.53-0.5,0.14-0.76,0.39-1.02
					c8.19-8.38,16.39-16.74,24.59-25.11c9.24-9.44,18.48-18.88,27.72-28.32c1.21-1.24,2.41-2.5,3.66-3.7
					C285.93-339.95,286.43-340.08,286.65-340.19z"/>
				<path class="st1" d="M269.96-344.38c0.37,0.19,0.91,0.39,1.33,0.72c0.53,0.42,0.48,0.99,0.18,1.57
					c-1.38,2.7-2.74,5.42-4.11,8.12c-5.19,10.23-10.38,20.45-15.57,30.68c-5.52,10.87-11.03,21.74-16.55,32.62
					c-0.1,0.19-0.18,0.41-0.33,0.55c-0.09,0.09-0.34,0.15-0.44,0.09c-0.14-0.08-0.29-0.28-0.28-0.43c0-0.2,0.14-0.4,0.23-0.6
					c10.7-22.73,21.39-45.45,32.09-68.18c0.69-1.46,1.38-2.92,2.06-4.38C268.81-344.16,269.22-344.42,269.96-344.38z"/>
			</g>
			<path class="st1" d="M293.31-233.9l-1.21-0.5c1.09-12.53-5.95-24.88-18.17-29.94c-12.22-5.06-25.93-1.31-34.02,8.31l-1.21-0.5
				c-1.57-0.65-3.37,0.1-4.02,1.67l-4.47,10.79c-0.65,1.57,0.1,3.37,1.67,4.02l1.21,0.5c-1.09,12.53,5.95,24.88,18.17,29.94
				c12.22,5.06,25.93,1.31,34.02-8.31l1.21,0.5c1.57,0.65,3.37-0.1,4.02-1.67l4.47-10.79C295.62-231.45,294.88-233.25,293.31-233.9z
				 M256.06-264.06l30.3,12.56c1.57,2.59,2.72,5.42,3.39,8.37l-42.01-17.41C250.3-262.15,253.12-263.34,256.06-264.06z
				 M232.54-241.67c-0.68-0.28-1-1.06-0.72-1.73l4.47-10.79c0.28-0.68,1.06-1,1.73-0.72l0.75,0.31c-1.41,1.9-2.61,4-3.55,6.28
				s-1.58,4.62-1.93,6.96L232.54-241.67z M269.12-209.9l-30.3-12.56c-1.58-2.59-2.72-5.42-3.4-8.37l42.02,17.41
				C274.88-211.8,272.06-210.61,269.12-209.9z M283.81-218.91c-0.25,0.29-0.5,0.58-0.76,0.85l-48.3-20.02
				c0.01-0.38,0.04-0.76,0.07-1.14c0.05-0.61,0.12-1.22,0.21-1.83c0.18-1.19,0.43-2.38,0.77-3.56l24.15,10.01l2.46-5.94
				l-24.15-10.01c0.6-1.07,1.26-2.1,1.98-3.06c0.37-0.49,0.75-0.97,1.15-1.44c0.25-0.29,0.5-0.58,0.76-0.85l48.3,20.02
				c-0.01,0.38-0.04,0.76-0.07,1.14c-0.05,0.61-0.12,1.22-0.21,1.83c-0.18,1.19-0.43,2.38-0.77,3.56l-24.15-10.01l-2.46,5.94
				l24.15,10.01c-0.6,1.07-1.26,2.1-1.98,3.06C284.59-219.85,284.2-219.37,283.81-218.91z M288.88-219.76
				c-0.28,0.68-1.06,1-1.73,0.72l-0.75-0.31c1.41-1.9,2.61-4,3.55-6.28c0.95-2.28,1.58-4.62,1.93-6.96l0.75,0.31
				c0.68,0.28,1,1.06,0.72,1.73L288.88-219.76z"/>
		</g>
		<g>
			<g>
				<path class="st2" d="M57.9-274.78c0-0.01,0-0.01,0-0.02"/>
				<g>
					<path class="st3" d="M29.4-278.77c-15.7,0-28.44,1.77-28.49,3.95c0,0.01,0,0.02,0,0.04c0.08,2.18,12.8,3.94,28.49,3.94
						c15.69,0,28.41-1.76,28.49-3.94c0-0.01,0-0.02,0-0.04C57.84-277.01,45.11-278.77,29.4-278.77z"/>
					<path class="st4" d="M57.9-274.78c-0.08,2.18-12.81,3.94-28.49,3.94c-15.69,0-28.41-1.76-28.49-3.94
						c0.06,7.99,7.48,14.81,17.94,17.61c0.66,0.18,1.12,0.78,1.12,1.47l0,2.22c0,0.4,0.32,0.73,0.73,0.73l17.39,0
						c0.4,0,0.73-0.32,0.73-0.73l0-2.22c0-0.69,0.46-1.29,1.12-1.47C50.42-259.96,57.83-266.79,57.9-274.78z"/>
				</g>
				<path class="st5" d="M44.26-275.72c-0.73-2.29-0.65-1.85,0.65-6.41c1.3-4.57-0.03-4.8-0.56-8.16"/>
			</g>
			<path class="st1" d="M131.25-397.42c-0.29,6.3-1.76,11.44-7.82,13.81c-0.14,0.05-0.3-0.05-0.29-0.2
				c0.32-4.51,6.82-17.18-10.7-30.18c-0.47-0.35-1.12,0.08-0.99,0.65c3.9,17.28-11.26,24.23-6.82,34.4
				c0.07,0.15-0.06,0.32-0.22,0.29c-4.96-0.92-7-6.77-7.71-9.61c-0.14-0.55-0.88-0.65-1.16-0.16c-5.51,9.73-4.14,21.66,5.14,24.87
				c2.05,0.71,4.85,1.23,7.95,1.53c0.32,0.03,0.56-0.27,0.47-0.57c-2.04-7.08-2.31-13.49,4.34-24.28c0.28-0.46,1-0.29,1.03,0.25
				c0.54,8.09,1.67,10.86,5.46,12.64c2.41,1.13,5.77,0.28,7.46-1.74c0.31-0.37,0.91-0.16,0.96,0.31c0.45,4.19,0.95,8.83-1.34,12.02
				c-0.24,0.33,0.06,0.78,0.46,0.7c1.18-0.24,2.25-0.53,3.16-0.87c11.49-4.19,7.81-18.66,1.82-34.09
				C132.22-398.26,131.29-398.1,131.25-397.42z"/>
			<path class="st1" d="M132.84-286.61c-0.73,6.94-9.98,12.07-8.42,18.28c1.23,4.9,6.29,15.25,7.96,21.24
				c0.39,1.41-0.47,2.86-1.89,3.19l-8.66,2.03c-1.33,0.31-2.67-0.47-3.06-1.77c-2.77-9.29-1.19-16.84-6.41-21.86
				c-9.89-9.5-16.14-17.76-14.58-27.61c0.76-4.77,4.07-5.94,3.88-10.49c-0.19-4.55-1.92-9.13,3.34-11.03
				c5.26-1.9,12.14-1.37,13.29,6.23c1.15,7.59,7.41,3.42,8,8.48C126.88-294.79,133.57-293.55,132.84-286.61z M124.96-292.43
				c-1.48,17.42-6.16,15.64-6.8,23.52c-1.52-3.57-8.35-31.22-9.56-40.02c2.09,21.1,3,25.63,5.99,35.04
				c-1.63-4.37-2.67-6.07-9.08-13.34c8.77,11.95,15.98,34.33,17.32,39.7c0.05,0.19,0.21,0.33,0.41,0.34l1.97,0.14
				c0.33,0.02,0.58-0.29,0.47-0.61c-0.99-2.89-4.91-14.53-5.63-18.4C119.22-270.48,126.08-282.22,124.96-292.43z"/>
			<g>
				<path class="st1" d="M84.33-430.19c1.79,0.55,2.16,2.03,1.05,3.09c-11.82,11.37-23.64,22.73-35.45,34.1
					c-7.32,7.04-14.63,14.08-21.96,21.1c-0.27,0.26-0.54,0.88-1.04,0.41c-0.53-0.5,0.14-0.76,0.39-1.02
					c8.19-8.38,16.39-16.74,24.59-25.11c9.24-9.44,18.48-18.88,27.72-28.32c1.21-1.24,2.41-2.5,3.66-3.7
					C83.61-429.95,84.11-430.08,84.33-430.19z"/>
				<path class="st1" d="M67.64-434.38c0.37,0.19,0.91,0.39,1.33,0.72c0.53,0.42,0.48,0.99,0.18,1.57c-1.38,2.7-2.74,5.42-4.11,8.12
					c-5.19,10.23-10.38,20.45-15.57,30.68c-5.52,10.87-11.03,21.74-16.55,32.62c-0.1,0.19-0.18,0.41-0.33,0.55
					c-0.09,0.09-0.34,0.15-0.44,0.09c-0.14-0.08-0.29-0.28-0.28-0.43c0-0.2,0.14-0.4,0.23-0.6c10.7-22.73,21.39-45.45,32.09-68.18
					c0.69-1.46,1.38-2.92,2.06-4.38C66.49-434.16,66.9-434.42,67.64-434.38z"/>
			</g>
			<path class="st1" d="M90.99-323.9l-1.21-0.5c1.09-12.53-5.95-24.88-18.17-29.94c-12.22-5.06-25.93-1.31-34.02,8.31l-1.21-0.5
				c-1.57-0.65-3.37,0.1-4.02,1.67l-4.47,10.79c-0.65,1.57,0.1,3.37,1.67,4.02l1.21,0.5c-1.09,12.53,5.95,24.88,18.17,29.94
				c12.22,5.06,25.93,1.31,34.02-8.31l1.21,0.5c1.57,0.65,3.37-0.1,4.02-1.67l4.47-10.79C93.3-321.45,92.56-323.25,90.99-323.9z
				 M53.74-354.06l30.3,12.56c1.57,2.59,2.72,5.42,3.39,8.37l-42.01-17.41C47.98-352.15,50.8-353.34,53.74-354.06z M30.22-331.67
				c-0.68-0.28-1-1.06-0.72-1.73l4.47-10.79c0.28-0.68,1.06-1,1.73-0.72l0.75,0.31c-1.41,1.9-2.61,4-3.55,6.28
				c-0.95,2.28-1.58,4.62-1.93,6.96L30.22-331.67z M66.8-299.9l-30.3-12.56c-1.58-2.59-2.72-5.42-3.4-8.37l42.02,17.41
				C72.56-301.8,69.74-300.61,66.8-299.9z M81.49-308.91c-0.25,0.29-0.5,0.58-0.76,0.85l-48.3-20.02c0.01-0.38,0.04-0.76,0.07-1.14
				c0.05-0.61,0.12-1.22,0.21-1.83c0.18-1.19,0.43-2.38,0.77-3.56l24.15,10.01l2.46-5.94l-24.15-10.01c0.6-1.07,1.26-2.1,1.98-3.06
				c0.37-0.49,0.75-0.97,1.15-1.44c0.25-0.29,0.5-0.58,0.76-0.85l48.3,20.02c-0.01,0.38-0.04,0.76-0.07,1.14
				c-0.05,0.61-0.12,1.22-0.21,1.83c-0.18,1.19-0.43,2.38-0.77,3.56l-24.15-10.01l-2.46,5.94l24.15,10.01
				c-0.6,1.07-1.26,2.1-1.98,3.06C82.27-309.85,81.88-309.37,81.49-308.91z M86.56-309.76c-0.28,0.68-1.06,1-1.73,0.72l-0.75-0.31
				c1.41-1.9,2.61-4,3.55-6.28c0.95-2.28,1.58-4.62,1.93-6.96l0.75,0.31c0.68,0.28,1,1.06,0.72,1.73L86.56-309.76z"/>
		</g>
		<g>
			<g>
				<path class="st1" d="M349.15-455.98c1.27-0.84,2.51-1.66,3.8-2.52c0.52-0.34,1.23-0.2,1.57,0.32
					c7.08,10.69,14.09,21.28,21.16,31.97c0.35,0.52,0.2,1.23-0.32,1.57l-3.81,2.51c-0.51,0.34-1.22,0.19-1.56-0.33
					c-7.05-10.65-14.04-21.21-21.16-31.96C348.49-454.93,348.63-455.64,349.15-455.98z"/>
			</g>
		</g>
		<g>
			<g>
				<path class="st2" d="M260.22-364.78c0-0.01,0-0.01,0-0.02"/>
				<g>
					<path class="st2" d="M203.23-364.79c0,0.01,0,0.01,0,0.02c0-0.01,0-0.02,0-0.04C203.23-364.8,203.23-364.8,203.23-364.79z"/>
					<path class="st3" d="M231.72-368.77c-15.7,0-28.44,1.77-28.49,3.95c0,0.01,0,0.02,0,0.04c0.08,2.18,12.8,3.94,28.49,3.94
						c15.69,0,28.41-1.76,28.49-3.94c0-0.01,0-0.02,0-0.04C260.16-367.01,247.43-368.77,231.72-368.77z"/>
					<path class="st4" d="M260.22-364.78c-0.08,2.18-12.81,3.94-28.49,3.94c-15.69,0-28.41-1.76-28.49-3.94
						c0.06,7.99,7.48,14.81,17.94,17.61c0.66,0.18,1.12,0.78,1.12,1.47l0,2.22c0,0.4,0.32,0.73,0.73,0.73l17.39,0
						c0.4,0,0.73-0.32,0.73-0.73l0-2.22c0-0.69,0.46-1.29,1.12-1.47C252.74-349.96,260.15-356.79,260.22-364.78z"/>
				</g>
				<path class="st2" d="M222.3-346.89"/>
				<path class="st5" d="M215.7-365.72c-0.73-2.29-0.65-1.85,0.65-6.41c1.3-4.57-0.03-4.8-0.56-8.16"/>
				<path class="st5" d="M230.98-365.72c-0.49-1.53-0.43-1.23,0.43-4.27c0.87-3.04-0.02-3.19-0.37-5.43"/>
				<path class="st5" d="M246.58-365.72c-0.73-2.29-0.65-1.85,0.65-6.41c1.3-4.57-0.03-4.8-0.56-8.16"/>
			</g>
			<g>
				<path class="st1" d="M169.15-379.39c7.09,10.72,14.09,21.28,21.17,31.97c0.35,0.52,0.2,1.23-0.32,1.57l-3.81,2.52
					c-0.51,0.34-1.22,0.2-1.56-0.32c-7.05-10.66-14.05-21.23-21.17-31.97c-0.35-0.52-0.2-1.23,0.32-1.57l3.82-2.52
					C168.1-380.06,168.81-379.91,169.15-379.39z"/>
				<path class="st1" d="M146.83-365.98c1.27-0.84,2.51-1.66,3.8-2.52c0.52-0.34,1.23-0.2,1.57,0.32
					c7.08,10.69,14.09,21.28,21.16,31.97c0.35,0.52,0.2,1.23-0.32,1.57l-3.81,2.51c-0.51,0.34-1.22,0.19-1.56-0.33
					c-7.05-10.65-14.04-21.21-21.16-31.96C146.17-364.93,146.31-365.64,146.83-365.98z"/>
				<path class="st1" d="M155.43-371.72l3.81-2.52c0.52-0.34,1.22-0.19,1.57,0.33c2.99,4.52,5.91,8.93,8.89,13.43
					c0.33,0.51,0.21,1.19-0.28,1.54c-1.22,0.89-2.43,1.76-3.69,2.68c-0.52,0.38-1.25,0.24-1.61-0.29c-2.99-4.52-5.95-8.98-9.01-13.6
					C154.77-370.67,154.91-371.38,155.43-371.72z"/>
				<path class="st1" d="M167.66-353.15l3.7-2.69c0.51-0.37,1.25-0.24,1.6,0.3c3,4.54,5.96,9.01,9.01,13.6
					c0.35,0.52,0.2,1.23-0.32,1.57l-3.82,2.52c-0.5,0.33-1.21,0.19-1.55-0.33c-2.95-4.45-5.87-8.85-8.9-13.43
					C167.05-352.11,167.17-352.8,167.66-353.15z"/>
			</g>
			<path class="st1" d="M154.39-426.62c4.69-4.21,9.39-6.77,15.33-4.13c0.14,0.06,0.17,0.25,0.06,0.35
				c-3.44,2.94-17.02,7.2-13.98,28.8c0.08,0.58,0.84,0.74,1.16,0.25c9.57-14.91,25.16-8.98,29.29-19.3
				c0.06-0.15,0.27-0.18,0.36-0.05c2.83,4.18,0.09,9.74-1.43,12.23c-0.3,0.48,0.15,1.08,0.7,0.94c10.8-2.9,18.33-12.26,14.11-21.11
				c-0.94-1.96-2.53-4.31-4.49-6.74c-0.2-0.25-0.59-0.21-0.74,0.07c-3.61,6.43-7.98,11.12-20.34,13.96
				c-0.53,0.12-0.91-0.51-0.55-0.91c5.38-6.07,6.56-8.81,5.17-12.76c-0.88-2.51-3.85-4.31-6.48-4.09c-0.48,0.04-0.76-0.53-0.45-0.9
				c2.67-3.26,5.62-6.88,9.5-7.48c0.4-0.06,0.52-0.59,0.18-0.82c-1-0.67-1.96-1.23-2.84-1.65c-11.05-5.24-18.77,7.54-25.56,22.63
				C153.11-426.72,153.88-426.16,154.39-426.62z"/>
			<path class="st1" d="M335.16-376.61c-0.73,6.94-9.98,12.07-8.42,18.28c1.23,4.9,6.29,15.25,7.96,21.24
				c0.39,1.41-0.47,2.86-1.89,3.19l-8.66,2.03c-1.33,0.31-2.67-0.47-3.06-1.77c-2.77-9.29-1.19-16.84-6.41-21.86
				c-9.89-9.5-16.14-17.76-14.58-27.61c0.76-4.77,4.07-5.94,3.88-10.49c-0.19-4.55-1.92-9.13,3.34-11.03
				c5.26-1.9,12.14-1.37,13.29,6.23c1.15,7.59,7.41,3.42,8,8.48C329.2-384.79,335.89-383.55,335.16-376.61z M327.28-382.43
				c-1.48,17.42-6.16,15.64-6.8,23.52c-1.52-3.57-8.35-31.22-9.56-40.02c2.09,21.1,3,25.63,5.99,35.04
				c-1.63-4.37-2.67-6.07-9.08-13.34c8.77,11.95,15.98,34.33,17.32,39.7c0.05,0.19,0.21,0.33,0.41,0.34l1.97,0.14
				c0.33,0.02,0.58-0.29,0.47-0.61c-0.99-2.89-4.91-14.53-5.63-18.4C321.54-360.48,328.4-372.22,327.28-382.43z"/>
			<path class="st1" d="M293.31-413.9l-1.21-0.5c1.09-12.53-5.95-24.88-18.17-29.94c-12.22-5.06-25.93-1.31-34.02,8.31l-1.21-0.5
				c-1.57-0.65-3.37,0.1-4.02,1.67l-4.47,10.79c-0.65,1.57,0.1,3.37,1.67,4.02l1.21,0.5c-1.09,12.53,5.95,24.88,18.17,29.94
				c12.22,5.06,25.93,1.31,34.02-8.31l1.21,0.5c1.57,0.65,3.37-0.1,4.02-1.67l4.47-10.79C295.62-411.45,294.88-413.25,293.31-413.9z
				 M256.06-444.06l30.3,12.56c1.57,2.59,2.72,5.42,3.39,8.37l-42.01-17.41C250.3-442.15,253.12-443.34,256.06-444.06z
				 M232.54-421.67c-0.68-0.28-1-1.06-0.72-1.73l4.47-10.79c0.28-0.68,1.06-1,1.73-0.72l0.75,0.31c-1.41,1.9-2.61,4-3.55,6.28
				c-0.95,2.28-1.58,4.62-1.93,6.96L232.54-421.67z M269.12-389.9l-30.3-12.56c-1.58-2.59-2.72-5.42-3.4-8.37l42.02,17.41
				C274.88-391.8,272.06-390.61,269.12-389.9z M283.81-398.91c-0.25,0.29-0.5,0.58-0.76,0.85l-48.3-20.02
				c0.01-0.38,0.04-0.76,0.07-1.14c0.05-0.61,0.12-1.22,0.21-1.83c0.18-1.19,0.43-2.38,0.77-3.56l24.15,10.01l2.46-5.94
				l-24.15-10.01c0.6-1.07,1.26-2.1,1.98-3.06c0.37-0.49,0.75-0.97,1.15-1.44c0.25-0.29,0.5-0.58,0.76-0.85l48.3,20.02
				c-0.01,0.38-0.04,0.76-0.07,1.14c-0.05,0.61-0.12,1.22-0.21,1.83c-0.18,1.19-0.43,2.38-0.77,3.56l-24.15-10.01l-2.46,5.94
				l24.15,10.01c-0.6,1.07-1.26,2.1-1.98,3.06C284.59-399.85,284.2-399.37,283.81-398.91z M288.88-399.76
				c-0.28,0.68-1.06,1-1.73,0.72l-0.75-0.31c1.41-1.9,2.61-4,3.55-6.28s1.58-4.62,1.93-6.96l0.75,0.31c0.68,0.28,1,1.06,0.72,1.73
				L288.88-399.76z"/>
		</g>
		<g>
			<path class="st1" d="M132.84-466.61c-0.73,6.94-9.98,12.07-8.42,18.28c1.23,4.9,6.29,15.25,7.96,21.24
				c0.39,1.41-0.47,2.86-1.89,3.19l-8.66,2.03c-1.33,0.31-2.67-0.47-3.06-1.77c-2.77-9.29-1.19-16.84-6.41-21.86
				c-9.89-9.5-16.14-17.76-14.58-27.61c0.76-4.77,4.07-5.94,3.88-10.49c-0.19-4.55-1.92-9.13,3.34-11.03
				c5.26-1.9,12.14-1.37,13.29,6.23c1.15,7.59,7.41,3.42,8,8.48C126.88-474.79,133.57-473.55,132.84-466.61z M124.96-472.43
				c-1.48,17.42-6.16,15.64-6.8,23.52c-1.52-3.57-8.35-31.22-9.56-40.02c2.09,21.1,3,25.63,5.99,35.04
				c-1.63-4.37-2.67-6.07-9.08-13.34c8.77,11.95,15.98,34.33,17.32,39.7c0.05,0.19,0.21,0.33,0.41,0.34l1.97,0.14
				c0.33,0.02,0.58-0.29,0.47-0.61c-0.99-2.89-4.91-14.53-5.63-18.4C119.22-450.48,126.08-462.22,124.96-472.43z"/>
		</g>
	</g>
</pattern>
<rect class="st6" width="187.45" height="1213.12"/>
<pattern  id="SVGID_1_" xlink:href="#New_Pattern_3" patternTransform="matrix(1 0 0 1 -9.094947e-13 9.094947e-13)">
</pattern>
<rect y="0" class="st7" width="187.45" height="1213.12"/>
</svg>
