<?xml version="1.0" encoding="utf-8"?>
<!-- Generator: Adobe Illustrator 24.2.3, SVG Export Plug-In . SVG Version: 6.00 Build 0)  -->
<svg version="1.1" id="Layer_1" xmlns="http://www.w3.org/2000/svg" xmlns:xlink="http://www.w3.org/1999/xlink" x="0px" y="0px"
	 viewBox="0 0 282.3 255" style="enable-background:new 0 0 282.3 255;" xml:space="preserve">
<style type="text/css">
	.st0{fill:#1D1D1B;}
</style>
<g>
	<path class="st0" d="M85.8,10.2c62.5,35.1,124.1,69.7,186.4,104.7c3,1.7,4.1,5.6,2.4,8.6l-12.5,22.2c-1.7,3-5.5,4.1-8.6,2.4
		C191.5,113.2,129.9,78.6,67.2,43.4c-3-1.7-4.1-5.6-2.4-8.6l12.5-22.3C79,9.6,82.8,8.5,85.8,10.2z"/>
	<path class="st0" d="M9.3,133.6c4.2-7.4,8.2-14.7,12.5-22.2c1.7-3,5.6-4.1,8.6-2.4c62.3,35,124.1,69.7,186.4,104.7
		c3,1.7,4.1,5.6,2.4,8.6l-12.5,22.2c-1.7,3-5.5,4.1-8.6,2.4C136,212,74.4,177.4,11.7,142.2C8.7,140.5,7.6,136.6,9.3,133.6z"/>
	<path class="st0" d="M37.3,83.2L49.9,61c1.7-3,5.6-4.1,8.6-2.4c26.4,14.8,52.1,29.2,78.3,44c2.9,1.7,4.1,5.3,2.6,8.4
		c-3.8,7.5-7.5,14.9-11.5,22.7c-1.6,3.2-5.6,4.4-8.7,2.7c-26.4-14.8-52.4-29.4-79.3-44.5C36.7,90.1,35.6,86.2,37.3,83.2z"/>
	<path class="st0" d="M145.3,144.1l11.5-22.8c1.6-3.2,5.6-4.4,8.7-2.6c26.5,14.9,52.5,29.5,79.3,44.5c3,1.7,4.1,5.6,2.4,8.6
		l-12.5,22.2c-1.7,2.9-5.5,4-8.5,2.3c-25.9-14.6-51.7-29-78.3-43.9C144.9,150.8,143.8,147.1,145.3,144.1z"/>
</g>
</svg>
